<svg width="277" height="244" viewBox="0 0 277 244" fill="none" xmlns="http://www.w3.org/2000/svg">
<rect width="276" height="244" transform="translate(0.5)" fill="white"/>
<path fill-rule="evenodd" clip-rule="evenodd" d="M111.912 191.108C99.6972 180.671 91.9543 165.153 91.9543 147.828C91.9543 116.399 117.432 90.9209 148.861 90.9209C180.29 90.9209 205.768 116.399 205.768 147.828C205.768 165.153 198.025 180.671 185.81 191.108H111.912Z" fill="#D0EFE1"/>
<path d="M67.1518 184.829C67.1518 186.966 67.4802 189.068 68.1251 191.082H58.8672C58.3688 189.642 58.1167 188.131 58.1167 186.591C58.1167 179.313 63.8157 173.341 70.9922 172.896C68.5766 176.256 67.1518 180.379 67.1518 184.829Z" fill="black"/>
<path d="M71.2969 172.474C71.1913 172.608 71.0917 172.749 70.992 172.889C63.8155 173.34 58.1165 179.313 58.1165 186.585C58.1165 188.125 58.3686 189.636 58.867 191.076H68.1249C68.1308 191.088 68.1308 191.105 68.1366 191.117H58.4624C57.9699 189.659 57.7178 188.137 57.7178 186.585C57.7178 180.671 61.3764 175.595 66.5477 173.492C66.6826 173.44 66.8174 173.387 66.9523 173.334C68.3125 172.837 69.7783 172.538 71.2969 172.474Z" fill="black"/>
<path d="M137.369 184.283C137.527 183.768 137.638 183.27 137.703 182.802C140.705 183.914 142.745 186.092 142.745 188.593C142.745 189.448 142.505 190.279 142.036 191.07H125.138C126.246 190.9 127.548 190.648 128.873 190.291C133.687 188.997 136.542 186.977 137.369 184.283Z" fill="black"/>
<path d="M62.3857 135.52C62.3212 135.426 62.1981 135.403 62.1101 135.467C62.0163 135.532 61.9929 135.654 62.0573 135.742C62.1805 135.924 69.6032 146.838 75.8064 157.835C71.9016 154.755 44.1865 132.364 56.288 126.743C68.3192 121.157 75.1732 152.805 76.1348 157.583C75.2025 155.932 74.1941 154.198 73.1094 152.377C67.7563 143.407 62.4384 135.596 62.3857 135.52ZM45.4588 145.773C45.3943 145.86 45.4118 145.989 45.4998 146.054C45.6522 146.165 54.529 152.653 62.8664 160.042C58.3635 158.508 30.537 148.601 38.8275 140.421C47.1122 132.252 60.9902 156.142 63.1772 159.784C54.7988 152.354 45.8868 145.837 45.7343 145.726C45.6464 145.661 45.5233 145.679 45.4588 145.773ZM32.7826 169.616C33.838 157.454 50.2841 165.195 54.359 167.051C46.2327 166.407 39.578 171.308 39.5077 171.361C39.4197 171.425 39.4021 171.554 39.4666 171.642C39.5311 171.729 39.6601 171.747 39.7481 171.683C39.8184 171.63 46.7721 166.512 55.0802 167.525C52.9167 168.79 31.8093 180.829 32.7826 169.616Z" fill="#A2DFC3"/>
<path d="M75.7988 157.84C69.5956 146.844 62.1729 135.93 62.0497 135.748C61.9852 135.654 62.0087 135.531 62.1025 135.473C62.1963 135.408 62.3194 135.432 62.3781 135.526C62.4308 135.602 67.7487 143.413 73.1018 152.389C74.1865 154.21 75.1949 155.943 76.1272 157.594C77.7864 160.534 79.2053 163.204 80.3721 165.593C80.2431 165.64 80.1141 165.692 79.9851 165.745C78.7538 163.204 77.3115 160.522 75.7988 157.84ZM73.1487 170.295C70.4399 167.039 66.7109 163.444 62.8647 160.036C54.5273 152.647 45.6505 146.159 45.4981 146.048C45.4101 145.983 45.3867 145.86 45.457 145.767C45.5215 145.679 45.6447 145.655 45.7385 145.726C45.8909 145.837 54.8088 152.354 63.1813 159.784C67.0041 163.18 70.7213 166.764 73.436 170.014C73.3363 170.107 73.2425 170.201 73.1487 170.295ZM39.7463 171.682C39.6584 171.747 39.5294 171.729 39.4649 171.641C39.4004 171.554 39.418 171.425 39.5059 171.36C39.5763 171.308 46.231 166.407 54.3573 167.051C54.8029 167.086 55.2544 167.139 55.7058 167.209C59.8452 167.853 63.6093 169.891 66.9513 173.293C66.8165 173.345 66.6816 173.398 66.5468 173.451C63.2986 170.189 59.6458 168.228 55.6472 167.607C55.4596 167.578 55.2661 167.554 55.0785 167.531C46.7704 166.512 39.8167 171.63 39.7463 171.682Z" fill="black"/>
<path d="M98.7833 174.323C97.9566 176.601 99.4166 178.375 99.4166 178.375C99.4166 178.375 92.6212 182.462 92.3749 191.07H68.5588C67.8904 189.044 67.5562 186.93 67.5562 184.775C67.5562 173.674 76.603 164.639 87.7196 164.639C93.0961 164.639 97.9918 166.752 101.609 170.19C101.527 170.658 101.48 171.132 101.475 171.612C100.319 172.134 99.2758 172.977 98.7833 174.323Z" fill="white"/>
<path d="M68.223 191.333C68.1937 191.245 68.1644 191.157 68.1351 191.07C68.1292 191.058 68.1292 191.04 68.1233 191.029C67.4784 189.014 67.1501 186.912 67.1501 184.775C67.1501 180.325 68.5748 176.209 70.9904 172.842C71.0901 172.701 71.1956 172.561 71.2953 172.426C71.864 171.677 72.4797 170.962 73.1422 170.301C73.236 170.207 73.3298 170.113 73.4295 170.019C75.3116 168.204 77.5337 166.746 79.9962 165.745C80.1252 165.692 80.2542 165.64 80.3832 165.593C82.6639 164.72 85.1382 164.24 87.718 164.24C93.1121 164.24 98.0254 166.325 101.702 169.733C101.666 169.885 101.637 170.037 101.608 170.195C97.9902 166.758 93.0945 164.644 87.718 164.644C76.6014 164.644 67.5546 173.679 67.5546 184.781C67.5546 186.93 67.8947 189.049 68.5572 191.075H92.3792C92.3792 191.14 92.3733 191.21 92.3733 191.274H95.6801C95.686 191.31 95.7036 191.345 95.7329 191.374C95.7681 191.415 95.8208 191.438 95.8795 191.438H107.148C107.113 191.462 107.072 191.479 107.031 191.479H68.4224C68.3285 191.468 68.2465 191.415 68.223 191.333Z" fill="#333333"/>
<path d="M99.422 178.375C99.422 178.375 97.9621 176.601 98.7888 174.323C99.2755 172.977 100.325 172.133 101.48 171.612C101.462 173.527 102.113 175.477 103.743 177.099C103.133 177.392 101.627 178.223 100.055 179.915C98.2259 181.888 95.9804 185.449 95.6813 191.222C95.6813 191.24 95.6813 191.257 95.6872 191.275H92.3804C92.3804 191.21 92.3863 191.14 92.3863 191.076C92.6208 182.462 99.422 178.375 99.422 178.375Z" fill="#A2DFC3"/>
<path d="M126.398 180.261C126.504 180.29 126.615 180.232 126.644 180.126C126.674 180.021 126.615 179.91 126.509 179.88C126.181 179.787 119.321 177.866 115.457 179.886C117.932 176.953 120.693 174.394 123.138 172.362C128.861 167.607 134.143 164.65 134.196 164.621C134.29 164.568 134.325 164.446 134.272 164.352C134.219 164.258 134.096 164.223 134.002 164.276C133.95 164.305 128.644 167.28 122.892 172.052C122.153 172.666 121.385 173.328 120.611 174.031C121.924 168.866 123.214 164.557 123.226 164.51C123.255 164.405 123.197 164.293 123.091 164.258C122.986 164.229 122.874 164.287 122.839 164.393C122.827 164.44 121.432 169.089 120.072 174.517C118.061 176.373 115.997 178.51 114.15 180.858C114.121 180.887 114.091 180.923 114.062 180.952C114.044 180.975 114.033 180.999 114.021 181.022C113.001 182.328 112.057 183.704 111.224 185.127C111.418 183.03 111.078 181.461 110.216 180.466C109.301 179.412 108.14 179.418 108.093 179.418C107.982 179.418 107.894 179.511 107.894 179.623C107.894 179.734 107.988 179.822 108.093 179.822C108.117 179.822 109.131 179.828 109.917 180.741C110.825 181.795 111.089 183.581 110.702 186.052C109.835 187.662 109.119 189.331 108.627 191.041H96.0972C96.4314 185.525 98.5832 182.111 100.336 180.214C102.265 178.13 104.153 177.368 104.171 177.357C104.235 177.333 104.282 177.275 104.294 177.21C104.306 177.14 104.282 177.076 104.235 177.029C100.987 174.007 101.485 169.698 103.42 166.77C105.396 163.784 109.307 161.617 113.599 163.515C113.698 163.561 113.816 163.515 113.863 163.415C115.545 159.849 118.389 157.63 121.297 157.63C121.303 157.63 121.309 157.63 121.309 157.63C123.771 157.636 125.859 159.205 127.178 162.045C127.201 162.098 127.242 162.133 127.301 162.15C127.354 162.168 127.412 162.162 127.459 162.133C127.524 162.098 134.014 158.491 137.309 160.036C138.271 160.487 138.875 161.36 139.103 162.619C140.27 169.095 133.592 174.663 133.528 174.716C133.475 174.757 133.451 174.821 133.457 174.886C133.463 174.95 133.504 175.009 133.557 175.044C133.569 175.05 134.911 175.805 135.996 177.31C137.444 179.306 137.784 181.619 136.999 184.172C135.134 190.244 122.253 191.017 121.936 191.035H109.049C110.093 187.492 112.086 184.137 114.455 181.127C117.603 177.796 126.31 180.232 126.398 180.261Z" fill="white"/>
<path d="M113.575 163.058C115.334 159.451 118.272 157.22 121.285 157.22C121.291 157.22 121.297 157.22 121.297 157.22C123.83 157.226 126.058 158.848 127.436 161.676C128.561 161.067 134.266 158.168 137.462 159.673C138.546 160.183 139.226 161.149 139.479 162.548C139.977 165.324 139.144 168.368 137.069 171.343C135.832 173.123 134.477 174.394 133.967 174.844C134.401 175.125 135.333 175.811 136.178 176.917C136.213 176.964 136.254 177.011 136.289 177.064C137.133 178.223 137.972 180.015 137.743 182.404C137.731 182.538 137.714 182.673 137.696 182.808C137.632 183.282 137.52 183.774 137.362 184.289C136.535 186.983 133.68 189.003 128.872 190.297C127.547 190.654 126.245 190.9 125.137 191.076C123.279 191.362 121.954 191.433 121.93 191.439C121.924 191.439 121.924 191.439 121.918 191.439H108.762C108.85 191.439 108.932 191.38 108.955 191.292C108.979 191.204 109.008 191.122 109.031 191.04H121.918C122.235 191.023 135.122 190.25 136.981 184.178C137.767 181.625 137.426 179.318 135.978 177.315C134.894 175.816 133.551 175.061 133.539 175.049C133.481 175.014 133.445 174.956 133.44 174.891C133.434 174.827 133.463 174.762 133.51 174.721C133.58 174.669 140.253 169.1 139.086 162.624C138.857 161.365 138.259 160.493 137.292 160.042C133.997 158.49 127.506 162.097 127.442 162.138C127.395 162.168 127.336 162.173 127.283 162.156C127.23 162.138 127.184 162.103 127.16 162.05C125.841 159.211 123.754 157.641 121.291 157.635C121.285 157.635 121.279 157.635 121.279 157.635C118.371 157.635 115.528 159.849 113.845 163.421C113.798 163.52 113.681 163.561 113.581 163.52C109.289 161.623 105.379 163.784 103.403 166.776C101.468 169.703 100.969 174.013 104.218 177.034C104.27 177.081 104.288 177.151 104.276 177.216C104.265 177.286 104.218 177.339 104.153 177.362C104.136 177.368 102.248 178.135 100.319 180.22C98.5597 182.117 96.4079 185.53 96.0796 191.046H108.609C108.597 191.093 108.58 191.146 108.568 191.193C108.539 191.298 108.603 191.409 108.709 191.439C108.726 191.444 108.744 191.444 108.762 191.444H107.137H95.8685C95.8157 191.444 95.763 191.421 95.7219 191.38C95.6985 191.351 95.6809 191.316 95.6692 191.28C95.6633 191.263 95.6633 191.245 95.6633 191.228C95.9623 185.46 98.2079 181.894 100.037 179.921C101.609 178.229 103.115 177.397 103.725 177.105C102.095 175.477 101.444 173.533 101.462 171.618C101.468 171.138 101.515 170.664 101.597 170.195C101.626 170.043 101.655 169.885 101.691 169.733C101.954 168.585 102.441 167.49 103.068 166.536C104.282 164.703 106.194 163.169 108.474 162.613C110.046 162.226 111.775 162.308 113.575 163.058Z" fill="#333333"/>
<path d="M114.144 180.852C115.991 178.504 118.055 176.367 120.066 174.511C120.06 174.528 120.06 174.546 120.054 174.563C120.025 174.669 120.095 174.78 120.201 174.803C120.218 174.809 120.236 174.809 120.248 174.809C120.336 174.809 120.418 174.751 120.441 174.657C120.494 174.44 120.547 174.23 120.605 174.019C121.385 173.316 122.147 172.655 122.886 172.04C128.638 167.268 133.944 164.293 133.997 164.264C134.096 164.211 134.214 164.246 134.266 164.34C134.319 164.434 134.284 164.557 134.19 164.609C134.137 164.639 128.861 167.596 123.132 172.35C120.687 174.382 117.926 176.941 115.452 179.874C114.965 180.132 114.519 180.454 114.144 180.852ZM108.574 191.175C108.586 191.128 108.603 191.076 108.615 191.029C109.108 189.313 109.823 187.644 110.691 186.04V186.046C110.673 186.157 110.749 186.257 110.855 186.274C110.867 186.274 110.878 186.274 110.884 186.274C110.984 186.274 111.066 186.204 111.084 186.104C111.136 185.765 111.177 185.431 111.207 185.115C112.039 183.692 112.989 182.322 114.003 181.01C113.98 181.086 113.998 181.168 114.062 181.221C114.103 181.256 114.15 181.274 114.197 181.274C114.25 181.274 114.308 181.25 114.349 181.209C114.379 181.18 114.408 181.151 114.437 181.116C112.074 184.125 110.075 187.48 109.031 191.023C109.008 191.105 108.979 191.193 108.955 191.275C108.932 191.362 108.85 191.421 108.762 191.421C108.744 191.421 108.727 191.421 108.709 191.415C108.609 191.392 108.545 191.281 108.574 191.175Z" fill="black"/>
<path d="M120.247 174.809C120.229 174.809 120.212 174.809 120.2 174.803C120.095 174.774 120.03 174.668 120.053 174.563C120.059 174.545 120.059 174.528 120.065 174.51C121.431 169.076 122.821 164.427 122.833 164.386C122.862 164.281 122.973 164.222 123.085 164.252C123.19 164.281 123.249 164.392 123.22 164.503C123.208 164.55 121.918 168.86 120.605 174.024C120.552 174.235 120.499 174.452 120.44 174.663C120.423 174.75 120.341 174.809 120.247 174.809ZM114.143 180.852C114.519 180.453 114.958 180.137 115.451 179.88C119.315 177.86 126.175 179.78 126.503 179.874C126.608 179.903 126.673 180.014 126.638 180.12C126.608 180.225 126.497 180.29 126.392 180.254C126.304 180.231 117.597 177.789 114.437 181.115C114.407 181.144 114.378 181.174 114.349 181.209C114.308 181.256 114.255 181.273 114.196 181.273C114.149 181.273 114.102 181.256 114.061 181.221C114.003 181.168 113.979 181.08 114.003 181.01C114.009 180.986 114.026 180.963 114.044 180.939C114.085 180.91 114.114 180.881 114.143 180.852ZM109.91 180.729C109.125 179.821 108.11 179.809 108.087 179.809C107.975 179.809 107.887 179.722 107.887 179.61C107.887 179.499 107.975 179.411 108.087 179.405C108.134 179.405 109.295 179.4 110.209 180.453C111.077 181.449 111.411 183.012 111.218 185.114C111.188 185.431 111.147 185.758 111.095 186.104C111.077 186.203 110.995 186.274 110.895 186.274C110.884 186.274 110.872 186.274 110.866 186.274C110.755 186.256 110.684 186.157 110.702 186.045V186.04C111.083 183.569 110.819 181.783 109.91 180.729Z" fill="black"/>
<g clip-path="url(#clip0_609_97095)">
<path d="M135.499 96.3369C137.188 100.622 140.45 103.999 144.669 105.83C146.871 106.782 149.189 107.266 151.515 107.266C153.658 107.266 155.8 106.863 157.856 106.05C160.825 104.871 163.399 102.9 165.308 100.344L168.621 99.6918L176.029 101.743L162.514 104.409C160.693 106.885 158.185 108.892 155.12 110.108C146.432 113.551 136.596 109.28 133.158 100.578C130.942 94.9598 131.93 88.858 135.25 84.3164C133.948 88.0815 133.919 92.3301 135.499 96.3369Z" fill="#45BE86"/>
<path d="M165.082 99.7504C165.009 99.7651 164.936 99.809 164.892 99.8676C163.049 102.38 160.533 104.314 157.637 105.457C153.512 107.09 148.993 107.017 144.926 105.252C140.853 103.486 137.715 100.234 136.085 96.1025C132.713 87.5688 136.904 77.885 145.424 74.5081C149.548 72.8746 154.068 72.9479 158.134 74.7132C162.208 76.4786 165.345 79.7309 166.976 83.8623C168.3 87.2245 168.505 90.8358 167.569 94.3152C167.525 94.4764 167.62 94.6522 167.788 94.6961L177.317 97.3331L165.082 99.7504ZM155.582 81.2839C153.322 81.2839 151.487 83.1225 151.487 85.3859C151.487 87.6494 153.322 89.488 155.582 89.488C157.842 89.488 159.678 87.6494 159.678 85.3859C159.678 83.1225 157.842 81.2839 155.582 81.2839ZM155.882 99.5526C155.933 99.6186 156.006 99.6625 156.087 99.6772C156.101 99.6772 156.116 99.6772 156.131 99.6772C156.196 99.6772 156.262 99.6552 156.313 99.6186L158.376 98.0876C158.515 97.9851 158.544 97.7946 158.442 97.6555L146.967 82.0969C146.916 82.031 146.843 81.9871 146.762 81.9724C146.682 81.9578 146.601 81.9797 146.535 82.031L144.473 83.562C144.334 83.6645 144.305 83.855 144.407 83.9941L155.882 99.5526ZM146.938 100.219C149.197 100.219 151.033 98.3806 151.033 96.1172C151.033 93.8537 149.197 92.0151 146.938 92.0151C144.678 92.0151 142.842 93.8537 142.842 96.1172C142.842 98.3733 144.678 100.219 146.938 100.219Z" fill="white"/>
<path d="M178.713 97.6996L168.628 99.692L165.315 100.344C163.406 102.9 160.832 104.871 157.862 106.05C155.807 106.863 153.665 107.266 151.522 107.266C149.196 107.266 146.87 106.79 144.676 105.83C140.449 103.999 137.195 100.63 135.505 96.3371C133.926 92.3303 133.955 88.0817 135.271 84.302C136.866 79.7311 140.354 75.8488 145.196 73.9369C149.474 72.2449 154.162 72.3181 158.382 74.1494C162.609 75.9807 165.863 79.3502 167.553 83.6427C168.891 87.0342 169.125 90.6748 168.24 94.1908L178.735 97.0916C178.874 97.1282 178.969 97.2601 178.962 97.3992C178.954 97.5457 178.852 97.6703 178.713 97.6996ZM167.779 94.7109C167.618 94.667 167.516 94.4985 167.56 94.33C168.503 90.8506 168.299 87.232 166.968 83.8771C165.337 79.7457 162.192 76.4934 158.126 74.7281C154.052 72.9627 149.54 72.8895 145.415 74.523C136.895 77.8998 132.704 87.5836 136.076 96.1173C137.707 100.249 140.851 103.501 144.918 105.266C148.991 107.032 153.504 107.105 157.628 105.471C160.532 104.321 163.04 102.388 164.883 99.8824C164.927 99.8165 165 99.7799 165.073 99.7652L177.301 97.3553L167.779 94.7109Z" fill="#333333"/>
<path d="M143.549 139.321L145.575 137.401C145.78 137.643 146.036 137.856 146.35 138.046C146.401 138.075 146.46 138.09 146.511 138.09C146.613 138.09 146.716 138.039 146.774 137.944C146.818 137.878 146.825 137.804 146.818 137.731L148.617 137.438C148.054 138.119 147.645 138.793 147.396 139.248C146.365 139.343 144.939 139.423 143.549 139.321Z" fill="white"/>
<path d="M143.55 139.321C144.94 139.424 146.366 139.343 147.39 139.248C147.221 139.556 147.126 139.761 147.112 139.798C147.097 139.827 147.09 139.863 147.09 139.9C146.468 139.951 145.737 139.988 144.969 139.988C144.311 139.988 143.631 139.959 142.958 139.885L143.55 139.321Z" fill="#333333"/>
<path d="M135.295 146.302L117.494 127.469L130.336 115.287L143.83 129.564C143.076 129.586 142.396 129.71 141.906 129.959C141.343 130.238 141.153 130.611 141.094 130.875C141.043 131.102 141.087 131.314 141.219 131.498C141.621 132.069 142.813 132.215 144.071 132.362C144.766 132.45 145.819 132.574 145.98 132.772C146.097 132.926 145.848 133.468 145.651 133.9C145.27 134.728 144.766 135.834 145.234 136.867L135.295 146.302ZM130.687 121.938C130.57 121.814 130.373 121.806 130.249 121.924L124.222 127.571C124.098 127.689 124.091 127.886 124.208 128.011C124.266 128.077 124.354 128.106 124.434 128.106C124.508 128.106 124.588 128.077 124.647 128.025L130.673 122.378C130.797 122.261 130.804 122.063 130.687 121.938ZM134.205 125.608C134.088 125.484 133.891 125.476 133.766 125.594L127.55 131.439C127.426 131.556 127.418 131.754 127.535 131.878C127.594 131.944 127.682 131.974 127.762 131.974C127.835 131.974 127.916 131.944 127.974 131.893L134.191 126.048C134.315 125.93 134.322 125.733 134.205 125.608ZM137.898 130.084C138.023 129.967 138.037 129.776 137.92 129.644C137.803 129.52 137.613 129.505 137.482 129.622L131.309 135.153C131.185 135.27 131.17 135.46 131.287 135.592C131.346 135.658 131.433 135.695 131.521 135.695C131.594 135.695 131.667 135.666 131.726 135.614L137.898 130.084Z" fill="white"/>
<path d="M143.829 129.564L130.336 115.287L117.493 127.469L135.294 146.302L145.24 136.874C145.284 136.962 145.328 137.057 145.387 137.145C145.445 137.233 145.511 137.321 145.584 137.409L143.558 139.328L142.958 139.892L135.499 146.968C135.44 147.027 135.36 147.056 135.287 147.056C135.206 147.056 135.126 147.027 135.06 146.961L116.835 127.681C116.777 127.623 116.747 127.542 116.747 127.462C116.747 127.381 116.784 127.3 116.842 127.242L130.138 114.635C130.262 114.518 130.46 114.525 130.577 114.65L144.706 129.6C144.407 129.564 144.114 129.556 143.829 129.564Z" fill="#333333"/>
<path d="M146.675 137.519C146.339 137.307 146.075 137.072 145.907 136.801C145.381 135.981 145.827 135.014 146.214 134.157C146.544 133.446 146.821 132.831 146.463 132.384C146.163 132.003 145.388 131.893 144.152 131.747C143.231 131.637 141.973 131.483 141.731 131.139C141.709 131.102 141.695 131.073 141.709 131.007C141.753 130.817 141.914 130.648 142.192 130.509C143.296 129.952 145.673 130.106 147.275 130.831C148.591 131.432 150.559 133.556 151.875 135.109C150.5 135.519 149.418 136.486 148.628 137.438L146.829 137.731C146.807 137.651 146.756 137.57 146.675 137.519Z" fill="white"/>
<path d="M151.857 135.109C150.541 133.556 148.581 131.432 147.257 130.832C145.656 130.106 143.286 129.953 142.175 130.509C141.897 130.648 141.736 130.817 141.692 131.007C141.677 131.073 141.692 131.103 141.714 131.139C141.955 131.483 143.22 131.637 144.135 131.747C145.37 131.901 146.146 132.011 146.446 132.384C146.804 132.831 146.519 133.447 146.197 134.157C145.802 135.014 145.356 135.981 145.89 136.801C146.065 137.065 146.321 137.307 146.658 137.519C146.738 137.571 146.789 137.651 146.797 137.732C146.811 137.805 146.797 137.878 146.753 137.944C146.694 138.039 146.592 138.091 146.489 138.091C146.431 138.091 146.38 138.076 146.329 138.047C146.021 137.856 145.758 137.637 145.553 137.402C145.48 137.322 145.414 137.234 145.356 137.138C145.297 137.051 145.253 136.955 145.21 136.867C144.734 135.835 145.246 134.728 145.626 133.901C145.824 133.461 146.073 132.919 145.956 132.773C145.795 132.575 144.742 132.443 144.047 132.362C142.789 132.209 141.597 132.062 141.195 131.498C141.063 131.315 141.026 131.103 141.07 130.875C141.129 130.612 141.319 130.238 141.882 129.96C142.372 129.718 143.052 129.586 143.805 129.564C144.091 129.557 144.383 129.564 144.683 129.586C145.656 129.659 146.665 129.894 147.499 130.267C149.005 130.956 151.185 133.359 152.53 134.956C152.311 134.999 152.084 135.051 151.857 135.109Z" fill="#333333"/>
<path d="M157.444 121.938C156.508 119.719 157.028 117.492 157.635 117.221C157.971 117.074 158.454 117.587 158.9 118.561C160.684 122.488 164.758 122.971 164.933 122.993C165.05 123.008 165.167 122.949 165.226 122.847C165.292 122.744 165.292 122.62 165.226 122.517C164.56 121.462 163.749 119.741 164.019 119.191C164.041 119.147 164.085 119.052 164.312 119.038C164.319 119.038 164.326 119.038 164.334 119.038C165.219 119.038 168.071 122.788 170.682 126.89C168.612 126.985 166.813 128.355 165.818 129.293C164.875 128.399 163.653 127.527 162.396 126.626C160.311 125.117 158.139 123.572 157.444 121.938Z" fill="white"/>
<path d="M170.696 126.883C168.086 122.781 165.233 119.03 164.348 119.03C164.341 119.03 164.334 119.03 164.326 119.03C164.1 119.052 164.056 119.147 164.034 119.184C163.763 119.733 164.575 121.462 165.241 122.51C165.306 122.612 165.306 122.737 165.241 122.839C165.175 122.942 165.065 122.993 164.948 122.986C164.773 122.964 160.706 122.488 158.915 118.554C158.468 117.58 157.986 117.067 157.649 117.214C157.035 117.485 156.523 119.711 157.459 121.931C158.147 123.564 160.319 125.117 162.418 126.612C163.676 127.513 164.897 128.384 165.84 129.278C165.665 129.439 165.519 129.586 165.394 129.718C164.465 128.839 163.251 127.967 162.059 127.117C159.887 125.572 157.642 123.967 156.889 122.173C155.872 119.77 156.326 117.126 157.401 116.65C157.81 116.466 158.629 116.445 159.478 118.305C160.706 121.001 163.178 121.938 164.363 122.239C163.851 121.323 163.083 119.719 163.485 118.906C163.588 118.701 163.807 118.444 164.283 118.408C164.626 118.378 165.54 118.305 169.044 123.286C169.972 124.612 170.85 125.952 171.442 126.897C171.186 126.883 170.938 126.875 170.696 126.883Z" fill="#333333"/>
<path d="M190.949 281.676C190.444 279.391 184.937 254.207 181.873 225.91C179.123 200.47 180.271 170.65 180.652 162.658C183.197 163.032 187.848 163.156 193.084 163.156C193.326 163.156 193.567 163.156 193.816 163.156L190.89 178.063C190.744 178.034 190.598 178.114 190.547 178.253C190.422 178.576 187.439 186.377 187.585 208.858C187.665 221.244 195.937 237.968 205.269 251.944C204.311 268.381 203.162 279.142 202.043 281.75C199.579 284.504 192.134 282.087 190.949 281.676Z" fill="#333333"/>
<path d="M180.658 162.651C180.27 170.643 179.122 200.463 181.879 225.903C184.944 254.207 190.443 279.384 190.955 281.669C192.14 282.079 199.585 284.497 202.042 281.735C203.161 279.127 204.302 268.374 205.267 251.929C205.458 252.215 205.648 252.493 205.838 252.772C205.092 265.393 203.988 278.871 202.591 282.021C202.576 282.05 202.561 282.072 202.54 282.094C202.079 282.629 201.472 282.995 200.777 283.244C200.572 283.317 200.36 283.376 200.148 283.427C199.49 283.581 198.773 283.647 198.035 283.647C195.702 283.647 193.186 283.002 191.752 282.57C191.526 282.504 191.328 282.438 191.16 282.38C190.838 282.277 190.633 282.196 190.582 282.182C190.487 282.145 190.407 282.065 190.385 281.962C190.355 281.823 188.666 274.3 186.618 262.814C186.574 262.565 186.531 262.309 186.487 262.06C184.724 252.134 182.72 239.403 181.265 225.962C178.5 200.404 179.663 170.445 180.051 162.541C180.226 162.585 180.431 162.622 180.658 162.651Z" fill="#333333"/>
<path d="M156.29 147.034C151.449 143.921 148.407 140.617 147.756 139.885C148.18 139.043 150.191 135.446 153.358 135.534C155.164 136.303 161.249 138.779 167.246 140.053C169.103 140.449 170.778 140.691 172.255 140.786C173.718 142.324 175.495 143.965 177.587 145.518C177.375 148.228 177.302 150.821 177.382 153.165C168.394 153.473 161.015 150.067 156.29 147.034Z" fill="white"/>
<path d="M172.263 140.785C170.785 140.69 169.11 140.448 167.253 140.053C161.249 138.778 155.171 136.302 153.365 135.533C150.198 135.438 148.194 139.035 147.763 139.884C148.414 140.617 151.449 143.928 156.297 147.034C161.022 150.066 168.401 153.48 177.397 153.165C177.404 153.37 177.411 153.575 177.426 153.78C177.031 153.795 176.629 153.802 176.241 153.802C167.626 153.802 160.554 150.498 155.968 147.554C150.425 143.994 147.192 140.163 147.163 140.126C147.112 140.06 147.09 139.98 147.097 139.899C147.097 139.862 147.104 139.833 147.119 139.796C147.134 139.76 147.229 139.547 147.397 139.247C147.646 138.793 148.055 138.119 148.618 137.438C149.408 136.486 150.498 135.519 151.866 135.108C152.085 135.042 152.319 134.991 152.553 134.955C152.772 134.925 152.999 134.903 153.233 134.903C153.306 134.903 153.372 134.903 153.445 134.911C153.482 134.911 153.518 134.918 153.555 134.933C155.281 135.665 161.373 138.163 167.385 139.438C168.935 139.767 170.361 139.987 171.641 140.104C171.838 140.331 172.043 140.558 172.263 140.785Z" fill="#333333"/>
<path d="M219.648 162.497C220.277 165.119 221.732 172.071 221.849 180.817C221.981 191.08 220.233 205.979 211.172 218.688C211.099 218.79 211.091 218.922 211.157 219.032C231.825 252.574 235.284 269.224 235.599 270.945C234.875 271.692 230.552 275.999 226.947 276.468C215.699 268.213 188.347 231.316 188.201 208.85C188.054 186.523 191.089 178.554 191.119 178.473C191.184 178.312 191.104 178.136 190.943 178.07C190.928 178.063 190.907 178.056 190.892 178.056L193.817 163.149C204.612 163.127 217.535 162.585 219.648 162.497ZM214.412 177.162C215.085 177.162 215.523 177.067 215.538 177.067C215.706 177.03 215.809 176.862 215.772 176.693C215.735 176.525 215.567 176.422 215.399 176.459C215.194 176.503 210.36 177.521 208.254 171.822C208.195 171.661 208.013 171.58 207.859 171.639C207.698 171.697 207.618 171.873 207.676 172.034C209.329 176.525 212.664 177.162 214.412 177.162Z" fill="#333333"/>
<path d="M218.674 230.533C223.566 239.184 227.113 246.399 229.688 252.223C229.702 252.252 229.717 252.289 229.732 252.318C229.849 252.589 229.966 252.853 230.083 253.116C235.29 265.086 236.226 270.902 236.24 270.997C236.255 271.092 236.226 271.187 236.16 271.253C236.145 271.268 236.101 271.312 236.043 271.378C235.948 271.48 235.794 271.634 235.59 271.832C234.383 273.019 231.472 275.663 228.554 276.696C228.357 276.762 228.166 276.828 227.969 276.879C227.611 276.982 227.252 277.055 226.901 277.091C226.887 277.091 226.879 277.091 226.865 277.091C226.799 277.091 226.733 277.069 226.682 277.033C221.687 273.414 213.459 264.053 205.831 252.779C205.641 252.501 205.451 252.215 205.261 251.937C195.929 237.961 187.658 221.238 187.577 208.851C187.431 186.363 190.415 178.569 190.539 178.247C190.598 178.107 190.744 178.027 190.883 178.056C190.897 178.056 190.919 178.063 190.934 178.071C191.095 178.137 191.168 178.312 191.11 178.474C191.08 178.554 188.045 186.517 188.192 208.851C188.338 231.317 215.683 268.213 226.938 276.469C230.543 276 234.866 271.693 235.59 270.946C235.275 269.224 231.823 252.574 211.148 219.033C211.082 218.923 211.09 218.791 211.163 218.688C220.224 205.979 221.972 191.08 221.84 180.818C221.731 172.071 220.275 165.12 219.639 162.498C219.756 162.49 219.844 162.49 219.895 162.483C219.917 162.483 219.939 162.476 219.961 162.476C220.012 162.461 220.107 162.424 220.239 162.344C220.875 164.995 222.345 171.998 222.455 180.788C222.586 191.102 220.838 206.067 211.784 218.879C214.205 222.805 216.385 226.504 218.352 229.976C218.469 230.167 218.571 230.35 218.674 230.533Z" fill="#333333"/>
<path d="M192.397 152.008C194.408 152.367 196.244 152.528 197.933 152.528C204.574 152.528 208.786 150.067 211.287 147.73C214.696 144.551 215.727 140.998 215.771 140.845C215.814 140.684 215.719 140.508 215.559 140.464C215.485 140.442 215.412 140.449 215.346 140.478L208.34 125.213C208.391 125.14 208.428 125.096 208.443 125.074C208.545 124.935 208.516 124.744 208.377 124.642C208.238 124.539 208.048 124.568 207.945 124.707C207.879 124.795 201.297 133.835 196.237 137.255C194.116 138.691 190.115 137.959 184.659 135.146C183.116 134.347 181.595 133.461 180.176 132.567C180.622 130.604 181.127 128.685 181.705 126.861C184.009 119.536 186.97 115.024 190.049 114.145C191.183 113.822 192.273 113.559 193.319 113.346C192.836 114.277 192.382 114.811 192.375 114.826C192.317 114.899 192.287 114.994 192.309 115.09C192.324 115.148 193.494 120.664 197.721 120.664C201.568 120.664 205.364 114.152 206.051 112.899C206.709 113.009 207.075 113.105 207.09 113.112C207.097 113.112 207.097 113.112 207.104 113.112C207.141 113.119 210.622 113.954 214.213 117.5C217.533 120.774 221.629 127.088 222.309 138.603C223.53 159.363 220.159 161.692 219.844 161.86C218.316 161.926 186.422 163.281 179.964 161.89C178.224 159.612 177.69 153.305 178.216 145.943C181.954 148.631 186.678 150.99 192.397 152.008Z" fill="white"/>
<path d="M219.901 162.49C219.85 162.49 219.77 162.498 219.645 162.505C217.532 162.593 204.609 163.135 193.814 163.157C193.573 163.157 193.324 163.157 193.083 163.157C187.847 163.157 183.195 163.025 180.65 162.659C180.431 162.63 180.226 162.593 180.036 162.556C179.919 162.534 179.802 162.512 179.692 162.483C179.626 162.468 179.568 162.432 179.524 162.373C178.273 160.835 177.608 157.707 177.411 153.781C177.403 153.576 177.389 153.371 177.381 153.166C177.293 150.829 177.374 148.228 177.586 145.518C177.783 145.665 177.981 145.811 178.186 145.95C177.666 153.305 178.2 159.612 179.934 161.897C186.391 163.289 218.278 161.934 219.814 161.868C220.128 161.699 223.499 159.37 222.278 138.611C221.598 127.096 217.502 120.774 214.182 117.507C210.591 113.969 207.11 113.127 207.074 113.119C207.066 113.119 207.066 113.119 207.059 113.119C207.044 113.112 206.686 113.017 206.02 112.907C206.079 112.804 206.116 112.731 206.13 112.709C206.181 112.614 206.181 112.497 206.123 112.401C206.123 112.394 206.094 112.357 206.057 112.284C206.752 112.401 207.154 112.504 207.213 112.519C207.432 112.57 210.906 113.427 214.577 117.038C217.985 120.386 222.198 126.839 222.885 138.581C224.033 158.132 221.21 161.699 220.23 162.344C220.099 162.432 220.004 162.461 219.952 162.476C219.945 162.483 219.923 162.483 219.901 162.49ZM193.302 113.346C192.257 113.559 191.167 113.822 190.033 114.145C186.954 115.024 183.993 119.543 181.689 126.861C181.118 128.685 180.606 130.604 180.16 132.567C179.978 132.45 179.795 132.333 179.612 132.216C180.051 130.275 180.555 128.407 181.096 126.671C182.771 121.345 185.653 114.745 189.858 113.544C191.174 113.171 192.432 112.87 193.632 112.643C193.529 112.899 193.412 113.134 193.302 113.346Z" fill="#333333"/>
<path d="M192.339 90.5137C191.476 92.7991 192.493 95.0772 193.744 95.9562C194.526 96.5056 195.331 96.4324 195.806 95.7731C196.252 95.1505 197.078 95.0259 197.656 95.1065C198.241 95.1944 198.68 95.4874 198.812 95.883C198.973 96.3518 198.695 96.9817 198.044 97.663C196.172 99.5895 194.636 102.783 195.477 104.907C195.813 105.757 196.698 106.79 198.987 106.878C199.17 106.885 199.346 106.893 199.521 106.893C201.013 106.893 202.256 106.629 203.266 106.255C203.975 109.61 205.189 111.962 205.525 112.57C204.933 113.632 201.21 120.056 197.707 120.056C194.336 120.056 193.137 115.932 192.932 115.111C193.385 114.533 195.177 112.013 195.148 108.402C195.148 108.314 195.111 108.233 195.045 108.174C194.979 108.116 194.899 108.087 194.811 108.094C194.738 108.101 187.79 108.614 187.315 104.424C187.11 102.607 187.322 99.2232 188.017 95.9123C188.229 95.1212 188.807 92.9603 189.297 91.5685C190.182 91.715 191.447 91.0704 192.339 90.5137Z" fill="white"/>
<path d="M206.145 112.701C206.13 112.723 206.094 112.796 206.035 112.899C205.341 114.151 201.552 120.663 197.705 120.663C193.478 120.663 192.308 115.14 192.294 115.089C192.272 114.994 192.301 114.898 192.359 114.825C192.367 114.81 192.82 114.276 193.303 113.345C193.412 113.133 193.53 112.899 193.639 112.649C194.085 111.624 194.488 110.283 194.524 108.731C193.025 108.789 187.181 108.753 186.699 104.489C186.494 102.687 186.655 99.4936 187.298 96.2412C187.372 96.3145 187.416 96.3511 187.43 96.3658C187.511 96.439 187.62 96.461 187.723 96.4317C187.825 96.4024 187.906 96.3145 187.935 96.212C187.935 96.2046 187.964 96.0947 188.015 95.9043C187.32 99.2152 187.108 102.599 187.313 104.416C187.788 108.613 194.736 108.093 194.809 108.086C194.897 108.079 194.978 108.108 195.043 108.167C195.109 108.225 195.146 108.306 195.146 108.394C195.175 112.005 193.391 114.517 192.93 115.103C193.135 115.924 194.334 120.048 197.705 120.048C201.201 120.048 204.924 113.624 205.523 112.562C205.187 111.946 203.973 109.602 203.264 106.247C203.468 106.174 203.659 106.094 203.841 106.013C204.543 109.412 205.779 111.756 206.072 112.291C206.109 112.364 206.138 112.4 206.138 112.408C206.196 112.488 206.196 112.606 206.145 112.701Z" fill="#333333"/>
<path d="M206.351 103.339C206.051 103.735 203.843 106.438 199.009 106.247C197.436 106.182 196.442 105.654 196.047 104.665C195.323 102.856 196.719 99.8966 198.482 98.0873C199.542 96.9959 199.564 96.1755 199.396 95.6774C199.184 95.0547 198.57 94.6152 197.743 94.4907C196.756 94.3442 195.798 94.7031 195.301 95.4063C194.935 95.9118 194.394 95.6481 194.101 95.443C192.843 94.564 191.885 92.0221 193.45 89.7221C193.538 89.5975 193.516 89.4291 193.407 89.3192C193.297 89.2166 193.129 89.2093 193.004 89.2972C191.944 90.1103 189.991 91.2677 189.253 90.8941C189.172 90.8575 189.084 90.8501 188.997 90.8794C188.916 90.9087 188.85 90.9747 188.821 91.0626C188.338 92.3664 187.746 94.5273 187.483 95.5235C186.832 94.8203 185.552 93.2015 185.508 91.3409C185.479 90.1249 185.991 88.9896 187.029 87.964C190.891 84.1623 195.015 85.935 195.191 86.0156C195.257 86.0449 195.337 86.0522 195.41 86.0302C195.462 86.0156 200.442 84.5139 203.609 86.4185C204.91 87.2022 205.737 88.4695 206.073 90.1836C207.382 97.0032 206.468 102.673 206.351 103.339Z" fill="black"/>
<path d="M203.257 106.248C202.247 106.621 201.011 106.885 199.512 106.885C199.337 106.885 199.161 106.885 198.978 106.87C196.689 106.775 195.804 105.75 195.468 104.9C194.627 102.776 196.155 99.5819 198.035 97.6554C198.693 96.9815 198.964 96.3515 198.803 95.8754C198.671 95.4871 198.225 95.1868 197.647 95.0989C197.07 95.011 196.243 95.1355 195.797 95.7655C195.329 96.4247 194.517 96.498 193.735 95.9486C192.477 95.0696 191.467 92.7988 192.33 90.5061C191.438 91.0628 190.173 91.7147 189.288 91.5536C188.805 92.9453 188.22 95.1062 188.008 95.8973C187.957 96.0878 187.928 96.1977 187.928 96.205C187.899 96.3075 187.818 96.3954 187.716 96.4247C187.613 96.454 187.504 96.4321 187.423 96.3588C187.409 96.3442 187.365 96.3075 187.292 96.2343C186.772 95.7289 184.937 93.7731 184.878 91.3631C184.842 89.964 185.419 88.6748 186.582 87.5248C190.392 83.7743 194.59 85.1294 195.322 85.4078C196.104 85.188 200.734 83.9794 203.915 85.8913C205.378 86.7703 206.299 88.1767 206.665 90.0739C208.084 97.4136 206.943 103.464 206.935 103.523C206.928 103.567 206.913 103.603 206.891 103.633C206.833 103.721 205.904 105.076 203.834 106.006C203.659 106.094 203.461 106.167 203.257 106.248ZM203.608 86.426C200.441 84.5215 195.461 86.0231 195.409 86.0378C195.336 86.0597 195.263 86.0524 195.19 86.0231C195.014 85.9425 190.89 84.1772 187.028 87.9716C185.99 88.9898 185.478 90.1252 185.507 91.3485C185.551 93.209 186.831 94.8279 187.482 95.5311C187.745 94.5349 188.337 92.374 188.82 91.0701C188.849 90.9895 188.915 90.9236 188.996 90.887C189.076 90.8577 189.171 90.8577 189.252 90.9016C189.99 91.2752 191.943 90.1178 193.003 89.3048C193.12 89.2095 193.296 89.2169 193.406 89.3267C193.515 89.4293 193.537 89.5978 193.449 89.7296C191.884 92.0297 192.842 94.5715 194.1 95.4505C194.393 95.6556 194.941 95.9193 195.3 95.4139C195.797 94.7107 196.762 94.3517 197.742 94.4982C198.569 94.6228 199.183 95.0623 199.395 95.6849C199.563 96.183 199.541 97.0034 198.481 98.0949C196.719 99.9042 195.329 102.864 196.046 104.673C196.441 105.662 197.435 106.189 199.008 106.255C203.842 106.445 206.05 103.743 206.35 103.347C206.467 102.68 207.381 97.0108 206.072 90.1984C205.736 88.477 204.91 87.2098 203.608 86.426Z" fill="black"/>
<path d="M215.17 140.683C215.163 140.72 214.132 144.243 210.841 147.305C206.489 151.356 200.148 152.77 192.506 151.407C182.801 149.671 175.985 144.016 171.977 139.57C168.116 135.292 166.046 131.285 165.615 130.406C166.251 129.703 169.132 126.766 172.16 127.689C173.703 128.905 178.918 132.897 184.374 135.717C190.122 138.684 194.232 139.38 196.58 137.79C201.443 134.501 207.455 126.436 208.339 125.228L215.346 140.493C215.258 140.522 215.192 140.588 215.17 140.683Z" fill="white"/>
<path d="M180.161 132.574C181.587 133.468 183.108 134.361 184.644 135.152C190.099 137.965 194.1 138.698 196.221 137.262C201.282 133.841 207.864 124.802 207.929 124.714C208.032 124.575 208.222 124.546 208.361 124.648C208.5 124.751 208.529 124.941 208.427 125.08C208.412 125.102 208.376 125.146 208.324 125.219C207.439 126.421 201.428 134.493 196.564 137.782C194.217 139.372 190.107 138.676 184.358 135.709C178.903 132.896 173.688 128.897 172.145 127.681C169.117 126.758 166.236 129.695 165.6 130.398C166.031 131.277 168.101 135.284 171.962 139.562C175.97 144.008 182.786 149.663 192.491 151.399C200.133 152.762 206.474 151.348 210.826 147.297C214.117 144.235 215.148 140.712 215.155 140.675C215.184 140.588 215.243 140.514 215.323 140.478C215.389 140.448 215.462 140.441 215.535 140.463C215.696 140.507 215.799 140.683 215.747 140.844C215.704 140.99 214.672 144.543 211.264 147.729C208.763 150.066 204.551 152.527 197.91 152.527C196.228 152.527 194.385 152.366 192.374 152.007C186.662 150.989 181.93 148.63 178.171 145.949C177.967 145.803 177.769 145.656 177.572 145.517C175.48 143.964 173.703 142.324 172.24 140.785C172.028 140.558 171.816 140.331 171.619 140.111C171.575 140.06 171.531 140.009 171.487 139.965C167.077 135.072 164.963 130.523 164.949 130.479C164.898 130.369 164.912 130.244 164.993 130.149C165.022 130.12 165.153 129.959 165.38 129.724C165.505 129.6 165.651 129.446 165.826 129.285C166.821 128.347 168.62 126.985 170.69 126.882C170.931 126.868 171.18 126.875 171.428 126.904C171.743 126.941 172.065 126.999 172.386 127.102C172.423 127.117 172.452 127.131 172.481 127.153C173.483 127.944 176.226 130.061 179.605 132.222C179.795 132.339 179.978 132.457 180.161 132.574Z" fill="#333333"/>
<path d="M124.645 128.025C124.587 128.084 124.506 128.106 124.433 128.106C124.353 128.106 124.265 128.069 124.206 128.011C124.089 127.886 124.097 127.688 124.221 127.571L130.247 121.923C130.372 121.806 130.569 121.813 130.686 121.938C130.803 122.063 130.796 122.26 130.671 122.378L124.645 128.025ZM127.973 131.893C127.914 131.951 127.834 131.973 127.761 131.973C127.68 131.973 127.592 131.944 127.534 131.878C127.417 131.754 127.424 131.556 127.549 131.439L133.765 125.593C133.889 125.476 134.087 125.483 134.204 125.608C134.321 125.732 134.313 125.93 134.189 126.047L127.973 131.893ZM131.725 135.614C131.666 135.665 131.593 135.695 131.52 135.695C131.432 135.695 131.352 135.658 131.286 135.592C131.169 135.467 131.183 135.27 131.308 135.152L137.48 129.622C137.604 129.505 137.802 129.519 137.919 129.644C138.036 129.769 138.021 129.966 137.897 130.084L131.725 135.614Z" fill="black"/>
<path d="M207.675 172.035C207.617 171.874 207.697 171.698 207.858 171.639C208.019 171.581 208.194 171.661 208.253 171.822C210.352 177.521 215.193 176.503 215.398 176.459C215.566 176.422 215.727 176.525 215.771 176.694C215.807 176.862 215.705 177.023 215.537 177.067C215.522 177.067 215.083 177.162 214.411 177.162C212.663 177.162 209.328 176.525 207.675 172.035Z" fill="black"/>
<circle cx="151.351" cy="90.5796" r="15.6275" fill="white"/>
<path d="M161.67 93.4954C160.801 95.0225 157.93 99.0835 154.805 98.9362C152.208 98.8136 150.002 97.0841 148.195 95.1787C146.735 93.6398 145.348 92.0375 144.034 90.3719C142.865 88.8874 141.703 87.2075 141.708 85.304C141.708 82.6528 143.921 80.6232 145.944 78.9629L149.696 83.2495C149.522 83.3862 149.367 83.5247 149.214 83.665C148.221 84.5821 147.619 85.8601 147.538 87.2247C147.457 88.5894 147.903 89.9322 148.781 90.965C148.955 91.1709 149.141 91.3769 149.336 91.5829C149.886 92.161 150.56 92.6014 151.305 92.8695C152.049 93.1377 152.845 93.2264 153.629 93.1288C154.412 93.0311 155.164 92.7497 155.823 92.3066C156.483 91.8634 157.033 91.2706 157.431 90.5743L157.478 90.4908L161.67 93.4954Z" fill="#45BE86"/>
<line x1="133.49" y1="190.763" x2="226.139" y2="190.763" stroke="black" stroke-width="0.558124"/>
</g>
<path d="M73.8803 46.205V52.6409H74.2322V46.205C74.175 46.2123 74.1159 46.216 74.0558 46.216C73.9958 46.216 73.9385 46.2123 73.8803 46.205ZM74.2322 43.4359V37H73.8803V43.4359C73.9376 43.4285 73.9967 43.4248 74.0568 43.4248C74.1168 43.4248 74.175 43.4285 74.2322 43.4359ZM75.4413 44.9968H81.8772V44.6449H75.4413C75.4487 44.7022 75.4524 44.7613 75.4524 44.8214C75.4524 44.8805 75.4487 44.9387 75.4413 44.9968ZM72.6722 44.6449H66.2363V44.9968H72.6722C72.6648 44.9396 72.6611 44.8805 72.6611 44.8204C72.6602 44.7604 72.6648 44.7022 72.6722 44.6449ZM73.2015 43.7167L68.6507 39.1659L68.4023 39.4144L72.953 43.9651C73.0251 43.8728 73.1091 43.7887 73.2015 43.7167ZM74.9111 45.9242L79.4619 50.4749L79.7103 50.2265L75.1596 45.6757C75.0875 45.7681 75.0044 45.8521 74.9111 45.9242ZM75.1605 43.9661L79.7113 39.4153L79.4628 39.1669L74.912 43.7176C75.0044 43.7887 75.0875 43.8728 75.1605 43.9661ZM72.953 45.6748L68.4023 50.2255L68.6507 50.474L73.2015 45.9232C73.1091 45.8521 73.0251 45.7681 72.953 45.6748Z" fill="#231F20"/>
<path d="M100.967 60.4414H77.3984V75.1229H100.967V60.4414Z" fill="white" stroke="#231F20" stroke-width="0.461818" stroke-miterlimit="10"/>
<path d="M77.3984 60.4414L89.1822 70.2329L100.967 60.4414" stroke="#231F20" stroke-width="0.461818" stroke-miterlimit="10"/>
<path d="M91.7158 68.1279L100.966 75.1234" stroke="#231F20" stroke-width="0.461818" stroke-miterlimit="10"/>
<path d="M77.3984 75.1234L86.6485 68.1279" stroke="#231F20" stroke-width="0.461818" stroke-miterlimit="10"/>
<path d="M220.071 96.1611L220.944 98.4296L223.212 99.3024L220.944 100.175L220.071 102.444L219.197 100.176L216.93 99.3024L219.198 98.4296L220.071 96.1611Z" fill="#231F20"/>
<path d="M61.5641 64.9062L62.437 67.1747L64.7054 68.0475L62.437 68.9204L61.5641 71.1888L60.6904 68.9213L58.4229 68.0475L60.6913 67.1747L61.5641 64.9062Z" fill="#231F20"/>
<path d="M89.7521 79.0296C90.4096 79.0296 90.9427 78.4965 90.9427 77.839C90.9427 77.1815 90.4096 76.6484 89.7521 76.6484C89.0946 76.6484 88.5615 77.1815 88.5615 77.839C88.5615 78.4965 89.0946 79.0296 89.7521 79.0296Z" fill="#16AE68"/>
<path d="M123.239 123.1C123.897 123.1 124.43 122.567 124.43 121.909C124.43 121.252 123.897 120.719 123.239 120.719C122.582 120.719 122.049 121.252 122.049 121.909C122.049 122.567 122.582 123.1 123.239 123.1Z" fill="#16AE68"/>
<path d="M89.6777 78.3018V101.439H123.165V120.719" stroke="black" stroke-width="0.334875" stroke-linecap="round" stroke-linejoin="round" stroke-dasharray="3.35 3.35"/>
<defs>
<clipPath id="clip0_609_97095">
<rect width="127.252" height="118.322" fill="white" transform="translate(116.747 72.7197)"/>
</clipPath>
</defs>
</svg>
