<svg width="277" height="244" viewBox="0 0 277 244" fill="none" xmlns="http://www.w3.org/2000/svg">
<rect width="276" height="244" transform="translate(0.5)" fill="white"/>
<line x1="67.3438" y1="189.764" x2="214.817" y2="189.764" stroke="black" stroke-width="0.5"/>
<path fill-rule="evenodd" clip-rule="evenodd" d="M159.067 190.014C171.504 179.386 179.388 163.586 179.388 145.944C179.388 113.942 153.446 88 121.444 88C89.4424 88 63.5 113.942 63.5 145.944C63.5 163.586 71.384 179.386 83.8209 190.014H159.067Z" fill="#D0EFE1"/>
<path d="M54.4788 186.084C53.884 186.174 53.3346 186.22 52.826 186.22C51.5229 186.22 50.5058 185.925 49.7384 185.331C48.2855 184.202 48.0857 182.256 47.9268 180.692C47.8269 179.735 47.7451 178.905 47.391 178.624C47.282 178.538 47.1503 178.506 46.9778 178.52C44.149 179.853 40.9252 179.944 38.1192 178.774C35.7989 177.804 34.019 176.08 33.1881 174.013C32.6841 176.452 32.7295 179.744 36.1213 180.951C41.7743 182.964 45.7064 180.901 46.3467 182.619C47.0641 187.485 52.0678 188.346 55.623 188.328C55.9045 187.53 56.236 186.61 56.6129 185.58C55.9726 185.793 55.2643 185.966 54.4788 186.084Z" fill="#45BE86"/>
<path d="M58.5338 168.028C58.4748 168.073 58.3885 168.069 58.334 168.019C58.2796 167.969 58.2659 167.883 58.3068 167.819C60.4454 164.473 60.2683 160.378 57.8936 158.297C56.2545 156.859 54.0251 156.918 53.1442 157.009C53.0897 157.014 53.0352 156.991 53.0034 156.945C52.9717 156.9 52.9626 156.841 52.9853 156.791C55.1239 151.976 53.6164 147.486 50.9874 146.09C49.1667 145.124 47.0508 145.682 45.9519 146.099C45.8793 146.126 45.8021 146.099 45.7612 146.035C44.6624 144.194 42.9234 142.947 40.9982 142.621C39.7087 142.403 38.4873 142.648 37.7381 143.274C36.2715 144.498 35.9355 147.668 37.7699 150.434C37.7971 150.475 37.8017 150.525 37.788 150.57C37.7744 150.615 37.7381 150.652 37.6927 150.665C34.3554 151.876 32.2622 155.227 32.9251 158.292C33.6289 161.557 37.1024 162.84 37.2522 162.89C37.3067 162.908 37.3476 162.958 37.3521 163.013C37.3612 163.072 37.334 163.126 37.2886 163.158C33.7833 165.679 32.1305 170.064 33.361 173.587C34.1056 175.709 35.881 177.491 38.2375 178.471C40.9664 179.609 44.113 179.514 46.8646 178.208C46.8782 178.199 46.8964 178.194 46.9145 178.194C46.9645 178.19 47.0099 178.185 47.0553 178.185C47.2596 178.185 47.4367 178.244 47.582 178.362C48.0361 178.725 48.1223 179.573 48.2313 180.643C48.3857 182.148 48.5764 184.026 49.9249 185.069C50.9193 185.84 52.395 186.066 54.4292 185.762C55.2919 185.631 56.0638 185.436 56.7539 185.191C57.4396 183.35 58.2705 181.196 59.2376 178.847C58.2432 178.167 57.267 177.374 56.309 176.471C54.6607 177.097 53.2032 177.31 51.9954 177.31C49.598 177.31 48.1677 176.48 48.0769 176.426C48.0043 176.381 47.9816 176.285 48.0224 176.213C48.0678 176.14 48.1632 176.113 48.2358 176.158C48.2676 176.176 51.3507 177.954 56.0547 176.231C55.2011 175.41 54.3656 174.508 53.5483 173.515C53.5483 173.515 53.5483 173.515 53.5438 173.51C53.5301 173.492 53.5165 173.474 53.4984 173.456C52.5403 172.295 51.6004 171.012 50.6877 169.624C50.1111 169.71 49.5072 169.751 48.8897 169.751C45.0257 169.751 40.7258 168.277 40.6758 168.259C40.5941 168.232 40.5532 168.141 40.5805 168.064C40.6077 167.983 40.6985 167.942 40.7757 167.969C40.8347 167.987 46.406 169.901 50.5016 169.343C49.3029 167.493 48.1496 165.452 47.0508 163.235C47.0508 163.23 47.0462 163.226 47.0462 163.226C46.8601 162.854 46.6784 162.478 46.4968 162.092C45.9565 160.954 45.457 159.829 44.9984 158.737C41.8382 158.709 37.3748 155.925 37.1841 155.807C37.1115 155.762 37.0888 155.667 37.1342 155.594C37.1796 155.522 37.2749 155.499 37.3476 155.544C37.393 155.572 41.7973 158.319 44.8668 158.424C42.315 152.293 41.0527 147.301 41.0391 147.242C41.0164 147.16 41.0709 147.074 41.1526 147.056C41.2343 147.033 41.3206 147.087 41.3387 147.169C41.3569 147.242 43.1459 154.315 46.7783 161.965C46.9055 162.228 47.0326 162.496 47.1643 162.768C48.422 159.031 47.8817 154.125 47.8726 154.075C47.8635 153.989 47.9226 153.912 48.0088 153.903C48.0951 153.894 48.1723 153.953 48.1814 154.039C48.1859 154.093 48.7671 159.322 47.355 163.158C48.985 166.432 51.0828 170.005 53.6437 173.134C55.8821 168.88 54.5018 164.164 54.4882 164.119C54.4655 164.038 54.5109 163.951 54.5926 163.924C54.6744 163.901 54.7606 163.947 54.7879 164.028C54.8015 164.078 56.2454 168.994 53.8616 173.392C55.5053 175.365 57.3397 177.151 59.3557 178.553C60.7542 175.17 62.4296 171.393 64.3457 167.556C63.8781 167.148 63.3604 166.863 62.8156 166.722C61.0493 166.273 59.2331 167.484 58.5338 168.028Z" fill="white"/>
<path d="M38.1192 178.77C40.9207 179.94 44.1491 179.845 46.9778 178.516C47.1458 178.498 47.282 178.534 47.391 178.62C47.7452 178.901 47.8269 179.731 47.9268 180.688C48.0857 182.252 48.2855 184.202 49.7385 185.327C50.5058 185.921 51.5229 186.216 52.8261 186.216C53.3346 186.216 53.884 186.17 54.4788 186.08C55.2643 185.962 55.9727 185.789 56.6174 185.576C56.6628 185.454 56.7082 185.327 56.7582 185.2C56.068 185.449 55.2961 185.644 54.4334 185.771C52.3993 186.075 50.9236 185.848 49.9292 185.078C48.5806 184.03 48.3899 182.157 48.2356 180.652C48.1266 179.582 48.0403 178.734 47.5863 178.371C47.441 178.253 47.2639 178.194 47.0596 178.194C47.0142 178.194 46.9687 178.199 46.9188 178.203C46.9006 178.203 46.887 178.208 46.8689 178.217C44.1173 179.523 40.9707 179.618 38.2418 178.48C35.8852 177.496 34.1099 175.718 33.3652 173.596C32.1347 170.077 33.783 165.692 37.2928 163.167C37.3382 163.135 37.3655 163.076 37.3564 163.022C37.3473 162.963 37.311 162.917 37.2565 162.899C37.1067 162.845 33.6331 161.561 32.9293 158.301C32.2664 155.231 34.3642 151.885 37.6969 150.674C37.7423 150.656 37.7787 150.624 37.7923 150.579C37.8059 150.533 37.8014 150.484 37.7741 150.443C35.9397 147.677 36.2803 144.507 37.7423 143.283C38.4961 142.652 39.7129 142.407 41.0025 142.63C42.9277 142.956 44.6667 144.203 45.7655 146.044C45.8018 146.108 45.8836 146.135 45.9562 146.108C47.055 145.69 49.1709 145.133 50.9917 146.099C53.6161 147.495 55.1281 151.984 52.9895 156.8C52.9668 156.85 52.9714 156.909 53.0077 156.954C53.0395 157 53.094 157.022 53.1484 157.018C54.0293 156.927 56.2587 156.868 57.8979 158.306C60.2726 160.387 60.4497 164.482 58.3111 167.828C58.2702 167.892 58.2793 167.973 58.3383 168.028C58.3928 168.078 58.4791 168.082 58.5381 168.037C59.2373 167.493 61.0536 166.282 62.8289 166.74C63.3738 166.88 63.8914 167.166 64.3591 167.574C64.4045 167.479 64.4544 167.388 64.4998 167.293C64.0095 166.876 63.4737 166.586 62.9061 166.441C61.4123 166.055 59.9366 166.722 58.9467 167.366C59.7913 165.81 60.1954 164.096 60.091 162.468C59.9774 160.664 59.2737 159.104 58.1022 158.079C56.5175 156.687 54.4289 156.623 53.38 156.691C54.2927 154.519 54.5469 152.216 54.102 150.175C53.6661 148.184 52.5854 146.602 51.1415 145.836C49.2799 144.847 47.1504 145.355 45.9744 145.781C44.8256 143.922 43.0412 142.666 41.0615 142.33C39.6857 142.095 38.3689 142.367 37.5471 143.051C36.0078 144.335 35.6083 147.59 37.4109 150.456C35.7672 151.096 34.3823 152.238 33.5015 153.694C32.607 155.168 32.2982 156.832 32.6297 158.374C33.2608 161.312 36.0169 162.718 36.8887 163.094C35.2178 164.359 33.9237 166.082 33.229 167.973C32.5116 169.905 32.4571 171.945 33.0746 173.7C33.111 173.805 33.1518 173.904 33.1927 174.009C34.0191 176.076 35.799 177.8 38.1192 178.77Z" fill="#333333"/>
<path d="M53.5436 173.36C53.5845 173.288 53.6208 173.215 53.6617 173.147C51.1008 170.018 49.0031 166.441 47.373 163.171C47.3639 163.194 47.3594 163.212 47.3503 163.235C47.3276 163.298 47.2686 163.335 47.205 163.335C47.1868 163.335 47.1687 163.33 47.1505 163.325C47.1142 163.312 47.087 163.285 47.0688 163.253C48.1676 165.47 49.3254 167.511 50.5196 169.361C50.5968 169.352 50.6785 169.338 50.7557 169.325C50.842 169.311 50.9192 169.37 50.9328 169.452C50.9464 169.538 50.8874 169.615 50.8057 169.628C50.7739 169.633 50.7376 169.638 50.7058 169.642C51.6184 171.03 52.5538 172.313 53.5164 173.474C53.53 173.492 53.5436 173.51 53.5618 173.528C53.5164 173.483 53.5118 173.415 53.5436 173.36ZM53.8705 173.401C53.8524 173.437 53.8342 173.474 53.8115 173.51C53.7843 173.56 53.7298 173.592 53.6753 173.592C53.6481 173.592 53.6254 173.587 53.5981 173.574C53.58 173.564 53.5663 173.551 53.5527 173.537C54.3745 174.526 55.21 175.433 56.0591 176.253C56.1363 176.226 56.2135 176.199 56.2907 176.167C56.3724 176.136 56.4587 176.176 56.4904 176.258C56.5222 176.34 56.4814 176.426 56.3996 176.457C56.3679 176.471 56.3406 176.48 56.3088 176.489C57.2669 177.392 58.2431 178.181 59.2375 178.865C59.2784 178.766 59.3192 178.666 59.3601 178.566C57.3486 177.16 55.5142 175.378 53.8705 173.401ZM47.0552 163.126C47.096 163.013 47.1369 162.899 47.1778 162.781C47.0461 162.514 46.9144 162.242 46.7918 161.979C43.1548 154.329 41.3659 147.251 41.3522 147.183C41.3295 147.101 41.2478 147.051 41.1661 147.069C41.0843 147.092 41.0344 147.173 41.0526 147.255C41.0662 147.314 42.3284 152.307 44.8802 158.437C44.9393 158.437 44.9983 158.442 45.0573 158.442C45.0755 158.442 45.0936 158.442 45.1118 158.442C45.1981 158.442 45.2662 158.51 45.2662 158.596C45.2662 158.682 45.1981 158.75 45.1118 158.755C45.0936 158.755 45.0709 158.755 45.0528 158.755C45.0392 158.755 45.021 158.755 45.0074 158.755C45.466 159.847 45.9654 160.972 46.5058 162.11C46.6874 162.491 46.8735 162.867 47.0552 163.244C47.0415 163.203 47.0415 163.162 47.0552 163.126Z" fill="black"/>
<path d="M45.1116 158.75C45.1979 158.75 45.266 158.677 45.266 158.591C45.266 158.505 45.1979 158.437 45.1116 158.437C45.0934 158.437 45.0753 158.437 45.0571 158.437C44.9981 158.437 44.939 158.437 44.88 158.432C41.8151 158.328 37.4063 155.58 37.3609 155.553C37.2882 155.508 37.1929 155.53 37.1474 155.603C37.102 155.675 37.1247 155.771 37.1974 155.816C37.3881 155.934 41.8515 158.723 45.0117 158.745C45.0253 158.745 45.0435 158.745 45.0571 158.745C45.0707 158.75 45.0889 158.75 45.1116 158.75ZM47.1458 163.325C47.1639 163.33 47.1821 163.334 47.2002 163.334C47.2638 163.334 47.3228 163.298 47.3455 163.234C47.3546 163.212 47.3592 163.194 47.3682 163.171C48.7804 159.335 48.1992 154.106 48.1946 154.052C48.1855 153.966 48.1084 153.907 48.0221 153.916C47.9358 153.925 47.8768 154.002 47.8859 154.088C47.8904 154.138 48.4353 159.045 47.1775 162.781C47.1367 162.894 47.0958 163.012 47.0549 163.126C47.0413 163.166 47.0413 163.207 47.0595 163.239C47.0595 163.244 47.064 163.248 47.064 163.248C47.0822 163.28 47.1094 163.307 47.1458 163.325ZM50.928 169.451C50.9144 169.365 50.8327 169.311 50.751 169.324C50.6738 169.338 50.5966 169.347 50.5148 169.361C46.4238 169.918 40.848 168.009 40.789 167.987C40.7072 167.959 40.621 168 40.5937 168.082C40.5665 168.163 40.6074 168.25 40.6891 168.277C40.739 168.295 45.0389 169.769 48.903 169.769C49.5205 169.769 50.1244 169.728 50.701 169.642C50.7328 169.637 50.7691 169.633 50.8009 169.628C50.8872 169.619 50.9417 169.537 50.928 169.451ZM53.6024 173.569C53.6251 173.582 53.6524 173.587 53.6796 173.587C53.7341 173.587 53.7886 173.56 53.8158 173.505C53.834 173.469 53.8567 173.433 53.8749 173.396C56.2587 168.998 54.8193 164.082 54.8011 164.033C54.7784 163.951 54.6876 163.906 54.6059 163.928C54.5242 163.951 54.4788 164.037 54.5015 164.123C54.5151 164.173 55.8954 168.884 53.6569 173.138C53.6206 173.21 53.5797 173.283 53.5389 173.351C53.5071 173.405 53.5162 173.473 53.5525 173.519C53.5525 173.519 53.5525 173.519 53.557 173.523C53.5706 173.546 53.5843 173.56 53.6024 173.569ZM56.4948 176.253C56.463 176.171 56.3722 176.135 56.295 176.162C56.2178 176.194 56.1406 176.217 56.0634 176.249C51.3594 177.972 48.2764 176.194 48.2446 176.176C48.1719 176.131 48.0766 176.158 48.0312 176.23C47.9858 176.303 48.013 176.398 48.0857 176.444C48.1765 176.498 49.6022 177.328 52.0041 177.328C53.2119 177.328 54.6649 177.115 56.3177 176.489C56.3495 176.475 56.3767 176.466 56.4085 176.457C56.4857 176.421 56.5265 176.33 56.4948 176.253Z" fill="black"/>
<path d="M129.033 127.813L130.886 128.472L131.215 128.589L130.948 128.814C130.636 129.075 129.758 129.831 128.857 130.658L128.673 130.827L128.548 130.611C128.383 130.325 128.153 130.004 127.841 129.697L127.841 129.696C127.195 129.06 126.064 128.366 124.17 128.348L123.812 128.345L124.003 128.042C124.979 126.488 126.142 124.802 127.259 123.547C127.817 122.92 128.371 122.393 128.889 122.043C129.4 121.698 129.917 121.499 130.386 121.605C130.386 121.605 130.386 121.605 130.387 121.605L130.342 121.8C130.475 121.829 130.603 121.861 130.725 121.893L129.033 127.813ZM129.033 127.813L129.318 127.014L129.402 126.78L129.156 126.748C128.688 126.688 128.306 126.723 127.996 126.812L129.033 127.813Z" fill="white" stroke="#333333" stroke-width="0.4"/>
<path d="M143.462 132.943L131.081 130.133C129.57 129.79 128.731 128.169 129.325 126.738L135.685 111.401C136.132 110.324 137.265 109.699 138.414 109.894L150.771 111.997C152.336 112.264 153.26 113.903 152.677 115.38L146.34 131.423C145.887 132.571 144.665 133.216 143.462 132.943Z" fill="white" stroke="#4C4C4C"/>
<path d="M124.167 128.149C126.115 125.052 128.793 121.451 130.337 121.8C130.537 121.846 130.732 121.896 130.914 121.945L131.018 121.655C130.823 121.601 130.623 121.546 130.405 121.501C129.202 121.229 127.422 122.784 125.12 126.126C124.648 126.816 124.198 127.509 123.799 128.153C123.926 128.149 124.049 128.149 124.167 128.149Z" fill="#333333"/>
<path d="M105.21 178.555C102.785 179.19 96.9052 180.618 89.5177 181.629C85.0498 182.241 79.5558 182.758 73.762 182.758C68.3951 182.758 62.7739 182.314 57.4523 181.094C55.4681 184.377 54.51 188.753 54.3193 189.696H106.268C106.667 186.059 105.777 181.167 105.21 178.555Z" fill="black"/>
<path d="M105.51 178.478C105.415 178.5 105.315 178.527 105.21 178.555C105.778 181.167 106.668 186.059 106.268 189.696H106.582C106.977 186.014 106.082 181.094 105.51 178.478ZM54.3198 189.696C54.5105 188.753 55.464 184.377 57.4528 181.094C57.3438 181.067 57.2303 181.044 57.1213 181.021C55.0871 184.418 54.1654 188.862 54.002 189.696H54.3198Z" fill="black"/>
<path d="M96.8826 149.897C96.8418 149.847 96.8009 149.806 96.7691 149.774C96.7101 149.715 96.7101 149.615 96.7691 149.556C96.8236 149.502 96.9008 149.502 96.9598 149.538L107.562 133.096C106.695 132.085 105.714 131.201 104.615 130.443L103.348 133.776C103.33 133.822 103.294 133.853 103.248 133.867C103.044 133.93 102.822 133.971 102.59 133.994C102.345 134.411 102.072 134.815 101.773 135.196C100.274 137.096 97.4865 139.286 92.6054 139.286C92.3012 139.286 91.9924 139.277 91.6701 139.258C86.7118 138.986 83.3291 136.52 81.2631 134.293C77.0177 138.352 72.7768 144.201 68.6404 151.706C61.4118 164.82 56.8122 178.863 56.29 180.491C67.6096 183.37 80.5684 182.532 89.4679 181.316C98.6353 180.065 105.478 178.165 106.25 177.947C106.545 177.213 109.065 170.805 110.768 162.856C110.827 162.575 110.886 162.289 110.945 161.999C110.336 161.995 108.425 161.714 104.288 159.088C99.3936 155.986 97.0597 150.332 96.8826 149.897Z" fill="white"/>
<path d="M111.48 160.893L111.321 161.718C111.376 161.446 111.426 161.169 111.48 160.893ZM107.798 132.892C108.111 133.3 108.425 133.699 108.733 134.089C108.438 133.672 108.125 133.273 107.798 132.892ZM57.4477 181.094C62.7693 182.314 68.3905 182.758 73.7574 182.758C79.5557 182.758 85.0453 182.241 89.5132 181.629C96.9006 180.618 102.785 179.189 105.205 178.555C105.31 178.527 105.414 178.5 105.505 178.478C105.696 178.428 105.855 178.382 105.986 178.346C106.25 178.273 106.395 178.233 106.404 178.228C106.449 178.215 106.486 178.183 106.504 178.137C106.531 178.069 109.26 171.363 111.063 162.933C111.14 162.575 111.212 162.221 111.281 161.872C111.267 161.931 111.222 161.981 111.163 161.99C111.149 161.994 111.085 162.004 110.958 162.004C110.954 162.004 110.945 162.004 110.94 162.004C110.881 162.294 110.822 162.579 110.763 162.861C109.06 170.805 106.54 177.217 106.245 177.952C105.473 178.169 98.6306 180.069 89.4632 181.321C80.5683 182.536 67.605 183.375 56.2854 180.495C56.8075 178.868 61.4071 164.824 68.6357 151.71C72.7767 144.206 77.0175 138.356 81.2584 134.298C81.1858 134.22 81.1177 134.143 81.0496 134.066C77.7667 137.204 74.4839 141.408 71.2556 146.613C70.2839 148.173 69.3213 149.824 68.3632 151.565C67.5187 153.098 66.7059 154.649 65.934 156.186C65.8886 156.281 65.8387 156.372 65.7933 156.467C63.8772 160.303 62.2017 164.08 60.8032 167.463C60.7624 167.563 60.7215 167.663 60.6806 167.762C59.7135 170.111 58.8826 172.261 58.1969 174.106C58.1515 174.233 58.1016 174.36 58.0562 174.483C57.6748 175.507 57.3479 176.432 57.0663 177.231C56.3444 179.289 55.9539 180.518 55.9403 180.559C55.9267 180.6 55.9312 180.645 55.9539 180.681C55.9766 180.718 56.0084 180.745 56.0493 180.754C56.4034 180.845 56.7576 180.931 57.1117 181.017C57.2298 181.044 57.3388 181.067 57.4477 181.094ZM104.615 130.448C105.714 131.205 106.695 132.089 107.562 133.1C107.548 133.087 107.539 133.073 107.53 133.055C107.48 132.987 107.489 132.892 107.557 132.837C107.616 132.792 107.698 132.797 107.753 132.842C106.863 131.813 105.855 130.915 104.729 130.148L104.615 130.448Z" fill="#333333"/>
<path d="M106.059 157.592C101.645 155.302 98.9573 152.35 97.6133 150.763C98.5032 152.586 100.724 156.463 104.456 158.83C108.729 161.541 110.581 161.695 111.008 161.691L111.398 159.678C109.541 159.17 107.757 158.476 106.059 157.592Z" fill="black"/>
<path d="M111.317 161.722L111.476 160.897L111.699 159.759C111.599 159.732 111.499 159.704 111.399 159.677L111.008 161.69C110.582 161.7 108.729 161.541 104.456 158.829C100.724 156.462 98.5038 152.585 97.6138 150.762C97.4776 150.604 97.3596 150.458 97.2506 150.327C97.1053 150.15 96.9782 150 96.8828 149.892C97.0554 150.327 99.3937 155.981 104.288 159.088C108.425 161.713 110.336 161.994 110.945 161.999C110.949 161.999 110.959 161.999 110.963 161.999C111.09 161.999 111.154 161.985 111.167 161.985C111.226 161.972 111.276 161.926 111.285 161.867C111.285 161.867 111.285 161.867 111.285 161.863L111.317 161.722Z" fill="black"/>
<path d="M106.536 124.512C106.555 124.471 106.586 124.435 106.627 124.421C106.668 124.408 106.718 124.412 106.759 124.435C106.777 124.444 108.484 125.401 110.273 124.721C111.676 124.186 112.761 122.803 113.492 120.608C114.5 117.588 114.787 114.708 114.36 112.31C113.311 112.332 112.021 111.969 110.682 111.593C110.614 111.575 110.546 111.557 110.478 111.534C110.541 112.827 109.783 113.312 109.17 113.706C108.625 114.055 108.321 114.278 108.421 114.804C108.62 115.856 108.067 117.411 107.449 117.533C107.208 117.583 106.886 117.461 106.713 116.617C106.713 116.608 106.709 116.595 106.709 116.586C106.709 115.661 106.282 114.885 105.619 114.609C105.02 114.359 104.334 114.559 103.744 115.148C103.458 115.434 103.326 115.76 103.34 116.141C103.385 117.338 104.875 118.626 104.888 118.64C104.934 118.676 104.952 118.735 104.938 118.789C104.924 118.844 104.884 118.889 104.829 118.903C104.825 118.903 104.166 119.098 103.708 119.932C103.272 120.721 102.931 122.258 103.785 125.092C104.611 127.849 104.216 131.042 102.795 133.654C102.899 133.636 102.999 133.613 103.099 133.586L106.536 124.512Z" fill="white"/>
<path d="M114.36 112.31C114.787 114.709 114.501 117.588 113.493 120.608C112.762 122.798 111.676 124.181 110.273 124.721C108.489 125.401 106.777 124.444 106.759 124.435C106.718 124.412 106.673 124.408 106.627 124.422C106.587 124.435 106.55 124.471 106.537 124.512L103.086 133.595C102.99 133.622 102.886 133.645 102.782 133.663C102.722 133.776 102.659 133.885 102.591 133.998C102.822 133.976 103.04 133.935 103.249 133.872C103.295 133.858 103.331 133.822 103.349 133.781L104.616 130.448L104.729 130.149L106.768 124.784C107.254 125.02 108.766 125.623 110.382 125.006C111.881 124.435 113.025 122.989 113.788 120.703C114.805 117.651 115.1 114.731 114.673 112.287C114.569 112.301 114.464 112.305 114.36 112.31Z" fill="#333333"/>
<path d="M127.749 129.763C126.637 128.675 124.939 128.257 122.837 128.548C121.297 131.93 116.071 135.989 112.493 138.483C115.781 142.006 118.832 144.391 121.692 145.675C125.189 141.172 128.549 132.225 128.816 131.504C128.757 131.314 128.499 130.497 127.749 129.763Z" fill="white"/>
<path d="M112.494 138.483C116.072 135.989 121.298 131.931 122.837 128.548C124.939 128.258 126.633 128.675 127.75 129.763C128.499 130.493 128.762 131.314 128.812 131.505C128.545 132.226 125.189 141.172 121.688 145.675C121.788 145.72 121.884 145.761 121.983 145.802C125.598 141.131 128.94 132.053 129.117 131.564C129.126 131.536 129.13 131.505 129.121 131.477C129.117 131.455 129.053 131.178 128.862 130.793C128.817 130.702 128.767 130.607 128.713 130.507C128.54 130.208 128.299 129.877 127.972 129.55C127.291 128.879 126.111 128.163 124.163 128.145C124.045 128.145 123.922 128.145 123.795 128.149C123.45 128.163 123.087 128.194 122.701 128.249C122.646 128.258 122.601 128.29 122.583 128.34C121.13 131.641 115.849 135.735 112.267 138.243C112.344 138.329 112.416 138.406 112.494 138.483Z" fill="#333333"/>
<path d="M91.6883 138.954C97.019 139.249 99.9839 136.968 101.532 135.005C103.684 132.275 104.447 128.421 103.476 125.192C102.763 122.825 102.749 121.007 103.43 119.782C103.775 119.157 104.225 118.853 104.493 118.717C104.07 118.313 103.062 117.238 103.017 116.164C102.999 115.697 103.167 115.284 103.512 114.939C104.198 114.255 105.006 114.033 105.728 114.332C106.504 114.654 107.004 115.533 107.013 116.576C107.104 117.012 107.244 117.261 107.385 117.234C107.762 117.161 108.298 115.828 108.112 114.867C107.966 114.114 108.493 113.779 108.997 113.452C109.633 113.044 110.291 112.622 110.146 111.348C110.141 111.298 110.159 111.244 110.2 111.212C110.241 111.18 110.291 111.167 110.341 111.18C110.482 111.221 110.622 111.257 110.763 111.298C112.707 111.847 114.546 112.359 115.563 111.679C116.03 111.366 116.307 110.808 116.403 109.979C116.757 106.895 114.505 103.93 112.216 102.955C111.353 102.587 109.733 102.188 108.525 103.639C108.488 103.68 108.438 103.703 108.384 103.694C108.329 103.685 108.284 103.653 108.261 103.603C107.412 101.68 105.71 100.896 103.707 101.499C101.169 102.265 98.8987 105.09 99.4936 108.496C99.5026 108.555 99.4799 108.609 99.4345 108.645C99.3891 108.682 99.3256 108.686 99.2756 108.664C98.0724 108.092 97.0008 108.21 96.1744 108.995C94.6261 110.468 94.0449 114.454 95.7612 118.567C95.7839 118.626 95.7703 118.689 95.7294 118.735C95.684 118.78 95.6205 118.794 95.5614 118.771C90.0674 116.631 83.5562 118.848 80.2189 122.013C78.0531 124.072 77.2585 126.412 77.9895 128.607C78.0167 128.684 78.9294 131.119 81.0407 133.581C83.0068 135.871 86.4485 138.664 91.6883 138.954Z" fill="black"/>
<path d="M91.6879 139.263C92.0057 139.281 92.319 139.29 92.6232 139.29C97.5043 139.29 100.292 137.1 101.791 135.2C102.09 134.819 102.363 134.42 102.608 133.998C102.671 133.89 102.735 133.776 102.799 133.663C104.22 131.051 104.619 127.859 103.788 125.102C102.939 122.268 103.275 120.73 103.711 119.941C104.17 119.107 104.828 118.912 104.833 118.912C104.887 118.898 104.933 118.853 104.942 118.799C104.955 118.744 104.933 118.685 104.892 118.649C104.878 118.635 103.389 117.352 103.343 116.151C103.33 115.765 103.462 115.443 103.748 115.157C104.342 114.563 105.023 114.368 105.623 114.618C106.286 114.89 106.713 115.67 106.713 116.595C106.713 116.604 106.713 116.618 106.717 116.627C106.89 117.47 107.217 117.588 107.453 117.543C108.07 117.42 108.624 115.865 108.424 114.813C108.324 114.291 108.629 114.065 109.174 113.715C109.787 113.321 110.545 112.836 110.481 111.543C110.549 111.562 110.617 111.584 110.686 111.602C112.025 111.979 113.315 112.341 114.363 112.319C114.468 112.314 114.572 112.31 114.677 112.301C115.076 112.26 115.435 112.147 115.739 111.942C116.289 111.575 116.606 110.945 116.715 110.02C117.083 106.791 114.731 103.694 112.343 102.678C110.826 102.034 109.423 102.252 108.452 103.268C107.512 101.372 105.686 100.588 103.625 101.209C101.028 101.994 98.6985 104.828 99.1525 108.274C97.9402 107.789 96.8187 107.966 95.9651 108.777C95.0797 109.616 94.5348 111.072 94.4258 112.868C94.3214 114.613 94.6483 116.554 95.3521 118.363C92.932 117.506 90.0533 117.402 87.1973 118.078C84.4366 118.726 81.8167 120.082 80.0141 121.796C77.7529 123.941 76.931 126.399 77.7029 128.711V128.716C77.712 128.743 78.6338 131.246 80.8041 133.781C80.8904 133.881 80.9767 133.98 81.063 134.08C81.1311 134.157 81.1992 134.234 81.2718 134.311C83.3469 136.524 86.7296 138.991 91.6879 139.263ZM77.9981 128.602C77.267 126.408 78.0616 124.068 80.2275 122.009C83.5648 118.839 90.076 116.627 95.57 118.767C95.6291 118.79 95.6926 118.776 95.738 118.731C95.7834 118.685 95.7925 118.622 95.7698 118.563C94.0535 114.45 94.6301 110.464 96.183 108.99C97.0094 108.206 98.081 108.088 99.2842 108.659C99.3387 108.682 99.3977 108.678 99.4431 108.641C99.4885 108.605 99.5112 108.551 99.5022 108.492C98.9073 105.091 101.178 102.261 103.716 101.495C105.718 100.892 107.421 101.676 108.27 103.599C108.293 103.649 108.338 103.681 108.393 103.69C108.447 103.699 108.497 103.676 108.533 103.635C109.737 102.184 111.362 102.583 112.225 102.95C114.513 103.925 116.765 106.886 116.411 109.974C116.316 110.804 116.043 111.362 115.571 111.675C114.554 112.355 112.72 111.838 110.772 111.294C110.631 111.253 110.49 111.217 110.35 111.176C110.3 111.163 110.245 111.176 110.209 111.208C110.168 111.24 110.15 111.294 110.154 111.344C110.3 112.618 109.641 113.04 109.006 113.448C108.497 113.774 107.975 114.11 108.12 114.863C108.302 115.829 107.766 117.157 107.394 117.23C107.257 117.257 107.117 117.003 107.021 116.572C107.017 115.529 106.513 114.645 105.736 114.328C105.014 114.028 104.211 114.251 103.521 114.935C103.175 115.28 103.007 115.693 103.026 116.16C103.066 117.234 104.074 118.304 104.501 118.713C104.229 118.849 103.784 119.157 103.439 119.778C102.758 121.002 102.771 122.825 103.484 125.188C104.456 128.421 103.693 132.271 101.541 135.001C99.9925 136.964 97.0321 139.24 91.6969 138.95C86.4571 138.664 83.0109 135.871 81.0448 133.577C78.938 131.114 78.0299 128.679 77.9981 128.602ZM153.685 189.973H143.496C143.491 189.973 143.491 189.973 143.487 189.973C143.468 189.973 142.442 189.918 141.003 189.692H127.917H127.563H106.59H106.277H54.3327H54.0149H42.6544C42.5681 189.692 42.5 189.76 42.5 189.846C42.5 189.932 42.5681 190 42.6544 190H54.142H106.417H127.831H141.757H155.038C155.001 190 154.97 189.986 154.947 189.968H153.685V189.973Z" fill="black"/>
<path d="M150.97 132.316C152.223 129.899 151.501 127.713 148.763 125.632C148.223 127.015 147.442 129.527 147.437 129.55C147.424 129.59 147.392 129.627 147.351 129.645C147.338 129.649 146.988 129.804 146.706 129.627C146.516 129.504 146.416 129.264 146.416 128.915C146.416 128.702 146.157 128.425 145.798 128.262C145.485 128.117 145.049 128.049 144.772 128.285C144.418 128.588 144.391 129.327 144.69 130.37C145.203 132.152 144.954 133.581 144.563 134.578C145.871 134.764 147.015 135.585 147.769 136.27C148.736 135.349 150.189 133.826 150.97 132.316Z" fill="white"/>
<path d="M148.786 125.26C148.75 125.233 148.7 125.224 148.65 125.238C148.65 125.238 148.65 125.238 148.645 125.238C148.6 125.251 148.564 125.283 148.546 125.328C148.051 126.544 147.297 128.933 147.156 129.387C147.074 129.409 146.956 129.423 146.87 129.369C146.747 129.287 146.725 129.078 146.725 128.915C146.725 128.525 146.321 128.162 145.926 127.981C145.403 127.741 144.899 127.768 144.568 128.054C144.532 128.085 144.495 128.122 144.464 128.162C144.405 128.235 144.346 128.326 144.3 128.435C144.141 128.811 144.096 129.437 144.391 130.461C144.7 131.532 144.718 132.466 144.6 133.25C144.582 133.355 144.563 133.459 144.545 133.559C144.468 133.93 144.364 134.261 144.241 134.552C144.35 134.556 144.454 134.57 144.559 134.583C144.949 133.586 145.199 132.157 144.686 130.375C144.386 129.332 144.418 128.593 144.768 128.289C145.045 128.054 145.481 128.122 145.794 128.267C146.153 128.43 146.411 128.707 146.411 128.92C146.411 129.269 146.507 129.509 146.702 129.632C146.979 129.813 147.329 129.659 147.347 129.65C147.388 129.632 147.419 129.595 147.433 129.555C147.442 129.527 148.219 127.015 148.759 125.637C151.497 127.718 152.219 129.904 150.966 132.321C150.18 133.831 148.727 135.359 147.76 136.279C147.842 136.352 147.919 136.424 147.987 136.492C148.968 135.558 150.43 134.021 151.238 132.461C151.901 131.187 152.037 129.94 151.651 128.766C151.265 127.596 150.348 126.457 148.922 125.378C148.882 125.333 148.836 125.297 148.786 125.26Z" fill="#333333"/>
<path d="M97.4912 150.132C104.802 158.902 114.8 162.094 127.205 159.614C137.757 157.505 142.96 151.569 145.471 146.958C148.028 142.255 148.386 137.943 148.418 137.404C148.082 136.986 145.38 133.817 142.561 135.2C141.58 136.184 140.608 137.29 139.582 138.465C136.031 142.518 132.018 147.103 126.505 147.103C126.396 147.103 126.287 147.103 126.178 147.098C120.748 146.922 114.659 142.342 107.562 133.096L96.96 149.538C96.969 149.542 96.9781 149.547 96.9872 149.556C97.1053 149.669 97.2687 149.864 97.4912 150.132Z" fill="white"/>
<path d="M107.557 132.833C107.489 132.883 107.475 132.982 107.529 133.05C107.543 133.064 107.552 133.078 107.561 133.096C114.658 142.342 120.747 146.921 126.177 147.098C126.286 147.103 126.395 147.103 126.504 147.103C132.017 147.103 136.03 142.518 139.581 138.465C140.607 137.29 141.579 136.184 142.56 135.2C145.379 133.817 148.081 136.986 148.417 137.403C148.381 137.943 148.027 142.26 145.47 146.958C142.959 151.569 137.756 157.51 127.204 159.614C114.799 162.09 104.8 158.902 97.4902 150.132C97.2677 149.864 97.1042 149.669 96.9907 149.556C96.9817 149.547 96.9726 149.542 96.9635 149.538C96.9045 149.502 96.8227 149.502 96.7728 149.556C96.7138 149.615 96.7138 149.715 96.7728 149.774C96.8046 149.805 96.8409 149.846 96.8863 149.896C96.9817 150.005 97.1088 150.155 97.2541 150.331C97.3631 150.458 97.4811 150.608 97.6173 150.767C98.9613 152.354 101.649 155.306 106.063 157.596C107.761 158.475 109.541 159.169 111.402 159.682C111.502 159.709 111.602 159.736 111.702 159.763C114.163 160.407 116.765 160.734 119.494 160.734C121.982 160.734 124.575 160.466 127.267 159.927C131.98 158.988 136.04 157.215 139.336 154.662C141.974 152.621 144.135 150.078 145.752 147.098C148.503 142.033 148.735 137.408 148.735 137.363C148.735 137.326 148.726 137.29 148.703 137.263C148.694 137.249 148.435 136.918 147.995 136.492C147.922 136.424 147.845 136.351 147.768 136.279C147.014 135.594 145.87 134.769 144.562 134.588C144.458 134.574 144.349 134.56 144.244 134.556C143.65 134.524 143.032 134.628 142.401 134.941C142.387 134.95 142.374 134.959 142.36 134.968C141.366 135.962 140.385 137.082 139.35 138.265C135.776 142.346 131.726 146.976 126.191 146.79C124.833 146.745 123.435 146.418 121.987 145.806C121.887 145.765 121.791 145.72 121.691 145.679C118.831 144.4 115.78 142.015 112.492 138.487C112.42 138.41 112.347 138.329 112.274 138.251C111.125 137.004 109.945 135.617 108.737 134.093C108.428 133.703 108.115 133.304 107.802 132.896C107.793 132.887 107.788 132.878 107.779 132.869C107.775 132.86 107.765 132.851 107.756 132.846C107.697 132.792 107.616 132.787 107.557 132.833Z" fill="#333333"/>
<path d="M130.006 126.825C131.418 127.256 132.131 126.934 132.308 126.526C132.431 126.244 132.318 125.923 132.031 125.755C131.21 125.274 129.416 124.925 129.402 124.92C129.375 124.916 129.353 124.902 129.334 124.889L127.759 126.784C128.258 126.58 128.985 126.512 130.006 126.825Z" fill="white"/>
<path d="M129.28 124.739C129.271 124.798 129.294 124.852 129.335 124.888C129.353 124.907 129.376 124.916 129.403 124.92C129.421 124.925 131.215 125.274 132.032 125.755C132.313 125.922 132.431 126.244 132.309 126.525C132.127 126.933 131.419 127.255 130.007 126.825C128.981 126.512 128.259 126.575 127.755 126.779C126.928 127.115 126.692 127.827 126.688 127.836C126.66 127.917 126.706 128.004 126.788 128.031C126.801 128.035 126.819 128.04 126.833 128.04C126.896 128.04 126.96 127.999 126.983 127.931C127.001 127.877 127.396 126.72 129.121 126.947C129.221 126.961 129.326 126.979 129.43 127.001C129.58 127.033 129.739 127.074 129.907 127.124C131.514 127.614 132.341 127.201 132.586 126.652C132.772 126.226 132.604 125.736 132.182 125.487C131.669 125.188 130.833 124.943 130.22 124.789C130.111 124.761 130.007 124.739 129.916 124.716C129.653 124.657 129.476 124.621 129.453 124.616C129.376 124.603 129.294 124.657 129.28 124.739Z" fill="#333333"/>
<path d="M211.465 184.148C211.465 186.154 211.156 188.128 210.551 190.019H219.242C219.71 188.666 219.946 187.248 219.946 185.802C219.946 178.97 214.596 173.363 207.859 172.945C210.127 176.1 211.465 179.97 211.465 184.148Z" fill="black"/>
<path d="M207.574 172.549C207.673 172.675 207.767 172.807 207.86 172.939C214.597 173.362 219.948 178.969 219.948 185.796C219.948 187.242 219.711 188.66 219.243 190.012H210.552C210.546 190.023 210.546 190.04 210.541 190.051H219.623C220.085 188.682 220.322 187.253 220.322 185.796C220.322 180.244 216.887 175.479 212.033 173.505C211.906 173.456 211.779 173.406 211.653 173.357C210.376 172.89 209 172.609 207.574 172.549Z" fill="black"/>
<path d="M145.547 183.636C145.399 183.152 145.294 182.685 145.234 182.245C142.415 183.29 140.5 185.334 140.5 187.681C140.5 188.484 140.726 189.265 141.166 190.007H157.029C155.989 189.847 154.767 189.611 153.523 189.276C149.004 188.061 146.323 186.164 145.547 183.636Z" fill="black"/>
<path d="M215.938 137.858C215.999 137.77 216.115 137.748 216.197 137.809C216.285 137.869 216.307 137.984 216.247 138.067C216.131 138.237 209.163 148.483 203.339 158.806C207.005 155.915 233.023 134.895 221.663 129.618C210.368 124.374 203.934 154.085 203.031 158.57C203.906 157.02 204.853 155.393 205.871 153.683C210.897 145.262 215.889 137.929 215.938 137.858ZM231.829 147.483C231.889 147.565 231.873 147.686 231.79 147.747C231.647 147.851 223.314 153.942 215.487 160.879C219.714 159.439 245.837 150.138 238.054 142.459C230.277 134.791 217.248 157.218 215.195 160.637C223.061 153.661 231.427 147.543 231.57 147.439C231.653 147.379 231.768 147.395 231.829 147.483ZM243.729 169.866C242.738 158.449 227.299 165.716 223.474 167.459C231.102 166.854 237.35 171.455 237.416 171.504C237.498 171.565 237.515 171.686 237.454 171.768C237.394 171.85 237.272 171.867 237.19 171.807C237.124 171.757 230.596 166.953 222.797 167.904C224.828 169.091 244.643 180.393 243.729 169.866Z" fill="#A2DFC3"/>
<path d="M203.346 158.812C209.169 148.489 216.138 138.243 216.253 138.073C216.314 137.985 216.292 137.869 216.204 137.814C216.116 137.754 216 137.776 215.945 137.864C215.895 137.935 210.903 145.268 205.878 153.695C204.86 155.404 203.913 157.031 203.038 158.581C201.48 161.341 200.148 163.847 199.053 166.09C199.174 166.134 199.295 166.184 199.416 166.233C200.572 163.847 201.926 161.33 203.346 158.812ZM205.834 170.504C208.377 167.448 211.877 164.073 215.488 160.874C223.315 153.937 231.648 147.846 231.791 147.742C231.874 147.681 231.896 147.566 231.83 147.478C231.769 147.395 231.654 147.373 231.566 147.439C231.423 147.544 223.051 153.662 215.191 160.637C211.602 163.825 208.113 167.189 205.564 170.24C205.658 170.328 205.746 170.416 205.834 170.504ZM237.191 171.807C237.273 171.867 237.395 171.851 237.455 171.768C237.516 171.686 237.499 171.565 237.417 171.504C237.35 171.455 231.103 166.854 223.475 167.459C223.056 167.492 222.632 167.541 222.209 167.607C218.323 168.212 214.789 170.125 211.652 173.318C211.778 173.368 211.905 173.417 212.031 173.467C215.081 170.405 218.51 168.564 222.264 167.981C222.44 167.954 222.621 167.932 222.798 167.91C230.597 166.953 237.125 171.757 237.191 171.807Z" fill="black"/>
<path d="M181.77 174.285C182.546 176.423 181.176 178.089 181.176 178.089C181.176 178.089 187.555 181.926 187.786 190.006H210.144C210.771 188.104 211.085 186.12 211.085 184.097C211.085 173.675 202.592 165.193 192.156 165.193C187.109 165.193 182.513 167.178 179.117 170.404C179.194 170.844 179.238 171.289 179.244 171.74C180.328 172.229 181.308 173.021 181.77 174.285Z" fill="white"/>
<path d="M210.458 190.254C210.485 190.172 210.513 190.089 210.541 190.007C210.546 189.996 210.546 189.979 210.552 189.968C211.157 188.077 211.465 186.104 211.465 184.098C211.465 179.92 210.128 176.056 207.86 172.895C207.766 172.763 207.667 172.631 207.574 172.505C207.04 171.801 206.462 171.131 205.84 170.51C205.752 170.422 205.664 170.334 205.57 170.246C203.803 168.542 201.717 167.173 199.406 166.233C199.285 166.184 199.163 166.134 199.042 166.09C196.901 165.271 194.579 164.82 192.157 164.82C187.093 164.82 182.48 166.777 179.029 169.976C179.062 170.119 179.09 170.262 179.117 170.411C182.513 167.184 187.109 165.2 192.157 165.2C202.593 165.2 211.085 173.681 211.085 184.103C211.085 186.121 210.766 188.11 210.144 190.012H187.781C187.781 190.073 187.786 190.139 187.786 190.199H184.682C184.677 190.232 184.66 190.265 184.633 190.293C184.6 190.331 184.55 190.353 184.495 190.353H173.916C173.949 190.375 173.988 190.392 174.026 190.392H210.271C210.359 190.381 210.436 190.331 210.458 190.254Z" fill="#333333"/>
<path d="M181.17 178.089C181.17 178.089 182.54 176.424 181.764 174.285C181.307 173.021 180.322 172.229 179.238 171.74C179.254 173.538 178.643 175.368 177.113 176.891C177.686 177.166 179.1 177.946 180.575 179.535C182.293 181.387 184.401 184.729 184.681 190.149C184.681 190.166 184.681 190.182 184.676 190.199H187.78C187.78 190.138 187.775 190.072 187.775 190.012C187.555 181.926 181.17 178.089 181.17 178.089Z" fill="#A2DFC3"/>
<path d="M155.845 179.86C155.746 179.887 155.641 179.832 155.614 179.733C155.586 179.634 155.641 179.53 155.74 179.502C156.049 179.414 162.488 177.611 166.116 179.508C163.793 176.754 161.2 174.352 158.905 172.444C153.533 167.981 148.574 165.205 148.524 165.177C148.436 165.128 148.403 165.013 148.453 164.925C148.502 164.837 148.618 164.804 148.706 164.853C148.756 164.881 153.737 167.673 159.136 172.153C159.83 172.73 160.551 173.351 161.278 174.011C160.045 169.163 158.834 165.117 158.823 165.073C158.795 164.974 158.85 164.87 158.949 164.837C159.048 164.809 159.153 164.864 159.186 164.963C159.197 165.007 160.507 169.372 161.784 174.467C163.672 176.21 165.609 178.216 167.343 180.42C167.371 180.448 167.398 180.481 167.426 180.508C167.442 180.53 167.453 180.552 167.464 180.574C168.422 181.8 169.308 183.092 170.09 184.427C169.908 182.46 170.227 180.986 171.036 180.052C171.895 179.062 172.985 179.068 173.029 179.068C173.133 179.068 173.216 179.156 173.216 179.26C173.216 179.365 173.128 179.447 173.029 179.447C173.007 179.447 172.055 179.453 171.317 180.31C170.464 181.3 170.216 182.976 170.58 185.296C171.394 186.808 172.066 188.374 172.528 189.979H184.29C183.977 184.801 181.957 181.597 180.311 179.816C178.5 177.859 176.728 177.144 176.711 177.133C176.651 177.111 176.607 177.056 176.596 176.996C176.585 176.93 176.607 176.869 176.651 176.825C179.7 173.989 179.232 169.943 177.416 167.195C175.561 164.391 171.89 162.358 167.86 164.139C167.767 164.183 167.657 164.139 167.613 164.045C166.033 160.698 163.364 158.614 160.634 158.614C160.628 158.614 160.623 158.614 160.623 158.614C158.311 158.62 156.351 160.093 155.113 162.759C155.091 162.808 155.052 162.841 154.997 162.858C154.948 162.874 154.893 162.869 154.849 162.841C154.788 162.808 148.695 159.422 145.602 160.873C144.699 161.297 144.132 162.116 143.917 163.298C142.822 169.377 149.091 174.605 149.152 174.654C149.201 174.692 149.223 174.753 149.218 174.813C149.212 174.874 149.174 174.929 149.124 174.962C149.113 174.967 147.853 175.676 146.835 177.089C145.475 178.964 145.156 181.135 145.893 183.531C147.644 189.232 159.736 189.957 160.034 189.974H172.132C171.152 186.648 169.281 183.498 167.057 180.673C164.101 177.545 155.928 179.832 155.845 179.86Z" fill="white"/>
<path d="M167.885 163.71C166.234 160.324 163.476 158.229 160.647 158.229C160.641 158.229 160.636 158.229 160.636 158.229C158.258 158.235 156.166 159.758 154.873 162.413C153.816 161.841 148.461 159.12 145.461 160.533C144.443 161.011 143.804 161.918 143.567 163.232C143.1 165.837 143.881 168.695 145.83 171.488C146.991 173.159 148.263 174.352 148.741 174.775C148.334 175.039 147.459 175.682 146.666 176.721C146.633 176.765 146.595 176.809 146.562 176.858C145.769 177.947 144.982 179.629 145.197 181.871C145.208 181.998 145.224 182.124 145.241 182.251C145.301 182.696 145.406 183.158 145.554 183.641C146.331 186.17 149.011 188.066 153.524 189.281C154.768 189.616 155.99 189.847 157.031 190.012C158.775 190.282 160.019 190.348 160.041 190.353C160.047 190.353 160.047 190.353 160.052 190.353H172.404C172.321 190.353 172.244 190.298 172.222 190.216C172.2 190.133 172.172 190.056 172.15 189.979H160.052C159.755 189.963 147.657 189.237 145.912 183.537C145.175 181.14 145.494 178.975 146.853 177.095C147.872 175.687 149.132 174.978 149.143 174.967C149.198 174.934 149.231 174.879 149.237 174.819C149.242 174.758 149.215 174.698 149.171 174.66C149.105 174.61 142.841 169.383 143.936 163.303C144.151 162.121 144.712 161.302 145.621 160.879C148.714 159.422 154.807 162.808 154.867 162.847C154.912 162.874 154.967 162.88 155.016 162.863C155.066 162.847 155.11 162.814 155.132 162.764C156.37 160.098 158.33 158.625 160.641 158.62C160.647 158.62 160.652 158.62 160.652 158.62C163.382 158.62 166.052 160.698 167.632 164.051C167.676 164.144 167.786 164.183 167.879 164.144C171.908 162.363 175.58 164.391 177.434 167.2C179.251 169.949 179.719 173.994 176.669 176.831C176.62 176.875 176.603 176.941 176.614 177.001C176.625 177.067 176.669 177.117 176.73 177.139C176.746 177.144 178.519 177.864 180.33 179.821C181.981 181.602 184.001 184.807 184.309 189.985H172.547C172.558 190.029 172.574 190.078 172.585 190.122C172.613 190.221 172.552 190.326 172.453 190.353C172.437 190.359 172.42 190.359 172.404 190.359H173.928H184.507C184.557 190.359 184.606 190.337 184.645 190.298C184.667 190.271 184.683 190.238 184.694 190.205C184.7 190.188 184.7 190.172 184.7 190.155C184.419 184.741 182.311 181.393 180.594 179.541C179.119 177.952 177.704 177.172 177.132 176.897C178.662 175.369 179.273 173.544 179.256 171.746C179.251 171.295 179.207 170.85 179.13 170.41C179.102 170.268 179.075 170.119 179.042 169.976C178.794 168.899 178.337 167.871 177.748 166.975C176.609 165.254 174.814 163.814 172.673 163.292C171.198 162.929 169.575 163.006 167.885 163.71Z" fill="#333333"/>
<path d="M167.349 180.414C165.615 178.21 163.678 176.203 161.79 174.461C161.795 174.477 161.795 174.494 161.801 174.51C161.828 174.609 161.762 174.714 161.663 174.736C161.647 174.741 161.63 174.741 161.619 174.741C161.536 174.741 161.459 174.686 161.437 174.598C161.388 174.395 161.338 174.197 161.283 173.999C160.551 173.34 159.836 172.718 159.142 172.141C153.743 167.661 148.761 164.869 148.712 164.841C148.618 164.792 148.508 164.825 148.459 164.913C148.409 165.001 148.442 165.116 148.53 165.166C148.58 165.193 153.533 167.969 158.911 172.433C161.206 174.34 163.799 176.742 166.121 179.496C166.578 179.738 166.997 180.04 167.349 180.414ZM172.578 190.105C172.567 190.061 172.55 190.011 172.539 189.967C172.077 188.357 171.405 186.79 170.591 185.284V185.29C170.607 185.394 170.536 185.488 170.437 185.504C170.426 185.504 170.415 185.504 170.409 185.504C170.316 185.504 170.239 185.438 170.222 185.345C170.172 185.026 170.134 184.712 170.106 184.416C169.325 183.08 168.433 181.794 167.481 180.562C167.503 180.634 167.486 180.711 167.426 180.76C167.387 180.793 167.343 180.81 167.299 180.81C167.25 180.81 167.195 180.788 167.156 180.749C167.129 180.722 167.101 180.694 167.074 180.661C169.292 183.487 171.169 186.636 172.148 189.962C172.17 190.039 172.198 190.121 172.22 190.198C172.242 190.281 172.319 190.336 172.402 190.336C172.418 190.336 172.435 190.336 172.451 190.33C172.545 190.308 172.605 190.204 172.578 190.105Z" fill="black"/>
<path d="M161.62 174.742C161.636 174.742 161.653 174.742 161.664 174.737C161.763 174.709 161.824 174.61 161.802 174.511C161.796 174.495 161.796 174.478 161.791 174.462C160.508 169.361 159.204 164.996 159.193 164.958C159.165 164.859 159.06 164.804 158.956 164.831C158.857 164.859 158.802 164.963 158.829 165.068C158.84 165.112 160.051 169.157 161.284 174.006C161.334 174.203 161.383 174.407 161.438 174.605C161.455 174.687 161.532 174.742 161.62 174.742ZM167.35 180.415C166.997 180.041 166.585 179.744 166.122 179.502C162.495 177.606 156.055 179.409 155.747 179.497C155.648 179.524 155.587 179.629 155.62 179.728C155.648 179.827 155.753 179.887 155.852 179.854C155.934 179.832 164.108 177.54 167.075 180.662C167.102 180.69 167.13 180.717 167.157 180.75C167.196 180.794 167.245 180.811 167.3 180.811C167.344 180.811 167.388 180.794 167.427 180.761C167.482 180.712 167.504 180.629 167.482 180.563C167.476 180.541 167.46 180.519 167.443 180.497C167.405 180.47 167.377 180.442 167.35 180.415ZM171.324 180.299C172.061 179.447 173.013 179.436 173.035 179.436C173.14 179.436 173.223 179.354 173.223 179.249C173.223 179.145 173.14 179.063 173.035 179.057C172.991 179.057 171.902 179.052 171.043 180.041C170.228 180.975 169.915 182.443 170.096 184.417C170.124 184.713 170.162 185.021 170.212 185.345C170.228 185.439 170.305 185.505 170.399 185.505C170.41 185.505 170.421 185.505 170.427 185.505C170.531 185.488 170.597 185.395 170.581 185.291V185.285C170.223 182.965 170.471 181.289 171.324 180.299Z" fill="black"/>
<rect x="136.006" y="125.302" width="6.4724" height="1.9229" rx="0.96145" transform="rotate(13.6511 136.006 125.302)" stroke="#333333" stroke-width="0.5"/>
<line x1="138.279" y1="114.853" x2="148.279" y2="116.853" stroke="#333333" stroke-width="0.3"/>
<line x1="137.279" y1="117.853" x2="147.279" y2="119.853" stroke="#333333" stroke-width="0.3"/>
<line x1="136.279" y1="119.853" x2="146.279" y2="121.853" stroke="#333333" stroke-width="0.3"/>
<path d="M135.25 126C130.083 124.333 122.102 111.5 123.499 102C125.191 90.5 128.499 90 129.5 88" stroke="#333333" stroke-width="0.3" stroke-linecap="round" stroke-linejoin="round" stroke-dasharray="3 3"/>
<path d="M220.681 70.0498H129.969C127.207 70.0498 124.969 72.2884 124.969 75.0498V87.0321C124.969 89.7935 127.207 92.0321 129.969 92.0321H220.681C223.442 92.0321 225.681 89.7935 225.681 87.0321V75.0498C225.681 72.2884 223.442 70.0498 220.681 70.0498Z" fill="white" stroke="#231F20" stroke-width="0.637778" stroke-miterlimit="10"/>
<path d="M194.649 75.695L194.339 74.4591L194.03 75.695L192.5 81.806L188.12 77.2785L187.234 76.363L187.584 77.5879L189.315 83.6448L183.258 81.914L182.033 81.564L182.948 82.4497L187.476 86.8305L181.365 88.3601L180.129 88.6694L181.365 88.9787L187.476 90.5083L182.948 94.8883L182.033 95.7742L183.258 95.4241L189.315 93.6933L187.584 99.751L187.234 100.976L188.12 100.06L192.5 95.5322L194.03 101.644L194.339 102.88L194.649 101.644L196.178 95.5322L200.558 100.06L201.444 100.976L201.094 99.751L199.363 93.6933L205.421 95.4241L206.646 95.7742L205.73 94.8883L201.202 90.5083L207.314 88.9788L208.55 88.6694L207.314 88.3601L201.202 86.8305L205.73 82.4498L206.646 81.564L205.421 81.914L199.363 83.6448L201.094 77.5879L201.444 76.3628L200.558 77.2785L196.178 81.8059L194.649 75.695Z" fill="white" stroke="#181818" stroke-width="0.637778" stroke-miterlimit="10"/>
<path d="M217.593 94.8996L205.966 91.7843L194.339 88.6689L197.454 100.296L200.569 111.923L206.273 104.172L212.01 109.91L215.58 106.34L209.842 100.603L217.593 94.8996Z" fill="#16AE68"/>
<path d="M194.339 75.7725L196.008 82.4402L200.787 77.5002L198.899 84.1091L205.509 82.2206L200.568 87.0005L207.236 88.6694L200.568 90.3383L205.509 95.1175L198.899 93.229L200.787 99.8386L196.008 94.8979L194.339 101.566L192.67 94.8979L187.891 99.8386L189.779 93.229L183.17 95.1175L188.11 90.3383L181.442 88.6694L188.11 87.0005L183.17 82.2206L189.779 84.1091L187.891 77.5002L192.67 82.4402L194.339 75.7725Z" stroke="white" stroke-width="0.637778" stroke-miterlimit="10"/>
<path d="M112.222 71.2549L113.326 74.1226L116.193 75.2265L113.326 76.3298L112.222 79.1982L111.117 76.3313L108.25 75.2265L111.118 74.1226L112.222 71.2549Z" fill="#231F20"/>
<path d="M240.528 73.5059L241.632 76.3735L244.501 77.4775L241.632 78.5808L240.528 81.4492L239.424 78.5822L236.557 77.4775L239.425 76.3735L240.528 73.5059Z" fill="#231F20"/>
<path d="M132.46 51L133.242 53.0329L135.275 53.8153L133.242 54.5973L132.46 56.6302L131.677 54.5983L129.645 53.8153L131.678 53.0329L132.46 51Z" fill="#231F20"/>
<path d="M211.312 54.3779L212.416 57.2463L215.284 58.3503L212.416 59.4536L211.312 62.322L210.208 59.455L207.341 58.3503L210.209 57.2463L211.312 54.3779Z" fill="#231F20"/>
</svg>
