<svg width="277" height="244" viewBox="0 0 277 244" fill="none" xmlns="http://www.w3.org/2000/svg">
<rect width="276" height="244" transform="translate(0.5)" fill="white"/>
<path fill-rule="evenodd" clip-rule="evenodd" d="M183.403 184C199.332 170.98 209.5 151.177 209.5 129C209.5 89.7878 177.712 58 138.5 58C99.2878 58 67.5 89.7878 67.5 129C67.5 151.177 77.6681 170.98 93.5967 184H183.403Z" fill="#D0EFE1"/>
<path d="M39.5531 194.164C39.5168 194.14 39.4805 194.116 39.4502 194.098C39.4805 194.122 39.5168 194.146 39.5531 194.164ZM46.1794 195.26C46.1431 195.272 46.1007 195.278 46.0584 195.29C46.1007 195.284 46.1431 195.272 46.1794 195.26ZM39.777 194.303C39.7407 194.279 39.7044 194.261 39.668 194.237C39.7044 194.261 39.7407 194.285 39.777 194.303ZM40.2369 194.558C40.2006 194.539 40.1582 194.515 40.1219 194.497C40.1582 194.521 40.1945 194.539 40.2369 194.558ZM40.0069 194.437C39.9706 194.418 39.9343 194.394 39.892 194.376C39.9283 194.394 39.9646 194.412 40.0069 194.437ZM44.2369 195.52C44.1945 195.52 44.1522 195.52 44.1038 195.52C44.1461 195.52 44.1885 195.52 44.2369 195.52ZM44.7392 195.502C44.6968 195.502 44.6544 195.508 44.606 195.508C44.6484 195.508 44.6907 195.508 44.7392 195.502ZM45.9494 195.32C45.9071 195.332 45.8647 195.338 45.8284 195.35C45.8647 195.338 45.9071 195.332 45.9494 195.32ZM43.9827 195.52C43.9404 195.52 43.892 195.514 43.8496 195.514C43.892 195.514 43.9404 195.52 43.9827 195.52ZM44.485 195.52C44.4426 195.52 44.4003 195.52 44.3519 195.52C44.4003 195.52 44.4426 195.52 44.485 195.52ZM45.4714 195.417C45.429 195.423 45.3867 195.429 45.3443 195.435C45.3867 195.429 45.429 195.423 45.4714 195.417ZM45.7134 195.375C45.6711 195.381 45.6287 195.393 45.5864 195.399C45.6287 195.387 45.6711 195.381 45.7134 195.375ZM44.9873 195.483C44.9449 195.49 44.9025 195.489 44.8602 195.496C44.8965 195.489 44.9389 195.49 44.9873 195.483ZM45.2293 195.453C45.187 195.459 45.1446 195.465 45.1022 195.471C45.1446 195.465 45.187 195.459 45.2293 195.453Z" fill="#333333"/>
<path d="M126.912 124.715L126.948 124.229H112.73L112.816 124.69C112.84 124.8 112.803 124.909 112.743 124.994H126.997C126.924 124.909 126.899 124.812 126.912 124.715Z" fill="#333333"/>
<path d="M167.025 178.99H144.896C144.835 179.112 144.714 179.185 144.568 179.185H136.584H130.642H112.439C112.293 179.185 112.171 179.1 112.111 178.99H101.101C101.04 179.112 100.919 179.185 100.773 179.185H92.7893H86.8471H68.6437C68.4979 179.185 68.3763 179.1 68.3156 178.99H51.2666V182.854H225.997C225.475 181.53 224.928 180.23 224.405 178.99H224.041H209.872H199.324H167.025Z" fill="black"/>
<path d="M224.027 178.99H224.392C224.926 180.23 225.461 181.53 225.984 182.854H51.2651V178.99H68.3141C68.2898 178.942 68.2655 178.881 68.2655 178.808V178.237H50.8884C50.6818 178.237 50.5117 178.407 50.5117 178.613V183.231C50.5117 183.438 50.6818 183.608 50.8884 183.608H200.696H226.555C226.676 183.608 226.798 183.547 226.871 183.438C226.944 183.328 226.956 183.207 226.907 183.085C226.275 181.493 225.631 179.926 224.999 178.455C224.939 178.322 224.805 178.225 224.647 178.225H224.404V178.601C224.404 178.82 224.234 178.99 224.027 178.99Z" fill="black"/>
<path d="M79.4646 178.808C79.4646 178.869 79.4403 178.93 79.416 178.991H90.4256C90.4013 178.942 90.377 178.881 90.377 178.808V178.237H79.4646V178.808ZM123.26 178.808C123.26 178.869 123.235 178.93 123.211 178.991H145.34C145.133 178.991 144.963 178.821 144.963 178.614V178.237H123.26V178.808ZM123.892 80.0586C124.402 79.6213 124.997 79.4755 125.714 79.6092C128.521 80.1315 129.214 84.1525 129.372 86.7521H130.138C129.98 83.946 129.19 79.4877 125.848 78.8682C124.912 78.6981 124.086 78.9046 123.393 79.4877C121.607 81.0183 121.218 84.7842 121.145 86.7521H121.911C121.996 84.8813 122.348 81.3828 123.892 80.0586Z" fill="black"/>
<path d="M125.508 124.373H141.986L133.091 87.5039H123.139L124.609 110.318L125.508 124.373Z" fill="black"/>
<path d="M122.739 86.7504C122.934 86.7504 123.104 86.9084 123.116 87.1027L123.14 87.5036H133.08L141.976 124.372H125.498L124.598 110.317L125.522 124.725C125.534 124.834 125.498 124.931 125.425 125.004C125.352 125.077 125.255 125.125 125.145 125.125H142.462C142.571 125.125 142.68 125.077 142.753 124.98C142.826 124.895 142.85 124.773 142.826 124.652L142.717 124.227L133.737 87.0298C133.7 86.8598 133.542 86.7383 133.372 86.7383H130.14H129.374H122.739V86.7504Z" fill="black"/>
<path d="M120.063 89.0224C120.051 89.2289 119.869 89.3868 119.662 89.3747C119.456 89.3625 119.298 89.1803 119.31 88.9738C119.31 88.9495 119.346 88.3664 119.322 87.5039H111.678C111.605 88.5608 111.605 89.2896 111.605 89.3139C111.605 89.5205 111.435 89.6905 111.229 89.6905C111.022 89.6905 110.852 89.5205 110.852 89.3139C110.852 89.2168 110.852 88.5122 110.913 87.5039H109.212L106.016 124.373H124.754L122.396 87.5039H120.1C120.1 88.3421 120.075 88.9252 120.063 89.0224ZM111.229 95.7887H119.711V98.3641H111.229V95.7887Z" fill="white"/>
<path d="M105.228 124.714C105.216 124.811 105.252 124.908 105.313 124.981C105.313 124.981 105.325 124.993 105.325 125.006C105.398 125.078 105.495 125.127 105.605 125.127H125.157C125.266 125.127 125.363 125.078 125.436 125.006C125.509 124.933 125.546 124.823 125.534 124.726L124.61 110.319L123.152 87.5051L123.128 87.1042C123.115 86.9099 122.945 86.752 122.751 86.752H121.924H121.159H120.065C120.077 87.0192 120.09 87.2743 120.102 87.5051H122.398L124.756 124.374H106.018L109.214 87.5051H110.915C110.927 87.2622 110.951 87.0192 110.976 86.752H108.861C108.667 86.752 108.497 86.8977 108.485 87.0921L105.908 116.83L105.264 124.228L105.228 124.714Z" fill="#333333"/>
<path d="M119.287 86.752H111.74C111.716 87.0193 111.692 87.2745 111.68 87.5054H119.323C119.323 87.2745 119.311 87.0193 119.287 86.752Z" fill="#333333"/>
<path d="M110.914 87.5051C110.853 88.5134 110.853 89.2301 110.853 89.3152C110.853 89.5217 111.023 89.6918 111.23 89.6918C111.437 89.6918 111.607 89.5217 111.607 89.3152C111.607 89.2909 111.607 88.562 111.68 87.5051C111.692 87.2743 111.716 87.0192 111.74 86.752C111.947 84.456 112.506 81.2612 113.964 80.0342C114.45 79.6212 114.997 79.4876 115.629 79.6091C118.436 80.1314 119.129 84.1523 119.287 86.752C119.299 87.0192 119.311 87.2743 119.323 87.5051C119.347 88.3676 119.311 88.9507 119.311 88.975C119.299 89.1816 119.457 89.3638 119.663 89.3759C119.87 89.3881 120.052 89.2301 120.064 89.0236C120.064 88.9386 120.101 88.3555 120.076 87.5051C120.076 87.2743 120.064 87.0192 120.04 86.752C119.882 83.9458 119.092 79.4876 115.75 78.868C114.888 78.7101 114.122 78.9045 113.454 79.4633C111.777 80.8603 111.169 84.3346 110.963 86.752C110.95 87.0192 110.938 87.2743 110.914 87.5051ZM75.771 76.0497C76.1477 75.7703 76.5487 75.6853 77.0105 75.8189C79.769 76.5964 80.3765 83.1684 80.3887 87.25H81.1421C81.13 83.5692 80.6925 76.0619 77.2171 75.0901C76.5244 74.8957 75.8804 75.0172 75.3214 75.4424C72.8546 77.3253 72.5751 85.0877 72.5508 87.2379H73.3042C73.3285 84.1888 73.8024 77.5439 75.771 76.0497Z" fill="black"/>
<path d="M83.9378 88.0039H74.5566L74.6053 96.143L74.7511 124.375H90.3054L83.9378 88.0039Z" fill="black"/>
<path d="M74.1807 87.2504C74.3872 87.2504 74.5574 87.4205 74.5574 87.627L74.606 96.1427L74.5695 88.0036H83.9386L90.3061 124.374H74.7518V124.751C74.7518 124.848 74.7153 124.945 74.6424 125.018C74.5695 125.091 74.4723 125.127 74.3751 125.127H90.7557C90.8651 125.127 90.9745 125.079 91.0474 124.994C91.0474 124.994 91.0473 124.982 91.0595 124.982C91.1203 124.897 91.1567 124.787 91.1324 124.678L91.0474 124.216L88.7264 110.939L84.6312 87.5541C84.5948 87.3719 84.4368 87.2383 84.2545 87.2383H81.1315H80.3781H74.1807V87.2504Z" fill="black"/>
<path d="M71.1537 89.6074C70.9472 89.5953 70.7892 89.413 70.8013 89.2065C70.8257 88.8542 70.8378 88.4534 70.8378 88.0039H63.4495C63.4252 88.4655 63.413 88.8907 63.413 89.2308C63.413 89.4373 63.2429 89.6074 63.0364 89.6074C63.0364 89.6074 63.0363 89.6074 63.0242 89.6074C62.8176 89.6074 62.6475 89.4374 62.6475 89.2187C62.6475 89.1337 62.6596 88.6842 62.6839 88.0039H61.3837L56.3164 124.375H73.9973L73.815 88.0039H71.5912C71.5791 88.6963 71.5548 89.1579 71.5548 89.243C71.5426 89.4616 71.3603 89.6196 71.1537 89.6074ZM65.1265 97.9408C66.2687 97.9408 67.1801 98.8641 67.1801 99.9938C67.1801 101.136 66.2566 102.047 65.1265 102.047C63.9842 102.047 63.0728 101.124 63.0728 99.9938C63.0728 98.8641 63.9842 97.9408 65.1265 97.9408Z" fill="white"/>
<path d="M55.503 124.701C55.4908 124.799 55.5151 124.908 55.5881 124.993L55.6002 125.005C55.6731 125.09 55.7703 125.139 55.8797 125.139H74.3747C74.4719 125.139 74.5692 125.102 74.6421 125.029C74.715 124.956 74.7514 124.859 74.7514 124.762V124.386L74.6056 96.1539L74.557 87.6383C74.557 87.4318 74.3869 87.2617 74.1803 87.2617H73.2932H72.5398H71.592C71.592 87.5411 71.592 87.7841 71.592 88.0149H73.8158L73.998 124.386H56.3172L61.3845 88.0149H62.6847C62.6969 87.7841 62.709 87.529 62.7212 87.2617H61.0564C60.8619 87.2617 60.704 87.3954 60.6797 87.5897L58.1035 106.042L55.5637 124.24L55.503 124.701Z" fill="#333333"/>
<path d="M70.8375 87.25H63.4857C63.4735 87.5173 63.4614 87.7604 63.4492 88.0034H70.8375C70.8375 87.7604 70.8375 87.5173 70.8375 87.25Z" fill="#333333"/>
<path d="M62.6849 88.0032C62.6484 88.6835 62.6484 89.133 62.6484 89.218C62.6484 89.4245 62.8064 89.5946 63.0252 89.6067C63.0252 89.6067 63.0252 89.6067 63.0373 89.6067C63.2439 89.6067 63.414 89.4367 63.414 89.2301C63.414 88.8779 63.4383 88.4648 63.4505 88.0032C63.4626 87.7603 63.4748 87.5051 63.4869 87.25C63.7178 83.4599 64.4712 77.4224 66.3304 76.0376C66.6829 75.7703 67.0596 75.6974 67.4727 75.8189C70.2312 76.5964 70.8388 83.1684 70.8509 87.25C70.8509 87.5173 70.8509 87.7603 70.8509 88.0032C70.8388 88.4527 70.8266 88.8535 70.8145 89.2058C70.8023 89.4123 70.9603 89.5946 71.1669 89.6067C71.3735 89.6189 71.5557 89.4609 71.5679 89.2544C71.5679 89.1572 71.5922 88.7078 71.6044 88.0154C71.6044 87.7845 71.6044 87.5294 71.6044 87.2622C71.5922 83.5814 71.1547 76.074 67.6793 75.1022C67.0353 74.92 66.4277 75.0415 65.8808 75.4423C63.6206 77.1309 62.9401 83.8608 62.7335 87.2622C62.7092 87.5294 62.6971 87.7724 62.6849 88.0032Z" fill="black"/>
<path d="M168.425 86.8247C168.721 86.6052 169.036 86.5384 169.399 86.6434C171.566 87.2542 172.044 92.4173 172.053 95.624H172.645C172.636 92.7323 172.292 86.8343 169.562 86.0708C169.017 85.9181 168.511 86.0135 168.072 86.3475C166.134 87.8268 165.915 93.9253 165.896 95.6145H166.487C166.507 93.219 166.879 87.9986 168.425 86.8247Z" fill="black"/>
<path d="M174.842 96.2148H167.472L167.51 102.609L167.624 124.789H179.844L174.842 96.2148Z" fill="black"/>
<path d="M167.176 95.6228C167.338 95.6228 167.472 95.7564 167.472 95.9187L167.51 102.609L167.481 96.2145H174.842L179.844 124.789H167.624V125.084C167.624 125.161 167.596 125.237 167.539 125.294C167.481 125.352 167.405 125.38 167.329 125.38H180.198C180.284 125.38 180.37 125.342 180.427 125.275C180.427 125.275 180.427 125.266 180.436 125.266C180.484 125.199 180.513 125.113 180.494 125.027L180.427 124.664L178.603 114.233L175.386 95.8614C175.357 95.7183 175.233 95.6133 175.09 95.6133H172.637H172.045H167.176V95.6228Z" fill="black"/>
<path d="M164.797 97.4746C164.635 97.4651 164.511 97.3219 164.52 97.1597C164.54 96.8829 164.549 96.568 164.549 96.2148H158.745C158.726 96.5775 158.716 96.9115 158.716 97.1788C158.716 97.341 158.582 97.4746 158.42 97.4746C158.42 97.4746 158.42 97.4746 158.41 97.4746C158.248 97.4746 158.115 97.341 158.115 97.1692C158.115 97.1024 158.124 96.7493 158.143 96.2148H157.122L153.141 124.789H167.031L166.888 96.2148H165.141C165.131 96.7588 165.112 97.1215 165.112 97.1883C165.103 97.3601 164.96 97.4842 164.797 97.4746ZM160.062 104.022C160.96 104.022 161.676 104.747 161.676 105.635C161.676 106.532 160.95 107.247 160.062 107.247C159.165 107.247 158.449 106.522 158.449 105.635C158.449 104.747 159.165 104.022 160.062 104.022Z" fill="white"/>
<path d="M152.502 125.047C152.493 125.123 152.512 125.209 152.569 125.276L152.579 125.285C152.636 125.352 152.712 125.39 152.798 125.39H167.329C167.405 125.39 167.481 125.362 167.539 125.304C167.596 125.247 167.625 125.171 167.625 125.094V124.799L167.51 102.619L167.472 95.9287C167.472 95.7664 167.338 95.6328 167.176 95.6328H166.479H165.887H165.142C165.142 95.8523 165.142 96.0432 165.142 96.2245H166.889L167.033 124.799H153.142L157.123 96.2245H158.145C158.154 96.0432 158.164 95.8428 158.173 95.6328H156.865C156.713 95.6328 156.588 95.7378 156.569 95.8905L154.545 110.387L152.55 124.684L152.502 125.047Z" fill="#333333"/>
<path d="M164.55 95.625H158.774C158.764 95.835 158.755 96.026 158.745 96.2169H164.55C164.55 96.026 164.55 95.835 164.55 95.625Z" fill="#333333"/>
<path d="M158.144 96.216C158.115 96.7505 158.115 97.1036 158.115 97.1704C158.115 97.3327 158.239 97.4663 158.411 97.4758C158.411 97.4758 158.411 97.4758 158.421 97.4758C158.583 97.4758 158.717 97.3422 158.717 97.18C158.717 96.9032 158.736 96.5787 158.745 96.216C158.755 96.0252 158.764 95.8247 158.774 95.6243C158.955 92.6467 159.547 87.9034 161.008 86.8154C161.285 86.6055 161.581 86.5482 161.905 86.6437C164.073 87.2545 164.55 92.4176 164.559 95.6243C164.559 95.8343 164.559 96.0252 164.559 96.216C164.55 96.5692 164.54 96.8841 164.531 97.1609C164.521 97.3231 164.645 97.4663 164.808 97.4758C164.97 97.4854 165.113 97.3613 165.123 97.199C165.123 97.1227 165.142 96.7696 165.151 96.2256C165.151 96.0442 165.151 95.8438 165.151 95.6339C165.142 92.7421 164.798 86.8441 162.068 86.0806C161.562 85.9374 161.084 86.0329 160.655 86.3478C158.879 87.6744 158.344 92.9616 158.182 95.6339C158.163 95.8438 158.153 96.0347 158.144 96.216Z" fill="black"/>
<path d="M207.425 86.8247C207.721 86.6052 208.036 86.5384 208.399 86.6434C210.566 87.2542 211.044 92.4173 211.053 95.624H211.645C211.636 92.7323 211.292 86.8343 208.562 86.0708C208.017 85.9181 207.511 86.0135 207.072 86.3475C205.134 87.8268 204.915 93.9253 204.896 95.6145H205.487C205.507 93.219 205.879 87.9986 207.425 86.8247Z" fill="black"/>
<path d="M213.842 96.2148H206.472L206.51 102.609L206.624 124.789H218.844L213.842 96.2148Z" fill="black"/>
<path d="M206.176 95.6228C206.338 95.6228 206.472 95.7564 206.472 95.9187L206.51 102.609L206.481 96.2145H213.842L218.844 124.789H206.624V125.084C206.624 125.161 206.596 125.237 206.539 125.294C206.481 125.352 206.405 125.38 206.329 125.38H219.198C219.284 125.38 219.37 125.342 219.427 125.275C219.427 125.275 219.427 125.266 219.436 125.266C219.484 125.199 219.513 125.113 219.494 125.027L219.427 124.664L217.603 114.233L214.386 95.8614C214.357 95.7183 214.233 95.6133 214.09 95.6133H211.637H211.045H206.176V95.6228Z" fill="black"/>
<path d="M203.797 97.4746C203.635 97.4651 203.511 97.3219 203.52 97.1597C203.54 96.8829 203.549 96.568 203.549 96.2148H197.745C197.726 96.5775 197.716 96.9115 197.716 97.1788C197.716 97.341 197.582 97.4746 197.42 97.4746C197.42 97.4746 197.42 97.4746 197.41 97.4746C197.248 97.4746 197.115 97.341 197.115 97.1692C197.115 97.1024 197.124 96.7493 197.143 96.2148H196.122L192.141 124.789H206.031L205.888 96.2148H204.141C204.131 96.7588 204.112 97.1215 204.112 97.1883C204.103 97.3601 203.96 97.4842 203.797 97.4746ZM199.062 104.022C199.96 104.022 200.676 104.747 200.676 105.635C200.676 106.532 199.95 107.247 199.062 107.247C198.165 107.247 197.449 106.522 197.449 105.635C197.449 104.747 198.165 104.022 199.062 104.022Z" fill="white"/>
<path d="M191.502 125.047C191.493 125.123 191.512 125.209 191.569 125.276L191.579 125.285C191.636 125.352 191.712 125.39 191.798 125.39H206.329C206.405 125.39 206.481 125.362 206.539 125.304C206.596 125.247 206.625 125.171 206.625 125.094V124.799L206.51 102.619L206.472 95.9287C206.472 95.7664 206.338 95.6328 206.176 95.6328H205.479H204.887H204.142C204.142 95.8523 204.142 96.0432 204.142 96.2245H205.889L206.033 124.799H192.142L196.123 96.2245H197.145C197.154 96.0432 197.164 95.8428 197.173 95.6328H195.865C195.713 95.6328 195.588 95.7378 195.569 95.8905L193.545 110.387L191.55 124.684L191.502 125.047Z" fill="#333333"/>
<path d="M203.55 95.625H197.774C197.764 95.835 197.755 96.026 197.745 96.2169H203.55C203.55 96.026 203.55 95.835 203.55 95.625Z" fill="#333333"/>
<path d="M197.144 96.216C197.115 96.7505 197.115 97.1036 197.115 97.1704C197.115 97.3327 197.239 97.4663 197.411 97.4758C197.411 97.4758 197.411 97.4758 197.421 97.4758C197.583 97.4758 197.717 97.3422 197.717 97.18C197.717 96.9032 197.736 96.5787 197.745 96.216C197.755 96.0252 197.764 95.8247 197.774 95.6243C197.955 92.6467 198.547 87.9034 200.008 86.8154C200.285 86.6055 200.581 86.5482 200.905 86.6437C203.073 87.2545 203.55 92.4176 203.559 95.6243C203.559 95.8343 203.559 96.0252 203.559 96.216C203.55 96.5692 203.54 96.8841 203.531 97.1609C203.521 97.3231 203.645 97.4663 203.808 97.4758C203.97 97.4854 204.113 97.3613 204.123 97.199C204.123 97.1227 204.142 96.7696 204.151 96.2256C204.151 96.0442 204.151 95.8438 204.151 95.6339C204.142 92.7421 203.798 86.8441 201.068 86.0806C200.562 85.9374 200.084 86.0329 199.655 86.3478C197.879 87.6744 197.344 92.9616 197.182 95.6339C197.163 95.8438 197.153 96.0347 197.144 96.216Z" fill="black"/>
<path d="M223.64 140.129H210.236V148.863H223.64V140.129Z" fill="black"/>
<path d="M210.235 139.754V140.13H223.639V148.864H224.015C224.222 148.864 224.392 149.034 224.392 149.241V146.945V139.754C224.392 139.547 224.222 139.377 224.015 139.377H217.356H209.858C210.077 139.377 210.235 139.547 210.235 139.754Z" fill="black"/>
<path d="M223.64 149.617H210.236V178.225H223.64V149.617Z" fill="black"/>
<path d="M224.027 148.863H223.651H210.235V149.24V149.616H223.639V178.225H210.235V178.601C210.235 178.808 210.065 178.978 209.858 178.978H224.027C224.234 178.978 224.404 178.808 224.404 178.601V178.225V149.24C224.404 149.033 224.234 148.863 224.027 148.863Z" fill="black"/>
<path d="M199.313 148.863H199.69H209.484V140.129H199.69H167.402V148.863H199.313Z" fill="white"/>
<path d="M167.025 148.864H167.402V140.13H199.689H209.484V148.864H209.86C210.067 148.864 210.237 149.035 210.237 149.241V148.864V140.13V139.754C210.237 139.547 210.067 139.377 209.86 139.377H199.312H167.025C166.819 139.377 166.648 139.547 166.648 139.754V140.871V149.253C166.648 149.035 166.819 148.864 167.025 148.864Z" fill="#333333"/>
<path d="M167.402 149.617V178.238H199.69H209.484V149.617H199.69H199.313H167.402Z" fill="white"/>
<path d="M167.025 178.99H199.312H209.86C210.067 178.99 210.237 178.82 210.237 178.613V178.237V149.616V149.24C210.237 149.033 210.067 148.863 209.86 148.863H209.484H199.689H199.312H167.402H167.025C166.819 148.863 166.648 149.033 166.648 149.24V178.225V178.601C166.648 178.82 166.819 178.99 167.025 178.99ZM199.312 149.616H199.689H209.484V178.225H199.689H167.402V149.616H199.312Z" fill="#333333"/>
<path d="M144.191 157.281H136.961V161.875H144.191V157.281Z" fill="black"/>
<path d="M136.96 156.906V157.283H144.19V161.876H144.567C144.773 161.876 144.943 162.046 144.943 162.253V156.906C144.943 156.699 144.773 156.529 144.567 156.529H136.583C136.79 156.529 136.96 156.699 136.96 156.906Z" fill="black"/>
<path d="M144.191 162.641H136.961V178.433H144.191V162.641Z" fill="black"/>
<path d="M144.555 161.875H144.178H136.96V162.252V162.628H144.19V178.42H136.96V178.797C136.96 179.003 136.79 179.174 136.583 179.174H144.567C144.713 179.174 144.834 179.088 144.895 178.979C144.919 178.931 144.943 178.87 144.943 178.797V178.226V162.252C144.943 162.045 144.773 161.875 144.555 161.875Z" fill="black"/>
<path d="M131.007 157.281H112.815V161.875H130.63H131.007H136.195V157.281H131.007Z" fill="white"/>
<path d="M112.44 161.876H112.816V157.283H131.008H136.196V161.876H136.573C136.78 161.876 136.95 162.046 136.95 162.253V161.876V157.283V156.906C136.95 156.699 136.78 156.529 136.573 156.529H130.631H112.427C112.221 156.529 112.051 156.699 112.051 156.906V162.253C112.051 162.046 112.221 161.876 112.44 161.876Z" fill="#333333"/>
<path d="M131.007 178.433H136.195V162.641H131.007H130.63H112.815V178.433H131.007ZM126.122 165.921H130.63V169.14H126.122V165.921ZM115.817 165.921H123.23V169.14H115.817V165.921Z" fill="white"/>
<path d="M112.051 178.809C112.051 178.869 112.075 178.93 112.099 178.991C112.16 179.112 112.282 179.185 112.427 179.185H130.631H136.573C136.78 179.185 136.95 179.015 136.95 178.809V178.432V162.64V162.263C136.95 162.057 136.78 161.887 136.573 161.887H136.196H131.008H130.631H112.816H112.44C112.233 161.887 112.063 162.057 112.063 162.263V178.238V178.809H112.051ZM112.816 162.64H130.631H131.008H136.196V178.432H131.008H112.804V162.64H112.816Z" fill="#333333"/>
<path d="M100.396 157.281H93.166V161.875H100.396V157.281Z" fill="black"/>
<path d="M93.1658 156.906V157.283H100.396V161.876H100.773C100.979 161.876 101.15 162.046 101.15 162.253V156.906C101.15 156.699 100.979 156.529 100.773 156.529H92.7891C92.9956 156.529 93.1658 156.699 93.1658 156.906Z" fill="black"/>
<path d="M100.396 162.641H93.166V178.433H100.396V162.641Z" fill="black"/>
<path d="M100.773 161.875H100.396H93.1658V162.252V162.628H100.396V178.42H93.1658V178.797C93.1658 179.003 92.9956 179.174 92.7891 179.174H100.773C100.919 179.174 101.04 179.088 101.101 178.979C101.125 178.931 101.15 178.87 101.15 178.797V178.226V162.252C101.15 162.045 100.979 161.875 100.773 161.875Z" fill="black"/>
<path d="M87.2108 157.281H69.0195V161.875H86.8341H87.2108H92.4117V157.281H87.2108Z" fill="white"/>
<path d="M68.6433 161.876H69.02V157.283H87.2234H92.4122V161.876H92.7889C92.9955 161.876 93.1656 162.046 93.1656 162.253V161.876V157.283V156.906C93.1656 156.699 92.9955 156.529 92.7889 156.529H86.8467H68.6433C68.4367 156.529 68.2666 156.699 68.2666 156.906V162.253C68.2666 162.046 68.4367 161.876 68.6433 161.876Z" fill="#333333"/>
<path d="M87.2108 178.433H92.3996V162.641H87.2108H86.834H69.0195V178.433H87.2108ZM84.7925 166.662H88.6568V171.594H84.7925V166.662Z" fill="white"/>
<path d="M68.2666 178.809C68.2666 178.869 68.2909 178.93 68.3152 178.991C68.376 179.112 68.4975 179.185 68.6433 179.185H86.8467H92.7889C92.9955 179.185 93.1656 179.015 93.1656 178.809V178.432V162.64V162.263C93.1656 162.057 92.9955 161.887 92.7889 161.887H92.4122H87.2234H86.8467H69.0322H68.6555C68.4489 161.887 68.2788 162.057 68.2788 162.263V178.238V178.809H68.2666ZM69.02 162.64H86.8345H87.2113H92.4001V178.432H87.2113H69.0079V162.64H69.02Z" fill="#333333"/>
<path d="M88.6572 166.66H84.793V171.594H88.6572V166.66Z" fill="#45BE86"/>
<path d="M82.5 167H71.5V172H82.5V167Z" fill="#45BE86"/>
<path d="M123.228 165.92H115.815V169.14H123.228V165.92Z" fill="#45BE86"/>
<path d="M130.629 165.92H126.121V169.14H130.629V165.92Z" fill="#45BE86"/>
<path d="M119.714 95.7891H111.232V98.3652H119.714V95.7891Z" fill="#45BE86"/>
<path d="M66.5 96H61.5V98H66.5V96Z" fill="#45BE86"/>
<path d="M72.5 96H67.5V98H72.5V96Z" fill="#45BE86"/>
<rect x="41" y="124.5" width="201" height="4" fill="white" stroke="black"/>
<circle cx="160" cy="105.5" r="2.5" fill="#16AE68"/>
<rect x="196.5" y="104" width="8" height="4" fill="#16AE68"/>
<path d="M255.698 183.123C253.335 176.586 234.698 182.716 231.788 183.716C242.447 184.275 252.519 182.845 252.645 182.826C252.726 182.813 252.803 182.872 252.816 182.954C252.829 183.035 252.77 183.111 252.689 183.124C252.562 183.143 242.4 184.584 231.672 184.006C236.296 186.611 258.209 190.072 255.698 183.123Z" fill="#45BE86"/>
<path d="M252.816 182.954C252.802 182.873 252.726 182.814 252.645 182.827C252.519 182.846 242.447 184.275 231.788 183.716C228.912 183.567 225.992 183.272 223.213 182.761C223.133 182.745 223.054 182.798 223.037 182.882C223.021 182.962 223.073 183.042 223.153 183.058C223.153 183.058 223.153 183.058 223.158 183.058C225.919 183.562 228.815 183.857 231.67 184.011C242.405 184.585 252.561 183.148 252.688 183.129C252.769 183.111 252.828 183.04 252.816 182.954Z" fill="black"/>
<path d="M232.781 170.57C237.027 166.437 240.917 161.689 243.922 157.715C249.441 150.403 253.214 144.059 253.251 143.993C253.295 143.923 253.383 143.897 253.458 143.941C253.528 143.985 253.554 144.073 253.51 144.148C253.473 144.209 249.693 150.566 244.166 157.891C241.199 161.824 237.355 166.513 233.157 170.621C238.854 170.731 270.596 146.09 260.455 136.371C249.939 126.298 232.636 170.507 232.636 170.507C232.675 170.534 232.725 170.554 232.781 170.57Z" fill="#45BE86"/>
<path d="M253.505 144.146C253.548 144.076 253.522 143.983 253.453 143.94C253.383 143.896 253.29 143.922 253.246 143.992C253.21 144.053 249.437 150.397 243.916 157.713C240.916 161.689 237.023 166.431 232.775 170.568C229.818 173.45 226.688 176.038 223.566 177.858C223.494 177.897 223.47 177.991 223.51 178.062C223.532 178.101 223.571 178.123 223.609 178.131C223.642 178.138 223.682 178.131 223.715 178.113C226.912 176.244 230.119 173.584 233.142 170.622C237.341 166.509 241.178 161.824 244.15 157.892C249.687 150.569 253.467 144.212 253.505 144.146Z" fill="black"/>
<path d="M232.273 177.463C236.218 176.582 240.246 175.134 243.508 173.797C249.63 171.289 254.432 168.619 254.481 168.595C254.552 168.555 254.646 168.579 254.685 168.65C254.725 168.722 254.701 168.815 254.63 168.855C254.581 168.879 249.767 171.556 243.629 174.071C240.234 175.465 236.007 176.976 231.896 177.853C233.606 180.331 260.535 177.207 258.73 167.759C257.039 158.961 235.557 174.96 232.273 177.463Z" fill="#45BE86"/>
<path d="M254.625 168.855C254.697 168.815 254.725 168.723 254.681 168.651C254.641 168.579 254.549 168.551 254.477 168.595C254.428 168.62 249.626 171.289 243.503 173.798C240.242 175.134 236.214 176.582 232.269 177.464C229.387 178.107 226.553 178.457 224.098 178.235C224.016 178.228 223.946 178.288 223.934 178.369C223.929 178.446 223.979 178.515 224.054 178.53C224.059 178.531 224.063 178.532 224.068 178.533C226.427 178.745 229.128 178.443 231.888 177.853C235.998 176.975 240.225 175.464 243.62 174.071C249.763 171.557 254.576 168.884 254.625 168.855Z" fill="black"/>
<path d="M31.4122 171.612C31.0263 171.959 30.2856 172.783 30.074 174.103C29.8188 175.695 30.4163 177.468 31.8604 179.37C33.8522 181.997 40.1636 183.069 46.0021 183.484C46.0145 183.522 46.0208 183.559 46.0332 183.596C41.8006 183.534 37.9727 182.939 34.8418 181.836C31.5989 180.69 29.1341 179.004 27.9079 177.09C26.9307 175.565 26.7938 173.954 27.5158 172.554C27.5469 172.492 27.5407 172.424 27.5096 172.368C27.4722 172.312 27.41 172.275 27.3415 172.275C23.6505 172.275 21.0425 171.475 19.5984 169.902C18.4718 168.675 17.9988 166.915 18.2042 164.672C18.2104 164.616 18.1917 164.566 18.1544 164.523C18.117 164.486 18.0672 164.461 18.0112 164.461C16.0817 164.461 13.8285 163.922 13.1313 162.726C12.7516 162.069 12.845 161.239 13.4114 160.26C14.5069 158.37 16.5921 157.868 18.1793 158.209C19.7976 158.556 20.8931 159.69 21.0425 161.164C21.0487 161.226 21.086 161.282 21.1358 161.313C21.1918 161.344 21.2541 161.35 21.3101 161.319C23.5322 160.328 25.5925 160.359 27.4473 161.406C26.5697 164.901 27.4411 169.431 31.4122 171.612Z" fill="black"/>
<path d="M18.2535 157.838C19.9465 158.204 21.1229 159.356 21.3843 160.874C23.9986 159.79 26.0713 160.236 27.5464 161.035C27.5402 161.06 27.534 161.079 27.5278 161.097C27.4966 161.203 27.4718 161.308 27.4406 161.413C25.5858 160.366 23.5317 160.335 21.3034 161.327C21.2474 161.351 21.1789 161.351 21.1292 161.321C21.0731 161.29 21.042 161.234 21.0358 161.172C20.8864 159.691 19.7909 158.557 18.1726 158.216C16.5854 157.875 14.5002 158.377 13.4047 160.267C12.8383 161.246 12.745 162.076 13.1246 162.733C13.8218 163.935 16.075 164.468 18.0045 164.468C18.0605 164.468 18.1103 164.493 18.1477 164.53C18.185 164.568 18.2037 164.623 18.1975 164.679C17.9983 166.922 18.4651 168.682 19.5917 169.909C21.0358 171.483 23.6438 172.282 27.3348 172.282C27.4033 172.282 27.4655 172.319 27.5029 172.375C27.5402 172.431 27.5402 172.505 27.5091 172.561C26.7871 173.962 26.9302 175.573 27.9012 177.097C29.1274 179.012 31.5923 180.697 34.8352 181.844C37.966 182.947 41.794 183.548 46.0265 183.603C46.0452 183.678 46.0701 183.752 46.0888 183.826C46.1137 183.907 46.1884 183.963 46.2755 183.963H48.6221C47.981 183.988 47.3461 184 46.7236 184C42.1674 184 38.0469 183.386 34.7044 182.209C31.3806 181.038 28.8473 179.297 27.5713 177.308C26.5817 175.765 26.3949 174.129 27.0236 172.666C23.3761 172.623 20.7806 171.787 19.2992 170.169C18.129 168.899 17.6186 167.108 17.7867 164.853C15.9256 164.815 13.579 164.295 12.7823 162.925C12.3279 162.138 12.4213 161.184 13.0624 160.075C14.2637 158.018 16.5356 157.472 18.2535 157.838Z" fill="black"/>
<path d="M32.1657 179.143C30.7963 177.334 30.2174 175.667 30.454 174.18C30.7092 172.569 31.8607 171.751 31.8731 171.745C31.9291 171.707 31.9603 171.639 31.954 171.571C31.9478 171.503 31.9105 171.441 31.8482 171.41C27.7277 169.322 26.9185 164.656 27.902 161.21C28.4622 159.252 29.5639 157.994 30.6407 158.087C30.7092 158.093 30.7714 158.063 30.8088 158.013C30.8461 157.963 30.8586 157.889 30.8399 157.827C29.651 154.574 30.4353 151.153 32.7508 149.511C34.2695 148.433 36.7032 147.838 38.4647 149.071C40.3507 150.397 40.8549 153.316 39.6162 155.726C39.5789 155.795 39.5913 155.875 39.6349 155.937C39.6847 155.999 39.7594 156.024 39.8341 156.005C44.3654 154.809 48.9963 156.786 50.6022 160.603C52.2952 164.618 49.5316 168.572 49.4133 168.739C49.3698 168.807 49.3635 168.894 49.4133 168.956C49.4569 169.024 49.5378 169.055 49.6187 169.037C50.5586 168.82 53.8202 168.274 56.3846 170.313C58.3079 171.844 59.2416 174.347 59.0735 177.018C57.7041 175.314 55.6003 174.217 53.2351 174.217C50.7515 174.217 48.5544 175.431 47.1974 177.29C46.9983 177.105 46.7991 176.919 46.6061 176.733C45.6849 174.105 47.9133 170.796 47.9382 170.759C48.0004 170.673 47.9755 170.549 47.8884 170.493C47.8012 170.431 47.6767 170.456 47.6207 170.542C47.5273 170.673 45.5916 173.548 46.0709 176.2C42.6786 172.761 40.5436 169.024 39.2178 165.907C39.0436 165.498 38.8817 165.089 38.7261 164.693C38.3527 161.756 41.5769 159.928 41.608 159.909C41.7014 159.86 41.7325 159.742 41.6827 159.649C41.6329 159.556 41.5146 159.525 41.4213 159.574C41.2968 159.643 38.6888 161.117 38.3464 163.652C36.5974 158.639 36.4667 154.747 36.4667 154.698C36.4667 154.592 36.3795 154.512 36.2737 154.512H36.2675C36.1617 154.512 36.0746 154.605 36.0808 154.71C36.0808 154.76 36.2551 159.928 38.8568 166.044C39.4357 167.413 40.0955 168.727 40.8237 169.979C38.446 168.157 34.4625 167.227 34.2633 167.178C34.1575 167.153 34.0579 167.221 34.033 167.32C34.0081 167.426 34.0765 167.525 34.1761 167.549C34.2321 167.562 39.9461 168.894 41.6951 171.385L41.7014 171.391C42.6786 172.897 43.7678 174.304 44.9629 175.611C45.3924 176.082 45.8405 176.541 46.3011 176.987C46.3074 176.999 46.3198 177.005 46.3323 177.018C46.5439 177.222 46.7555 177.421 46.9734 177.619C46.5439 178.282 46.2078 179.019 46.0086 179.806C42.5416 179.397 39.2801 178.226 39.2365 178.208C39.1369 178.17 39.0249 178.22 38.9875 178.325C38.9502 178.424 39 178.536 39.1058 178.573C39.2925 178.641 42.4794 179.788 45.9277 180.197C45.8343 180.668 45.7845 181.157 45.7845 181.659C45.7845 182.142 45.8343 182.619 45.9215 183.09C40.1764 182.663 34.0454 181.622 32.1657 179.143Z" fill="white"/>
<path d="M38.6887 148.76C40.668 150.148 41.2593 153.005 40.1389 155.533C42.3175 155.043 44.5831 155.248 46.55 156.122C48.5978 157.026 50.1663 158.563 50.9631 160.453C52.4445 163.966 50.683 167.424 49.9858 168.57C51.3241 168.335 54.2495 168.124 56.6272 170.014C58.7622 171.712 59.7332 174.532 59.4157 177.487C59.3037 177.326 59.1916 177.171 59.0672 177.023C59.2414 174.352 58.3078 171.848 56.3782 170.318C53.8138 168.279 50.5523 168.825 49.6124 169.041C49.5315 169.06 49.4505 169.029 49.407 168.961C49.3634 168.893 49.3634 168.806 49.407 168.744C49.5252 168.577 52.2888 164.623 50.5958 160.608C48.9837 156.791 44.3528 154.814 39.8277 156.01C39.753 156.029 39.6783 156.004 39.6285 155.942C39.5787 155.88 39.5725 155.799 39.6099 155.731C40.8547 153.327 40.3506 150.402 38.4584 149.076C36.6969 147.837 34.2569 148.438 32.7444 149.516C30.429 151.164 29.6447 154.585 30.8335 157.832C30.8584 157.894 30.846 157.962 30.8024 158.018C30.7651 158.067 30.6966 158.098 30.6344 158.092C29.5576 157.999 28.4558 159.257 27.8957 161.215C26.906 164.66 27.7214 169.32 31.8419 171.415C31.9041 171.446 31.9415 171.508 31.9477 171.576C31.9539 171.644 31.9228 171.706 31.8668 171.749C31.8543 171.756 30.7028 172.58 30.4476 174.185C30.2111 175.672 30.79 177.339 32.1593 179.148C34.0391 181.627 40.1701 182.668 45.9027 183.083C45.9276 183.219 45.9587 183.355 45.996 183.492C40.1576 183.077 33.8399 182.005 31.8543 179.377C30.4165 177.481 29.8127 175.709 30.0679 174.11C30.2796 172.79 31.0203 171.966 31.4062 171.619C27.435 169.438 26.5636 164.908 27.4413 161.426C27.4662 161.321 27.4973 161.215 27.5284 161.11C27.5346 161.085 27.5409 161.066 27.5471 161.048C28.1259 159.071 29.2152 157.807 30.3854 157.708C29.2712 154.374 30.1302 150.904 32.5266 149.2C32.7506 149.039 32.9934 148.89 33.2548 148.754C34.8607 147.905 37.0392 147.601 38.6887 148.76Z" fill="#333333"/>
<path d="M46.3252 177.01C46.3564 177.035 46.3999 177.054 46.4435 177.054C46.4684 177.054 46.4871 177.047 46.512 177.041C46.6116 177.004 46.6614 176.892 46.624 176.793C46.6178 176.768 46.6053 176.744 46.5991 176.719C46.7921 176.905 46.9913 177.091 47.1904 177.277C47.1095 177.388 47.0348 177.493 46.9601 177.611C46.7485 177.419 46.5369 177.215 46.3252 177.01ZM46.263 176.93C46.2692 176.948 46.2817 176.967 46.2941 176.979C45.8335 176.533 45.3854 176.081 44.9559 175.604C43.7608 174.296 42.6715 172.889 41.6943 171.384C41.7317 171.433 41.7877 171.458 41.8499 171.458C41.8873 171.458 41.9246 171.446 41.962 171.421C42.0491 171.359 42.074 171.241 42.0118 171.154C41.7068 170.721 41.296 170.324 40.8229 169.965C40.0947 168.713 39.4349 167.399 38.856 166.03C36.2542 159.908 36.08 154.746 36.08 154.696C36.08 154.591 36.1609 154.504 36.2667 154.498H36.2729C36.3787 154.498 36.4659 154.579 36.4659 154.684C36.4659 154.727 36.5966 158.619 38.3456 163.638C38.2958 163.991 38.2958 164.363 38.3456 164.753C38.3581 164.853 38.439 164.921 38.5386 164.921C38.5448 164.921 38.5573 164.921 38.5635 164.921C38.6693 164.908 38.744 164.809 38.7315 164.704C38.7315 164.698 38.7315 164.691 38.7315 164.685C38.8871 165.088 39.049 165.491 39.2233 165.9C40.549 169.017 42.684 172.753 46.0763 176.192C46.1074 176.44 46.1696 176.688 46.263 176.93ZM39.0925 178.565C38.993 178.528 38.9432 178.417 38.9743 178.318C39.0116 178.218 39.1237 178.169 39.2233 178.2C39.2668 178.218 42.5284 179.39 45.9954 179.799C45.9642 179.929 45.9331 180.053 45.9082 180.183C42.4661 179.78 39.2793 178.634 39.0925 178.565Z" fill="black"/>
<path d="M46.5128 177.047C46.4879 177.053 46.4692 177.06 46.4443 177.06C46.4007 177.06 46.3572 177.041 46.326 177.016C46.3136 177.004 46.3011 176.998 46.2949 176.985C46.2825 176.973 46.2762 176.954 46.2638 176.936C46.1704 176.694 46.1082 176.446 46.0646 176.198C45.5916 173.546 47.5273 170.677 47.6145 170.541C47.6767 170.454 47.795 170.429 47.8821 170.491C47.9693 170.553 47.9942 170.671 47.9319 170.758C47.907 170.789 45.6787 174.104 46.5999 176.731C46.6061 176.756 46.6124 176.781 46.6248 176.806C46.6622 176.899 46.6124 177.01 46.5128 177.047ZM42.0001 171.161C42.0624 171.247 42.0375 171.365 41.9503 171.427C41.9192 171.452 41.8756 171.464 41.8383 171.464C41.7823 171.464 41.7263 171.439 41.6827 171.39L41.6765 171.384C39.9274 168.893 34.2135 167.56 34.1574 167.548C34.0516 167.523 33.9894 167.418 34.0143 167.319C34.0392 167.213 34.145 167.151 34.2446 167.176C34.4438 167.22 38.4273 168.155 40.805 169.977C41.2905 170.33 41.6951 170.727 42.0001 171.161ZM38.5518 164.921C38.5456 164.921 38.5332 164.921 38.5269 164.921C38.4336 164.921 38.3464 164.852 38.334 164.753C38.2842 164.363 38.2842 163.991 38.334 163.638C38.6763 161.104 41.2843 159.629 41.4088 159.561C41.5022 159.511 41.6204 159.542 41.6702 159.635C41.72 159.728 41.6889 159.846 41.5955 159.895C41.5644 159.914 38.3402 161.742 38.7137 164.679C38.7137 164.685 38.7137 164.691 38.7137 164.698C38.7323 164.809 38.6576 164.908 38.5518 164.921ZM60.3184 181.645C60.3184 182.302 60.225 182.946 60.0507 183.572H46.4256C46.2451 182.946 46.158 182.302 46.158 181.645C46.158 177.76 49.3324 174.593 53.2413 174.593C57.1377 174.593 60.3184 177.76 60.3184 181.645Z" fill="black"/>
<path d="M46.0952 183.82C46.0703 183.746 46.0516 183.671 46.033 183.597C46.0205 183.56 46.0143 183.523 46.0018 183.486C45.9645 183.349 45.9334 183.213 45.9085 183.077C45.8151 182.606 45.7715 182.129 45.7715 181.645C45.7715 181.143 45.8213 180.66 45.9147 180.183C45.9396 180.053 45.9707 179.923 46.0018 179.799C46.2072 179.012 46.5371 178.274 46.9666 177.611C47.0413 177.5 47.116 177.388 47.1969 177.277C48.5538 175.418 50.7572 174.203 53.2345 174.203C55.5935 174.203 57.6974 175.3 59.073 177.004C59.1912 177.153 59.3095 177.308 59.4215 177.469C60.2307 178.658 60.71 180.09 60.71 181.633C60.71 182.277 60.629 182.915 60.461 183.535C60.4361 183.628 60.4112 183.715 60.3863 183.808C60.3676 183.857 60.3303 183.901 60.2867 183.919C60.2618 183.932 60.2307 183.944 60.1996 183.944H48.6347H46.2882C46.1948 183.957 46.1201 183.901 46.0952 183.82ZM46.1512 181.645C46.1512 182.302 46.2446 182.946 46.4189 183.572H60.044C60.2245 182.946 60.3116 182.302 60.3116 181.645C60.3116 177.76 57.1372 174.594 53.2283 174.594C49.3319 174.594 46.1512 177.76 46.1512 181.645Z" fill="black"/>
<path d="M32.2496 65L33.6393 68.6107L37.2491 70.0004L33.6393 71.3893L32.2496 75L30.8589 71.3911L27.25 70.0004L30.8607 68.6107L32.2496 65Z" fill="#16AE68"/>
<path d="M57.75 145L58.7229 147.528L61.25 148.5L58.7229 149.472L57.75 152L56.7765 149.474L54.25 148.5L56.7777 147.528L57.75 145Z" fill="#231F20"/>
<path d="M224.25 48L225.639 51.6107L229.249 53.0004L225.639 54.3893L224.25 58L222.859 54.3911L219.25 53.0004L222.861 51.6107L224.25 48Z" fill="#231F20"/>
<path d="M231.75 108L232.445 109.805L234.25 110.5L232.445 111.195L231.75 113L231.055 111.196L229.25 110.5L231.056 109.805L231.75 108Z" fill="#16AE68"/>
</svg>
