<svg width="277" height="244" viewBox="0 0 277 244" fill="none" xmlns="http://www.w3.org/2000/svg">
<rect width="276" height="244" transform="translate(0.5)" fill="white"/>
<path fill-rule="evenodd" clip-rule="evenodd" d="M200.154 190.015C215.057 177.28 224.504 158.347 224.504 137.208C224.504 98.8625 193.419 67.7773 155.073 67.7773C116.728 67.7773 85.6426 98.8625 85.6426 137.208C85.6426 158.347 95.0899 177.28 109.993 190.015H200.154Z" fill="#D0EFE1"/>
<path d="M139.95 72.5563C139.95 72.5563 143.253 65.0421 139.943 64.0593C136.154 62.9307 136.421 67.244 136.421 67.244C136.421 67.244 132.373 66.0796 132.109 69.2416C131.781 73.1709 139.95 72.5563 139.95 72.5563Z" fill="#16AE68"/>
<path d="M194.668 93.0933C194.668 93.0933 200.791 94.9593 201.253 92.3166C201.784 89.2918 198.465 89.8892 198.465 89.8892C198.465 89.8892 199 86.6613 196.525 86.7442C193.45 86.8484 194.668 93.0933 194.668 93.0933Z" fill="#16AE68"/>
<path d="M168.064 69.4395H148.816L144.387 121.414H173.515L168.064 69.4395Z" fill="white"/>
<path d="M150.553 69.5136C150.553 69.5986 150.518 69.6835 150.484 69.7684H165.918C165.883 69.7005 165.849 69.6155 165.849 69.5136V68.7153H150.553V69.5136ZM164.964 122.093C164.964 122.178 164.93 122.263 164.895 122.348H195.745C195.455 122.348 195.387 122.11 195.387 121.821L195.319 121.295H164.964V122.093ZM169.939 59.3564C170.655 58.745 171.49 58.5411 172.495 58.728C176.43 59.4583 177.4 65.0805 177.622 68.7153H178.695C178.474 64.7917 177.366 58.5581 172.682 57.6919C171.37 57.4541 170.212 57.7428 169.241 58.5581C166.737 60.6983 166.192 65.9637 166.09 68.7153H167.163C167.282 66.0996 167.776 61.2078 169.939 59.3564Z" fill="black"/>
<path d="M167.451 69.7682C167.485 69.6834 167.519 69.5985 167.519 69.5136V68.7153H182.628L182.816 69.5136C182.816 69.6155 182.85 69.8803 182.884 69.9482L167.451 69.7684L167.451 69.7682Z" fill="black"/>
<path d="M172.204 121.32H195.302L182.833 69.7695H168.882L170.943 101.668L172.204 121.32Z" fill="black"/>
<path d="M143.774 121.794C143.757 121.93 143.808 122.066 143.893 122.167C143.893 122.167 143.91 122.184 143.91 122.201C144.012 122.303 144.149 122.371 144.302 122.371H171.71C171.863 122.371 172 122.303 172.102 122.201C172.204 122.1 172.255 121.947 172.238 121.811L170.944 101.666L168.899 69.7679L168.865 69.2074C168.848 68.9357 168.61 68.7148 168.337 68.7148H167.179H166.106H164.573C164.59 69.0885 164.607 69.4452 164.624 69.7679H167.843L171.148 121.318H144.881L149.361 69.7679H151.746C151.763 69.4282 151.797 69.0885 151.831 68.7148H148.867C148.594 68.7148 148.356 68.9187 148.339 69.1904L144.728 110.77L143.825 121.114L143.774 121.794Z" fill="#333333"/>
<path d="M151.746 69.7678C151.661 71.1775 151.661 72.1797 151.661 72.2986C151.661 72.5873 151.9 72.8251 152.189 72.8251C152.479 72.8251 152.717 72.5873 152.717 72.2986C152.717 72.2646 152.717 71.2455 152.819 69.7678C152.836 69.445 152.871 69.0884 152.905 68.7147C153.194 65.5045 153.978 61.0373 156.022 59.3218C156.703 58.7443 157.47 58.5575 158.356 58.7273C162.291 59.4577 163.262 65.0798 163.483 68.7147C163.5 69.0884 163.517 69.445 163.534 69.7678C163.568 70.9737 163.517 71.789 163.517 71.823C163.5 72.1117 163.721 72.3665 164.011 72.3835C164.301 72.4005 164.556 72.1797 164.573 71.8909C164.573 71.772 164.624 70.9567 164.59 69.7678C164.59 69.445 164.573 69.0884 164.539 68.7147C164.318 64.7911 163.21 58.5575 158.526 57.6912C157.317 57.4704 156.243 57.7422 155.306 58.5235C152.956 60.4768 152.104 65.3346 151.814 68.7147C151.797 69.0884 151.78 69.445 151.746 69.7678Z" fill="black"/>
<path d="M164.079 81.3516H152.189V84.9524H164.079V81.3516Z" fill="#16AE68"/>
<path d="M249.476 187.994C246.932 180.957 226.871 187.555 223.739 188.632C235.213 189.234 246.054 187.695 246.19 187.675C246.277 187.66 246.359 187.724 246.374 187.812C246.388 187.899 246.324 187.981 246.237 187.995C246.101 188.015 235.162 189.567 223.613 188.945C228.591 191.749 252.179 195.474 249.476 187.994Z" fill="#A2DFC3"/>
<path d="M246.373 187.811C246.359 187.724 246.277 187.66 246.19 187.675C246.054 187.695 235.212 189.234 223.738 188.632C220.643 188.472 217.499 188.154 214.507 187.604C214.421 187.586 214.336 187.643 214.318 187.734C214.301 187.821 214.357 187.906 214.444 187.923C214.444 187.923 214.444 187.923 214.449 187.924C217.421 188.466 220.538 188.783 223.612 188.95C235.167 189.567 246.099 188.02 246.235 188C246.324 187.981 246.386 187.904 246.373 187.811Z" fill="black"/>
<path d="M224.807 174.481C229.379 170.032 233.565 164.921 236.8 160.643C242.741 152.772 246.802 145.943 246.843 145.872C246.89 145.797 246.985 145.769 247.065 145.817C247.14 145.863 247.169 145.959 247.121 146.039C247.081 146.105 243.012 152.947 237.063 160.833C233.869 165.066 229.732 170.113 225.213 174.536C231.345 174.654 265.513 148.129 254.597 137.668C243.278 126.825 224.652 174.413 224.652 174.413C224.694 174.442 224.747 174.463 224.807 174.481Z" fill="#A2DFC3"/>
<path d="M247.115 146.038C247.161 145.963 247.134 145.863 247.059 145.816C246.984 145.769 246.883 145.797 246.837 145.872C246.797 145.938 242.736 152.766 236.794 160.642C233.564 164.922 229.373 170.027 224.801 174.48C221.617 177.582 218.249 180.368 214.887 182.327C214.81 182.369 214.785 182.47 214.827 182.547C214.851 182.588 214.893 182.613 214.934 182.621C214.969 182.628 215.013 182.621 215.048 182.602C218.489 180.59 221.942 177.726 225.196 174.538C229.715 170.111 233.846 165.068 237.045 160.835C243.005 152.952 247.074 146.109 247.115 146.038Z" fill="black"/>
<path d="M224.261 181.902C228.507 180.953 232.843 179.395 236.354 177.956C242.944 175.255 248.113 172.382 248.166 172.355C248.243 172.313 248.343 172.338 248.386 172.415C248.428 172.492 248.403 172.593 248.326 172.635C248.273 172.662 243.092 175.543 236.485 178.251C232.83 179.751 228.28 181.377 223.855 182.322C225.695 184.989 254.683 181.626 252.739 171.456C250.92 161.986 227.796 179.208 224.261 181.902Z" fill="#A2DFC3"/>
<path d="M248.322 172.634C248.399 172.591 248.429 172.492 248.381 172.414C248.339 172.337 248.239 172.306 248.161 172.354C248.109 172.38 242.94 175.254 236.349 177.954C232.839 179.393 228.502 180.952 224.256 181.901C221.153 182.593 218.103 182.969 215.461 182.731C215.372 182.724 215.296 182.788 215.284 182.875C215.278 182.958 215.332 183.032 215.413 183.048C215.418 183.049 215.423 183.05 215.428 183.051C217.967 183.28 220.875 182.954 223.846 182.32C228.27 181.375 232.821 179.748 236.475 178.248C243.088 175.542 248.268 172.665 248.322 172.634Z" fill="black"/>
<path d="M37.108 176.679C36.6926 177.053 35.8953 177.94 35.6675 179.361C35.3928 181.075 36.036 182.983 37.5904 185.03C39.7345 187.858 46.5284 189.012 52.8132 189.459C52.8266 189.499 52.8333 189.539 52.8467 189.579C48.2906 189.513 44.17 188.872 40.7998 187.685C37.309 186.451 34.6558 184.637 33.3358 182.576C32.2839 180.935 32.1365 179.2 32.9137 177.693C32.9472 177.626 32.9405 177.553 32.907 177.493C32.8668 177.433 32.7998 177.393 32.7261 177.393C28.7529 177.393 25.9456 176.532 24.3911 174.838C23.1784 173.517 22.6692 171.623 22.8903 169.208C22.897 169.148 22.8769 169.095 22.8367 169.048C22.7965 169.008 22.7429 168.982 22.6826 168.982C20.6055 168.982 18.1801 168.401 17.4297 167.114C17.021 166.407 17.1215 165.513 17.7312 164.459C18.9104 162.425 21.1549 161.885 22.8635 162.251C24.6055 162.625 25.7848 163.846 25.9456 165.433C25.9523 165.5 25.9925 165.56 26.0461 165.593C26.1064 165.627 26.1734 165.633 26.2337 165.6C28.6256 164.533 30.8434 164.566 32.84 165.693C31.8953 169.455 32.8333 174.331 37.108 176.679Z" fill="black"/>
<path d="M22.9437 161.852C24.7662 162.246 26.0325 163.486 26.3139 165.12C29.128 163.953 31.3591 164.433 32.9471 165.294C32.9404 165.321 32.9337 165.341 32.927 165.361C32.8935 165.474 32.8667 165.587 32.8332 165.701C30.8365 164.573 28.6255 164.54 26.2268 165.607C26.1665 165.634 26.0928 165.634 26.0392 165.601C25.9789 165.567 25.9454 165.507 25.9387 165.441C25.7779 163.846 24.5987 162.626 22.8566 162.259C21.1481 161.892 18.9035 162.432 17.7243 164.467C17.1146 165.521 17.0141 166.414 17.4228 167.121C18.1732 168.416 20.5987 168.989 22.6757 168.989C22.736 168.989 22.7896 169.016 22.8298 169.056C22.87 169.096 22.8901 169.156 22.8834 169.216C22.669 171.631 23.1715 173.525 24.3843 174.846C25.9387 176.54 28.7461 177.4 32.7193 177.4C32.793 177.4 32.86 177.44 32.9002 177.5C32.9404 177.56 32.9404 177.64 32.9069 177.701C32.1296 179.208 32.2837 180.942 33.329 182.583C34.6489 184.644 37.3022 186.459 40.7929 187.693C44.1631 188.88 48.2837 189.527 52.8398 189.587C52.8599 189.667 52.8867 189.747 52.9068 189.827C52.9336 189.914 53.014 189.974 53.1078 189.974H55.6338C54.9437 190 54.2603 190.014 53.5902 190.014C48.6857 190.014 44.2502 189.353 40.6522 188.086C37.0744 186.825 34.3474 184.951 32.9739 182.81C31.9085 181.149 31.7075 179.388 32.3843 177.814C28.458 177.767 25.664 176.867 24.0694 175.126C22.8097 173.758 22.2603 171.831 22.4412 169.403C20.4379 169.363 17.9119 168.802 17.0543 167.328C16.5652 166.481 16.6657 165.454 17.3558 164.26C18.6489 162.045 21.0945 161.458 22.9437 161.852Z" fill="black"/>
<path d="M37.9188 184.784C36.4447 182.836 35.8216 181.042 36.0762 179.441C36.3509 177.707 37.5905 176.826 37.6039 176.819C37.6642 176.779 37.6977 176.706 37.691 176.633C37.6843 176.559 37.6441 176.493 37.5771 176.459C33.1416 174.211 32.2705 169.189 33.3292 165.48C33.9322 163.372 35.1181 162.018 36.2772 162.118C36.3509 162.125 36.418 162.092 36.4582 162.038C36.4984 161.985 36.5118 161.905 36.4917 161.838C35.2119 158.336 36.0561 154.654 38.5486 152.887C40.1834 151.726 42.8032 151.086 44.6993 152.413C46.7295 153.84 47.2722 156.982 45.9389 159.577C45.8987 159.65 45.9121 159.737 45.959 159.804C46.0126 159.87 46.093 159.897 46.1734 159.877C51.0511 158.59 56.036 160.717 57.7646 164.826C59.5871 169.149 56.6122 173.404 56.4849 173.584C56.438 173.658 56.4313 173.751 56.4849 173.818C56.5318 173.891 56.6189 173.925 56.706 173.905C57.7177 173.671 61.2286 173.084 63.9891 175.279C66.0594 176.926 67.0645 179.621 66.8835 182.496C65.4095 180.662 63.1449 179.481 60.5988 179.481C57.9254 179.481 55.5603 180.788 54.0996 182.789C53.8852 182.589 53.6708 182.389 53.4631 182.189C52.4715 179.361 54.8702 175.799 54.897 175.759C54.964 175.665 54.9372 175.532 54.8434 175.472C54.7496 175.405 54.6156 175.432 54.5553 175.525C54.4548 175.665 52.371 178.76 52.8869 181.615C49.2353 177.913 46.9372 173.891 45.5101 170.536C45.3225 170.096 45.1483 169.656 44.9807 169.229C44.5787 166.067 48.0494 164.099 48.0829 164.079C48.1834 164.026 48.2169 163.899 48.1633 163.799C48.1097 163.699 47.9824 163.666 47.8819 163.719C47.7479 163.792 44.9405 165.38 44.572 168.108C42.6893 162.712 42.5486 158.523 42.5486 158.47C42.5486 158.356 42.4548 158.269 42.3409 158.269H42.3342C42.2203 158.269 42.1265 158.37 42.1332 158.483C42.1332 158.536 42.3208 164.099 45.1214 170.683C45.7446 172.157 46.4548 173.571 47.2387 174.918C44.6792 172.957 40.3911 171.957 40.1767 171.903C40.0628 171.877 39.9556 171.95 39.9288 172.057C39.902 172.17 39.9757 172.277 40.0829 172.304C40.1432 172.317 46.294 173.751 48.1767 176.433L48.1834 176.439C49.2353 178.06 50.4079 179.574 51.6943 180.982C52.1566 181.489 52.639 181.982 53.1348 182.462C53.1415 182.476 53.1549 182.482 53.1683 182.496C53.3961 182.716 53.6239 182.929 53.8585 183.143C53.3961 183.857 53.0343 184.65 52.8199 185.497C49.0879 185.057 45.5771 183.797 45.5302 183.777C45.423 183.736 45.3024 183.79 45.2622 183.903C45.222 184.01 45.2755 184.13 45.3894 184.17C45.5905 184.243 49.0209 185.477 52.7328 185.918C52.6323 186.425 52.5787 186.952 52.5787 187.492C52.5787 188.012 52.6323 188.526 52.7261 189.033C46.5419 188.572 39.9422 187.452 37.9188 184.784Z" fill="white"/>
<path d="M44.9405 152.08C47.0712 153.574 47.7077 156.649 46.5017 159.37C48.8467 158.844 51.2856 159.064 53.4028 160.004C55.6072 160.978 57.2956 162.632 58.1532 164.667C59.7479 168.449 57.8517 172.171 57.1013 173.405C58.5418 173.151 61.6909 172.924 64.2504 174.959C66.5485 176.786 67.5937 179.821 67.252 183.003C67.1314 182.83 67.0108 182.663 66.8768 182.503C67.0644 179.628 66.0594 176.933 63.9824 175.286C61.2219 173.091 57.711 173.678 56.6993 173.912C56.6122 173.932 56.5251 173.898 56.4782 173.825C56.4313 173.752 56.4313 173.658 56.4782 173.591C56.6055 173.411 59.5804 169.156 57.7579 164.833C56.0226 160.725 51.0377 158.597 46.1667 159.884C46.0863 159.904 46.0059 159.877 45.9523 159.811C45.8986 159.744 45.8919 159.657 45.9321 159.584C47.2722 156.996 46.7295 153.848 44.6926 152.42C42.7965 151.086 40.17 151.733 38.5419 152.894C36.0494 154.668 35.2052 158.35 36.4849 161.845C36.5117 161.912 36.4983 161.985 36.4514 162.045C36.4112 162.099 36.3375 162.132 36.2705 162.125C35.1114 162.025 33.9255 163.379 33.3225 165.487C32.2571 169.196 33.1348 174.212 37.5704 176.466C37.6374 176.5 37.6775 176.566 37.6842 176.64C37.691 176.713 37.6575 176.78 37.5972 176.827C37.5838 176.833 36.3442 177.72 36.0695 179.448C35.8149 181.049 36.438 182.843 37.9121 184.791C39.9355 187.459 46.5352 188.58 52.706 189.026C52.7328 189.173 52.7663 189.32 52.8065 189.467C46.5218 189.02 39.7211 187.866 37.5837 185.038C36.036 182.997 35.3861 181.089 35.6608 179.368C35.8886 177.947 36.6859 177.06 37.1013 176.686C32.8266 174.339 31.8886 169.463 32.8333 165.714C32.8601 165.6 32.8936 165.487 32.9271 165.374C32.9338 165.347 32.9405 165.327 32.9472 165.307C33.5704 163.179 34.7429 161.818 36.0025 161.712C34.8032 158.123 35.7278 154.388 38.3074 152.553C38.5486 152.38 38.8099 152.22 39.0913 152.073C40.8199 151.159 43.165 150.833 44.9405 152.08Z" fill="#333333"/>
<path d="M53.1614 182.491C53.1949 182.518 53.2419 182.538 53.2888 182.538C53.3156 182.538 53.3356 182.531 53.3624 182.524C53.4696 182.484 53.5233 182.364 53.4831 182.257C53.4764 182.231 53.463 182.204 53.4563 182.177C53.664 182.377 53.8784 182.578 54.0928 182.778C54.0057 182.898 53.9253 183.011 53.8449 183.138C53.6171 182.931 53.3892 182.711 53.1614 182.491ZM53.0944 182.404C53.1011 182.424 53.1145 182.444 53.1279 182.457C52.6321 181.977 52.1497 181.49 51.6874 180.977C50.401 179.569 49.2285 178.055 48.1765 176.434C48.2167 176.488 48.277 176.514 48.344 176.514C48.3842 176.514 48.4244 176.501 48.4646 176.474C48.5584 176.408 48.5852 176.281 48.5182 176.187C48.1899 175.721 47.7477 175.294 47.2385 174.907C46.4546 173.559 45.7444 172.145 45.1212 170.671C42.3206 164.081 42.133 158.525 42.133 158.471C42.133 158.358 42.2201 158.264 42.334 158.258H42.3407C42.4546 158.258 42.5484 158.345 42.5484 158.458C42.5484 158.505 42.6891 162.694 44.5718 168.096C44.5182 168.477 44.5182 168.877 44.5718 169.297C44.5852 169.404 44.6723 169.477 44.7795 169.477C44.7862 169.477 44.7996 169.477 44.8063 169.477C44.9202 169.464 45.0006 169.357 44.9872 169.244C44.9872 169.237 44.9872 169.23 44.9872 169.224C45.1547 169.657 45.329 170.091 45.5166 170.531C46.9437 173.886 49.2418 177.908 52.8934 181.61C52.9269 181.877 52.9939 182.144 53.0944 182.404ZM45.3759 184.165C45.2687 184.125 45.2151 184.005 45.2486 183.898C45.2888 183.792 45.4094 183.738 45.5166 183.772C45.5635 183.792 49.0744 185.052 52.8063 185.492C52.7728 185.633 52.7393 185.766 52.7125 185.906C49.0073 185.472 45.5769 184.238 45.3759 184.165Z" fill="black"/>
<path d="M53.3627 182.528C53.3359 182.535 53.3158 182.542 53.289 182.542C53.2421 182.542 53.1952 182.522 53.1617 182.495C53.1483 182.482 53.1349 182.475 53.1282 182.462C53.1148 182.448 53.1081 182.428 53.0947 182.408C52.9942 182.148 52.9272 181.881 52.8803 181.615C52.3711 178.76 54.4548 175.671 54.5486 175.525C54.6156 175.431 54.7429 175.405 54.8367 175.471C54.9305 175.538 54.9573 175.665 54.8903 175.758C54.8635 175.791 52.4649 179.36 53.4565 182.188C53.4632 182.215 53.4699 182.242 53.4833 182.268C53.5235 182.368 53.4699 182.488 53.3627 182.528ZM48.5051 176.192C48.5721 176.285 48.5453 176.412 48.4515 176.478C48.418 176.505 48.3711 176.518 48.3309 176.518C48.2706 176.518 48.2103 176.492 48.1634 176.438L48.1567 176.432C46.2739 173.75 40.1232 172.316 40.0629 172.303C39.949 172.276 39.882 172.163 39.9088 172.056C39.9356 171.943 40.0495 171.876 40.1567 171.903C40.3711 171.949 44.6592 172.957 47.2186 174.918C47.7413 175.298 48.1768 175.725 48.5051 176.192ZM44.7932 169.475C44.7865 169.475 44.7731 169.475 44.7664 169.475C44.6659 169.475 44.5721 169.401 44.5587 169.295C44.5051 168.874 44.5051 168.474 44.5587 168.094C44.9272 165.366 47.7346 163.778 47.8686 163.705C47.9691 163.652 48.0964 163.685 48.15 163.785C48.2036 163.885 48.1701 164.012 48.0696 164.065C48.0361 164.085 44.5654 166.053 44.9674 169.215C44.9674 169.221 44.9674 169.228 44.9674 169.235C44.9875 169.355 44.9071 169.461 44.7932 169.475ZM68.2236 187.478C68.2236 188.185 68.1231 188.878 67.9355 189.552H53.2689C53.0746 188.878 52.9808 188.185 52.9808 187.478C52.9808 183.295 56.3979 179.887 60.6056 179.887C64.7999 179.887 68.2236 183.295 68.2236 187.478Z" fill="black"/>
<path d="M52.9135 189.821C52.8867 189.741 52.8666 189.661 52.8465 189.581C52.8331 189.541 52.8264 189.501 52.813 189.461C52.7728 189.314 52.7393 189.167 52.7125 189.021C52.612 188.514 52.5651 188 52.5651 187.48C52.5651 186.939 52.6187 186.419 52.7192 185.906C52.746 185.765 52.7795 185.625 52.813 185.492C53.0341 184.645 53.3893 183.851 53.8516 183.137C53.932 183.017 54.0124 182.897 54.0995 182.777C55.5601 180.776 57.932 179.469 60.5986 179.469C63.138 179.469 65.4026 180.649 66.8834 182.484C67.0107 182.644 67.138 182.811 67.2586 182.984C68.1296 184.265 68.6455 185.805 68.6455 187.466C68.6455 188.16 68.5584 188.847 68.3775 189.514C68.3507 189.614 68.3239 189.708 68.2971 189.808C68.277 189.861 68.2368 189.908 68.1899 189.928C68.1631 189.941 68.1296 189.954 68.0961 189.954H55.6472H53.1213C53.0208 189.968 52.9403 189.908 52.9135 189.821ZM52.9739 187.48C52.9739 188.187 53.0743 188.88 53.2619 189.554H67.9286C68.1229 188.88 68.2167 188.187 68.2167 187.48C68.2167 183.297 64.7996 179.889 60.5919 179.889C56.3976 179.889 52.9739 183.297 52.9739 187.48Z" fill="black"/>
<path d="M102.04 171.14C101.999 171.14 98.2041 171.081 93.3296 169.384C90.4659 168.389 87.7959 167.033 85.3903 165.355C82.3814 163.257 79.7821 160.643 77.6669 157.591C77.6446 157.561 77.6371 157.524 77.6409 157.487C77.6446 157.468 77.7079 156.985 77.8419 156.143C77.3429 156.711 76.3301 157.973 75.2799 159.919C73.9207 162.436 72.2226 166.647 71.8428 172.414V189.386H108.892C108.534 187.909 105.983 177.701 102.055 171.14C102.051 171.14 102.047 171.14 102.04 171.14Z" fill="black"/>
<path d="M71.6968 189.385H71.8458V172.413C72.2256 166.65 73.9237 162.435 75.2829 159.918C76.333 157.972 77.3459 156.71 77.8449 156.142C77.871 155.978 77.8971 155.804 77.9306 155.614C77.7072 155.841 76.415 157.2 75.0297 159.766C73.7859 162.064 72.2628 165.762 71.6968 170.76C71.6372 171.291 71.5851 171.841 71.5479 172.401V189.53C71.5479 189.449 71.6149 189.385 71.6968 189.385ZM102.151 171.091C102.128 171.117 102.095 171.132 102.058 171.139C105.986 177.7 108.537 187.908 108.895 189.385H109.196C108.906 188.179 106.314 177.659 102.281 170.946C102.203 171.035 102.154 171.083 102.151 171.091ZM125.049 111.673C125.108 110.525 124.758 109.534 124.01 108.725C123.85 109.07 123.652 109.404 123.418 109.72C123.317 111.576 123.079 114.317 122.494 116.845C123.876 115.364 124.959 113.459 125.049 111.673ZM115.315 122.898C114.477 122.749 113.914 122.597 113.665 122.452C113.401 122.679 112.566 123.418 111.695 124.465C112.161 124.791 112.604 125.126 113.028 125.467C113.631 124.751 114.428 123.837 115.315 122.898Z" fill="black"/>
<path d="M124.01 108.721C124.758 109.534 125.108 110.522 125.049 111.669C124.956 113.459 123.876 115.36 122.494 116.842C122.45 117.027 122.405 117.213 122.36 117.399C123.946 115.828 125.242 113.689 125.347 111.688C125.41 110.429 124.997 109.319 124.14 108.432C124.095 108.528 124.054 108.625 124.01 108.721ZM113.256 125.653C113.885 124.906 114.727 123.941 115.665 122.957C115.546 122.938 115.427 122.916 115.319 122.897C114.429 123.837 113.635 124.75 113.032 125.467C113.107 125.53 113.181 125.589 113.256 125.653Z" fill="black"/>
<path d="M113.48 158.516L116.128 155.802C116.08 155.757 116.069 155.683 116.102 155.623C117.201 153.752 119.256 151.713 122.235 149.537C122.801 143.492 121.647 138.806 120.254 135.528C118.776 132.052 116.839 129.654 115.573 128.324L115.841 151.034C115.864 151.034 115.886 151.038 115.908 151.049C115.983 151.086 116.013 151.171 115.975 151.246C115.558 152.096 115.112 152.942 114.642 153.785C114.657 154.959 114.415 156.559 113.48 158.516Z" fill="white"/>
<path d="M115.663 128.217C115.637 128.239 115.604 128.25 115.57 128.25V128.325C116.836 129.65 118.773 132.049 120.251 135.528C121.644 138.803 122.798 143.488 122.232 149.537C122.34 149.455 122.452 149.377 122.563 149.296C122.657 148.252 122.698 147.224 122.69 146.21C122.664 142.363 121.93 138.725 120.515 135.398C118.989 131.811 116.974 129.357 115.693 128.031C115.73 128.091 115.719 128.169 115.663 128.217Z" fill="#333333"/>
<path d="M144.503 143.751C144.846 143.617 145.482 143.439 146.283 143.216C147.199 142.96 148.331 142.645 149.482 142.27C149.448 142.277 149.418 142.281 149.385 142.288C149.128 142.333 148.875 142.377 148.621 142.422C147.72 142.578 146.797 142.737 145.884 142.949C145.579 143.02 145.274 143.094 144.972 143.176C144.268 143.387 143.609 143.744 142.917 144.122C142.615 144.286 142.306 144.456 141.989 144.612C141.986 144.612 141.986 144.616 141.982 144.616C141.885 144.661 141.788 144.705 141.692 144.75C141.461 144.861 141.237 144.98 141.018 145.103C141.159 145.292 141.297 145.492 141.438 145.708C142.541 144.869 143.725 144.052 144.503 143.751Z" fill="black"/>
<path d="M149.384 142.289C149.417 142.281 149.447 142.278 149.481 142.27C148.334 142.645 147.198 142.961 146.282 143.217C145.478 143.44 144.845 143.618 144.502 143.752C143.724 144.056 142.54 144.869 141.434 145.705C141.486 145.786 141.542 145.868 141.594 145.953C142.577 145.207 143.623 144.476 144.368 144.127C144.45 144.086 144.532 144.052 144.606 144.023C144.934 143.893 145.563 143.718 146.36 143.499C147.783 143.102 149.734 142.56 151.45 141.869C151.443 141.873 151.436 141.873 151.428 141.877C150.758 142.036 150.065 142.166 149.384 142.289ZM141.985 144.613C141.884 144.658 141.787 144.702 141.691 144.75C141.787 144.706 141.884 144.661 141.981 144.617C141.981 144.617 141.981 144.613 141.985 144.613Z" fill="black"/>
<path d="M140.838 144.864C141.169 144.679 141.505 144.504 141.858 144.348C142.164 144.196 142.473 144.029 142.771 143.866C143.478 143.479 144.148 143.112 144.889 142.893C146.115 142.559 147.362 142.343 148.569 142.132C149.488 141.972 150.438 141.809 151.35 141.593C153.48 140.735 154.757 139.852 154.85 139.165C154.884 138.92 154.761 138.693 154.478 138.474C151.19 135.964 144.417 137.966 144.35 137.988C144.286 138.006 144.219 137.984 144.186 137.928C144.148 137.876 144.152 137.806 144.193 137.754C145.016 136.744 146.077 135.159 145.854 134.787C145.794 134.691 145.578 134.717 145.455 134.743C144.472 134.936 141.817 136.792 140.023 139.792C139.386 140.854 138.589 141.667 137.833 142.273C138.704 142.703 139.769 143.476 140.838 144.864Z" fill="white"/>
<path d="M137.528 142.129C137.629 142.17 137.729 142.218 137.834 142.27C138.59 141.669 139.386 140.856 140.023 139.79C141.822 136.79 144.477 134.937 145.456 134.74C145.579 134.714 145.795 134.688 145.855 134.785C146.078 135.156 145.017 136.742 144.194 137.752C144.153 137.8 144.149 137.874 144.186 137.926C144.224 137.978 144.291 138.004 144.35 137.985C144.417 137.963 151.191 135.962 154.479 138.472C154.762 138.687 154.885 138.914 154.851 139.163C154.758 139.849 153.481 140.733 151.351 141.591C150.438 141.802 149.485 141.97 148.569 142.129C147.363 142.337 146.115 142.556 144.89 142.89C144.153 143.109 143.483 143.477 142.771 143.863C142.473 144.027 142.164 144.194 141.859 144.346C141.505 144.502 141.166 144.676 140.839 144.862C140.898 144.94 140.958 145.018 141.017 145.1C141.237 144.977 141.461 144.858 141.691 144.747C141.788 144.699 141.889 144.654 141.986 144.609C142.302 144.45 142.615 144.283 142.913 144.119C143.609 143.741 144.265 143.38 144.968 143.173C145.27 143.091 145.575 143.017 145.881 142.946C146.797 142.738 147.72 142.578 148.618 142.419C148.871 142.374 149.124 142.33 149.381 142.285C150.066 142.163 150.755 142.033 151.429 141.877C151.436 141.877 151.444 141.873 151.451 141.869C153.056 141.223 155 140.236 155.142 139.203C155.19 138.847 155.026 138.524 154.657 138.242C151.708 135.992 146.29 137.172 144.704 137.584C145.303 136.808 146.447 135.201 146.108 134.636C145.992 134.443 145.754 134.384 145.4 134.454C144.566 134.622 142.969 135.672 141.472 137.339C140.868 138.011 140.28 138.787 139.77 139.641C139.126 140.718 138.299 141.535 137.528 142.129Z" fill="#333333"/>
<path d="M112.526 160.235C109.681 164.735 107.644 166.053 107.019 166.376C107.186 168.344 107.912 172.447 111.048 172.629C111.052 172.629 111.055 172.629 111.059 172.629C111.431 172.681 111.83 172.703 112.243 172.703C119.654 172.703 133.618 164.813 139.424 152.203C138.001 152.017 134.855 150.261 134.713 150.183C134.642 150.142 134.616 150.053 134.657 149.982C134.698 149.912 134.788 149.886 134.858 149.927C134.892 149.945 138.269 151.832 139.554 151.921C140.362 150.12 141.003 148.226 141.431 146.247C138.962 142.211 136.195 142.029 135.89 142.021C135.126 142.371 120.164 149.277 116.351 155.768C116.31 155.838 116.22 155.86 116.15 155.82C116.138 155.812 116.131 155.805 116.12 155.797L113.472 158.512C113.219 159.061 112.906 159.633 112.526 160.235ZM139.044 148.141C139.044 148.512 138.742 148.813 138.37 148.813C137.998 148.813 137.696 148.512 137.696 148.141C137.696 147.769 137.998 147.469 138.37 147.469C138.742 147.472 139.044 147.773 139.044 148.141Z" fill="white"/>
<path d="M122.234 149.537C119.255 151.713 117.2 153.751 116.101 155.623C116.068 155.682 116.079 155.756 116.127 155.801C116.135 155.808 116.146 155.816 116.157 155.823C116.228 155.864 116.317 155.842 116.358 155.771C120.168 149.281 135.134 142.374 135.897 142.025C136.203 142.033 138.966 142.214 141.438 146.251C141.006 148.23 140.366 150.124 139.562 151.924C139.591 151.928 139.625 151.928 139.655 151.928C139.737 151.928 139.804 151.995 139.804 152.077C139.804 152.158 139.737 152.225 139.655 152.225C139.588 152.225 139.513 152.218 139.435 152.21C133.629 164.824 119.669 172.711 112.254 172.711C111.837 172.711 111.443 172.685 111.07 172.636C111.066 172.636 111.063 172.636 111.059 172.636C107.923 172.454 107.197 168.355 107.03 166.383C106.914 166.443 106.847 166.469 106.832 166.476C106.817 166.484 106.799 166.484 106.78 166.484C106.765 166.484 106.754 166.48 106.739 166.476C106.799 167.163 106.925 168.084 107.186 169.009C107.879 171.463 109.212 172.818 111.037 172.926C111.428 172.978 111.837 173.004 112.265 173.004C116.552 173.004 122.715 170.449 128.118 166.35C132.266 163.205 139.55 156.41 141.74 146.262C141.747 146.225 141.74 146.188 141.721 146.154C141.68 146.087 141.643 146.024 141.602 145.961C141.55 145.876 141.494 145.794 141.442 145.712C141.304 145.501 141.163 145.3 141.021 145.107C140.962 145.025 140.902 144.947 140.843 144.869C139.774 143.481 138.709 142.708 137.837 142.278C137.733 142.226 137.629 142.177 137.532 142.137C136.579 141.724 135.92 141.735 135.86 141.739C135.841 141.739 135.823 141.743 135.804 141.75C135.763 141.769 131.827 143.551 127.459 146.139C125.631 147.224 123.999 148.278 122.569 149.303C122.454 149.373 122.346 149.455 122.234 149.537Z" fill="#333333"/>
<path d="M112.276 160.077C113.781 157.697 114.261 155.744 114.336 154.322C112.016 158.403 109.238 162.294 106.918 165.302V166.096C107.532 165.758 109.536 164.418 112.276 160.077Z" fill="black"/>
<path d="M106.82 166.469C106.835 166.465 106.902 166.439 107.018 166.376C107.643 166.053 109.68 164.735 112.525 160.235C112.905 159.633 113.218 159.061 113.478 158.516C114.413 156.559 114.655 154.958 114.637 153.785C114.536 153.963 114.435 154.145 114.335 154.324C114.26 155.746 113.78 157.695 112.276 160.079C109.535 164.419 107.532 165.76 106.917 166.097V165.303C106.817 165.433 106.72 165.559 106.623 165.682V166.331C106.623 166.38 106.645 166.424 106.686 166.45C106.701 166.461 106.716 166.465 106.731 166.469C106.746 166.472 106.757 166.476 106.772 166.476C106.787 166.476 106.806 166.472 106.82 166.469Z" fill="black"/>
<path d="M77.6821 157.87L77.6903 157.812C77.7912 157.093 78.8611 149.651 81.1428 141.547C81.4933 140.301 81.8551 139.097 82.2281 137.943L82.2452 137.891L82.2925 137.862C83.9836 136.826 85.469 135.981 86.536 135.393C87.0695 135.099 87.4985 134.869 87.7964 134.712C87.9042 134.655 87.9948 134.608 88.0671 134.57L87.9059 134.168L88.2873 134.396C88.2874 134.396 88.2911 134.398 88.3002 134.4C88.3105 134.403 88.3245 134.404 88.3422 134.405C88.3767 134.407 88.4165 134.405 88.4551 134.4C88.4598 134.367 88.4659 134.329 88.4731 134.286C88.4967 134.146 88.5341 133.947 88.5807 133.709C88.6739 133.232 88.8048 132.596 88.9377 131.96C89.0707 131.324 89.2058 130.688 89.3077 130.21C89.3587 129.971 89.4013 129.772 89.4312 129.633L89.466 129.471L89.4752 129.429L89.4775 129.418L89.4781 129.415L89.4783 129.414L89.4783 129.414L89.625 129.446L89.4783 129.414L89.5116 129.26L89.6638 129.301C90.5295 129.533 92.0656 129.884 93.8561 130.028L93.8562 130.028C96.0532 130.205 99.0134 130.088 101.524 128.763L101.649 128.697L101.722 128.819C103.171 131.246 105.521 133.377 105.715 133.552C105.715 133.552 105.716 133.553 105.716 133.553L77.6821 157.87ZM77.6821 157.87L77.7158 157.918C82.4834 164.766 88.8001 168.056 93.266 169.611L93.3153 169.47M77.6821 157.87L93.3153 169.47M93.3153 169.47L93.266 169.611C97.7648 171.177 101.337 171.346 101.872 171.361L101.942 171.363L101.988 171.311C102.677 170.539 111.053 161.073 115.744 151.548M93.3153 169.47L115.744 151.548M115.744 151.548H115.892L115.891 151.396L115.622 128.688V128.687V128.614V128.464H115.474C114.407 127.224 113.083 126.046 111.5 124.934L111.385 124.853L111.297 124.963C110.43 126.04 109.548 127.418 109.164 128.899L109.16 128.915L109.16 128.931C109.075 130.938 108.543 132.298 107.627 133.019L107.627 133.019C107.024 133.493 106.401 133.577 106.032 133.577C105.845 133.577 105.732 133.556 105.726 133.555L105.726 133.555L105.719 133.553L105.717 133.553L115.744 151.548Z" fill="white" stroke="black" stroke-width="0.3"/>
<path d="M74.9003 143.553C76.3861 141.756 78.341 140.022 80.713 138.407C84.7458 135.659 88.6371 134.178 88.6781 134.163C88.6855 134.159 88.693 134.159 88.6967 134.159L89.7244 129.08C89.4079 128.994 89.1808 128.928 89.0579 128.887C88.6185 129.436 85.9523 132.667 82.2025 135.21C79.7895 136.844 77.4064 137.883 75.1125 138.295C74.3566 138.433 73.6119 138.5 72.8783 138.5C72.4575 138.5 72.0442 138.477 71.6309 138.433V150.121C72.0628 147.871 73.1576 145.662 74.9003 143.553Z" fill="white"/>
<path d="M71.4802 151.626C71.7915 146.568 76.4632 142.16 80.3267 139.357C80.7527 139.045 81.1804 138.748 81.6013 138.465C81.7389 138.373 81.8728 138.284 82.0066 138.195C85.5788 135.836 88.7203 134.432 88.7563 134.414C88.8368 134.377 88.8736 134.293 88.832 134.228C88.795 134.166 88.7072 134.142 88.6297 134.168C88.6213 134.169 88.6133 134.174 88.6091 134.174C88.5689 134.193 84.3507 136.079 80.1157 139.152C77.6247 140.959 75.6152 142.817 74.1409 144.677C72.4114 146.857 71.421 149.039 71.1811 151.178C71.165 151.329 71.1527 151.477 71.1408 151.628C71.1372 151.705 71.2081 151.766 71.2972 151.766C71.3056 151.765 71.314 151.764 71.3223 151.763C71.4103 151.753 71.4758 151.696 71.4802 151.626Z" fill="black"/>
<path d="M105.882 133.054C106.064 133.076 106.884 133.139 107.639 132.537C108.537 131.828 109.032 130.484 109.114 128.546C109.114 128.535 109.118 128.527 109.118 128.516C109.889 125.505 112.6 122.983 113.367 122.319C112.924 122.148 112.771 121.977 112.752 121.955C112.7 121.892 112.708 121.799 112.771 121.747C112.834 121.695 112.924 121.702 112.976 121.762C112.983 121.769 113.158 121.955 113.702 122.122C113.717 122.126 113.728 122.133 113.739 122.141C113.743 122.141 113.743 122.144 113.747 122.144C113.758 122.152 113.769 122.163 113.776 122.174C113.821 122.211 114.305 122.538 117.56 122.92C118.349 122.991 119.076 122.731 119.712 122.148C122.118 119.954 122.859 113.712 123.086 110.121C123.027 110.192 122.963 110.258 122.9 110.329C120.856 112.483 117.214 113.47 114.521 113.92C111.996 114.339 109.811 114.38 109.259 114.384C109.192 114.918 108.894 117.024 108.112 119.471C107.278 122.085 105.703 125.642 102.947 127.729C102.627 127.97 102.296 128.186 101.953 128.382C103.353 130.703 105.588 132.782 105.882 133.054Z" fill="white"/>
<path d="M122.495 116.842C123.08 114.314 123.322 111.577 123.418 109.717C123.318 109.854 123.206 109.992 123.091 110.125C122.864 113.716 122.123 119.958 119.717 122.152C119.08 122.735 118.354 122.995 117.565 122.924C114.31 122.542 113.826 122.215 113.781 122.178C113.807 122.215 113.818 122.264 113.803 122.308C113.785 122.371 113.725 122.412 113.662 122.412C113.647 122.412 113.632 122.408 113.617 122.405C113.524 122.375 113.442 122.349 113.368 122.319C112.601 122.984 109.89 125.505 109.119 128.516C109.115 128.528 109.115 128.535 109.115 128.546C109.033 130.484 108.538 131.829 107.64 132.538C106.884 133.136 106.065 133.076 105.883 133.054C105.589 132.783 103.35 130.7 101.958 128.383C101.868 128.431 101.783 128.483 101.693 128.528C103.168 130.997 105.559 133.158 105.719 133.299C105.737 133.318 105.764 133.329 105.79 133.332C105.805 133.336 105.931 133.358 106.132 133.358C106.523 133.358 107.182 133.269 107.819 132.768C108.787 132.007 109.32 130.592 109.409 128.568C109.785 127.113 110.649 125.758 111.513 124.688C111.577 124.61 111.636 124.536 111.699 124.462C112.575 123.415 113.405 122.676 113.669 122.449C113.919 122.594 114.481 122.746 115.319 122.895C115.431 122.913 115.546 122.936 115.665 122.954C116.198 123.04 116.823 123.129 117.538 123.21C118.417 123.288 119.218 123.002 119.922 122.364C120.95 121.428 121.679 119.82 122.201 117.997C122.257 117.8 122.312 117.6 122.365 117.396C122.406 117.217 122.45 117.032 122.495 116.842Z" fill="#333333"/>
<path d="M67.1387 136.652C69.0639 137.758 70.9929 138.197 72.8511 138.197C76.3553 138.197 79.5951 136.626 82.0305 134.974C86.0895 132.222 88.8638 128.661 88.8899 128.628C88.9271 128.58 88.9941 128.557 89.0537 128.58C89.1394 128.609 97.6224 131.405 102.776 127.499C107.945 123.585 108.98 114.321 108.988 114.225C108.995 114.15 109.062 114.091 109.137 114.095C109.233 114.095 118.875 114.147 122.692 110.129C123.816 108.948 124.33 107.511 124.226 105.866C124.01 104.481 122.185 102.591 119.228 101.811C117.031 101.232 111.345 100.62 105.949 107.422C105.923 107.455 105.878 107.478 105.837 107.478C105.793 107.481 105.752 107.459 105.722 107.426C103.785 105.127 101.659 104.18 99.4098 104.611C95.7158 105.317 92.6733 109.624 91.7796 112.312C91.7647 112.357 91.7275 112.394 91.6791 112.409C91.6344 112.424 91.5822 112.413 91.545 112.379C86.4172 108.131 76.5713 105.079 68.9708 107.325C64.208 108.733 61.0054 111.956 59.4526 116.913C59.4191 117.065 58.6929 120.425 59.2515 124.473C59.7728 128.264 61.5678 133.455 67.1387 136.652Z" fill="black"/>
<path d="M72.8775 138.505C73.6111 138.505 74.3559 138.438 75.1118 138.3C77.402 137.888 79.789 136.849 82.2021 135.215C85.9558 132.671 88.6183 129.441 89.0578 128.891C89.1806 128.928 89.4078 128.999 89.7243 129.084C90.5994 129.318 92.1411 129.671 93.9435 129.816C96.1518 129.994 99.1458 129.875 101.693 128.535C101.782 128.487 101.872 128.438 101.957 128.39C102.3 128.197 102.631 127.982 102.952 127.737C105.711 125.65 107.282 122.093 108.117 119.479C108.899 117.032 109.193 114.926 109.264 114.391C109.811 114.388 112.001 114.347 114.525 113.927C117.218 113.478 120.86 112.49 122.904 110.337C122.967 110.27 123.031 110.199 123.09 110.129C123.206 109.995 123.314 109.858 123.418 109.72C123.653 109.405 123.85 109.071 124.01 108.725C124.055 108.629 124.096 108.532 124.137 108.432C124.45 107.637 124.58 106.776 124.52 105.848C124.52 105.844 124.52 105.84 124.52 105.836C124.248 104.069 122.059 102.261 119.307 101.537C117.069 100.946 111.301 100.319 105.834 107.11C103.853 104.823 101.674 103.891 99.358 104.333C95.5969 105.053 92.588 109.193 91.5714 112.03C88.9907 109.947 85.2855 108.187 81.3605 107.188C78.1952 106.382 73.4621 105.703 68.8892 107.054C66.6065 107.726 64.6403 108.84 63.0502 110.363C61.2999 112.037 59.9928 114.217 59.1736 116.838C59.1736 116.842 59.1699 116.846 59.1699 116.85C59.1624 116.883 58.3879 120.336 58.9613 124.51C59.3002 126.964 60.0301 129.185 61.1361 131.112C62.5176 133.522 64.4876 135.475 66.9975 136.912C68.4759 137.758 70.025 138.271 71.6374 138.442C72.0433 138.482 72.4567 138.505 72.8775 138.505ZM59.4529 116.913C61.0057 111.956 64.2046 108.733 68.9711 107.325C76.5716 105.083 86.4212 108.135 91.5453 112.379C91.5825 112.409 91.6347 112.42 91.6794 112.409C91.7278 112.394 91.765 112.36 91.7799 112.312C92.6736 109.624 95.7161 105.317 99.4101 104.611C101.663 104.18 103.786 105.127 105.722 107.426C105.752 107.459 105.793 107.481 105.838 107.478C105.882 107.478 105.923 107.455 105.949 107.422C111.341 100.619 117.032 101.232 119.229 101.811C122.185 102.591 124.01 104.481 124.226 105.866C124.33 107.511 123.816 108.948 122.692 110.129C118.875 114.146 109.234 114.094 109.137 114.094C109.062 114.091 108.995 114.15 108.988 114.224C108.977 114.317 107.945 123.582 102.777 127.499C97.6227 131.401 89.1397 128.605 89.054 128.579C88.9944 128.561 88.9274 128.579 88.8902 128.628C88.8641 128.665 86.0898 132.222 82.0308 134.973C79.5954 136.626 76.3556 138.197 72.8514 138.197C70.9932 138.197 69.0642 137.755 67.139 136.652C61.568 133.455 59.7769 128.264 59.2518 124.473C58.6932 120.425 59.4194 117.065 59.4529 116.913Z" fill="black"/>
<path d="M138.373 147.473C138.001 147.473 137.699 147.773 137.699 148.145C137.699 148.516 138.001 148.817 138.373 148.817C138.746 148.817 139.047 148.516 139.047 148.145C139.043 147.773 138.742 147.473 138.373 147.473Z" fill="#45BE86"/>
<path d="M113.766 122.147C113.762 122.147 113.762 122.143 113.759 122.143C113.747 122.136 113.736 122.128 113.721 122.125C113.178 121.958 113.003 121.772 112.995 121.764C112.943 121.705 112.85 121.698 112.79 121.75C112.727 121.802 112.72 121.894 112.772 121.958C112.79 121.98 112.947 122.151 113.386 122.321C113.461 122.351 113.543 122.381 113.636 122.407C113.651 122.411 113.666 122.414 113.68 122.414C113.744 122.414 113.803 122.373 113.822 122.31C113.837 122.262 113.826 122.214 113.8 122.18C113.788 122.165 113.781 122.154 113.766 122.147ZM134.679 149.981C134.638 150.051 134.665 150.14 134.735 150.181C134.877 150.259 138.023 152.019 139.446 152.201C139.524 152.212 139.599 152.216 139.666 152.216C139.748 152.216 139.815 152.149 139.815 152.068C139.815 151.986 139.748 151.919 139.666 151.919C139.636 151.919 139.606 151.915 139.573 151.915C138.288 151.826 134.91 149.94 134.877 149.921C134.806 149.888 134.717 149.91 134.679 149.981Z" fill="black"/>
<path d="M205.192 60.649C205.184 61.5828 204.826 62.3547 204.086 62.9846C200.935 65.6811 192.17 64.7685 190.876 64.6279C190.444 63.4404 187.791 55.6219 189.889 51.8799C190.454 50.8653 191.351 50.2315 192.538 49.997C193.258 49.8579 193.908 49.8557 194.488 49.997C194.975 50.1156 195.41 50.3332 195.794 50.6432C197.828 52.298 197.871 56.1283 197.868 56.1695C197.868 56.2535 197.912 56.334 197.984 56.3865C198.058 56.4323 198.146 56.4469 198.231 56.4186C198.262 56.4053 201.602 55.2562 203.621 56.6838C204.676 57.4296 205.207 58.76 205.192 60.649Z" fill="#16AE68"/>
<path d="M188.898 174.571C189.186 174.706 189.485 174.858 189.779 175.022C191.972 170.677 196.505 167.882 201.394 167.882C208.554 167.882 214.381 173.692 214.381 180.832C214.381 184.202 213.104 187.358 210.781 189.781H214.155C215.489 188.795 217.377 182.292 215.777 176.115C214.449 170.987 210.42 164.709 198.749 163.937C196.477 163.785 194.108 164.252 191.294 165.396C191.215 165.43 191.124 165.413 191.062 165.357C187.677 162.364 183.376 160.634 178.877 160.426C179.533 160.848 180.166 161.305 180.776 161.795C184.817 165.036 187.699 169.567 188.898 174.571Z" fill="black"/>
<path d="M198.776 163.493C198.521 163.476 198.261 163.47 198.007 163.464C197.832 163.464 197.657 163.464 197.481 163.47C195.565 163.532 193.553 164.006 191.253 164.93C190.496 164.27 189.699 163.673 188.862 163.143C188.721 163.053 188.58 162.963 188.439 162.878C185.347 161.007 181.786 159.993 178.124 159.965C178.378 160.117 178.627 160.269 178.87 160.427C183.375 160.63 187.67 162.36 191.055 165.358C191.117 165.414 191.208 165.431 191.287 165.397C194.096 164.253 196.464 163.786 198.742 163.938C210.413 164.71 214.442 170.988 215.771 176.116C217.37 182.293 215.482 188.79 214.148 189.782H214.216C214.341 189.782 214.442 189.884 214.442 190.008C214.442 190.087 214.403 190.149 214.346 190.194C215.234 189.619 216.223 187.224 216.635 184.119C216.957 181.678 216.929 178.793 216.206 176.015C215.804 174.459 215.16 172.797 214.143 171.213C212.939 169.331 211.21 167.556 208.745 166.175C208.593 166.091 208.44 166.006 208.282 165.927C205.857 164.648 202.749 163.758 198.776 163.493ZM214.295 190.211C214.29 190.211 214.284 190.216 214.284 190.216C214.284 190.216 214.29 190.216 214.295 190.211Z" fill="black"/>
<path d="M213.941 180.833C213.941 173.935 208.312 168.328 201.4 168.328C196.601 168.328 192.159 171.117 190.085 175.434C190.056 175.491 190.011 175.53 189.949 175.553C189.893 175.57 189.825 175.564 189.774 175.536C189.384 175.31 188.994 175.113 188.621 174.938C188.559 174.91 188.514 174.854 188.497 174.786C186.055 164.377 176.86 157.113 166.127 157.113C153.461 157.113 143.152 167.387 143.152 180.022C143.152 183.437 143.887 186.722 145.34 189.788H160.809H210.165C212.596 187.404 213.941 184.231 213.941 180.833Z" fill="white"/>
<path d="M142.694 180.009C142.694 183.419 143.418 186.704 144.842 189.776H145.334C143.881 186.71 143.146 183.424 143.146 180.009C143.146 167.38 153.455 157.101 166.121 157.101C176.854 157.101 186.055 164.371 188.491 174.774C188.508 174.842 188.553 174.898 188.615 174.926C188.994 175.101 189.378 175.298 189.768 175.523C189.825 175.552 189.887 175.563 189.943 175.54C190 175.523 190.051 175.478 190.079 175.422C192.153 171.105 196.595 168.316 201.394 168.316C208.312 168.316 213.935 173.923 213.935 180.821C213.935 184.219 212.596 187.392 210.154 189.77H210.781C213.104 187.352 214.382 184.196 214.382 180.821C214.382 173.681 208.555 167.87 201.394 167.87C196.505 167.87 191.972 170.666 189.779 175.011C189.48 174.847 189.186 174.695 188.898 174.56C187.699 169.555 184.817 165.025 180.77 161.784C180.16 161.294 179.527 160.843 178.871 160.415C178.623 160.257 178.374 160.099 178.125 159.953C176.379 158.916 174.508 158.11 172.558 157.552C170.473 156.954 168.303 156.645 166.115 156.645C153.201 156.656 142.694 167.132 142.694 180.009Z" fill="#333333"/>
<line x1="67.3438" y1="189.764" x2="214.817" y2="189.764" stroke="black" stroke-width="0.5"/>
<path d="M215.39 72.9461L215.25 72.5823L215.11 72.9461L214.162 75.4115L211.696 76.3603L211.333 76.5002L211.696 76.6403L214.16 77.5898L215.11 80.0539L215.25 80.4174L215.39 80.0539L216.339 77.5886L218.804 76.6403L219.168 76.5004L218.804 76.3603L216.339 75.4115L215.39 72.9461Z" stroke="black" stroke-width="0.3"/>
<path d="M128.39 59.9461L128.25 59.5823L128.11 59.9461L127.717 60.9672L126.696 61.3601L126.333 61.5001L126.696 61.6401L127.717 62.0334L128.11 63.0539L128.25 63.4174L128.39 63.0539L128.783 62.0329L129.804 61.6401L130.168 61.5002L129.804 61.3601L128.783 60.9672L128.39 59.9461Z" stroke="black" stroke-width="0.3"/>
</svg>
