<svg width="68" height="69" viewBox="0 0 68 69" fill="none" xmlns="http://www.w3.org/2000/svg">
<g filter="url(#filter0_d_3849_13400)">
<mask id="mask0_3849_13400" style="mask-type:alpha" maskUnits="userSpaceOnUse" x="4" y="1" width="60" height="60">
<rect x="4" y="1" width="60" height="60" rx="30" fill="#C4C4C4"/>
</mask>
<g mask="url(#mask0_3849_13400)">
<path d="M54.7355 0H13.2645C7.59555 0 3 4.59555 3 10.2645V51.7355C3 57.4044 7.59555 62 13.2645 62H54.7355C60.4044 62 65 57.4044 65 51.7355V10.2645C65 4.59555 60.4044 0 54.7355 0Z" fill="#EFD925"/>
<path d="M33.994 15C25.1611 15 18 21.6541 18 29.8623C18 34.7118 20.4987 39.0151 24.3644 41.728V48.2524C24.3648 48.2972 24.3773 48.3411 24.4007 48.3794C24.4241 48.4177 24.4574 48.4489 24.4972 48.4696C24.5318 48.4871 24.57 48.4964 24.6088 48.4968C24.6606 48.4971 24.7112 48.4812 24.7537 48.4515L30.4874 44.3625C31.6445 44.6049 32.8238 44.7262 34.006 44.7246C42.8389 44.7246 50 38.0705 50 29.8623C50 21.6541 42.8269 15 33.994 15Z" fill="#181818"/>
<path d="M43.9294 28.1426C43.3862 27.5391 42.5835 27.2554 41.5423 27.2554C40.9979 27.2477 40.4602 27.3774 39.9792 27.6326C39.6464 27.8094 39.3414 28.0341 39.0738 28.2995V23.4893H36.8105V36.2392H39.0557V31.4742C39.0504 31.1135 39.1055 30.7544 39.2187 30.4119C39.3118 30.1255 39.4582 29.8593 39.6502 29.6273C39.8225 29.4233 40.0365 29.2586 40.2779 29.1445C40.5157 29.0324 40.7755 28.9747 41.0384 28.9755C41.2333 28.9635 41.4287 28.9904 41.6131 29.0547C41.7976 29.1189 41.9674 29.2192 42.1127 29.3497C42.3632 29.6002 42.4899 30.0589 42.4899 30.7228V36.2392H44.7351V30.8073C44.7442 29.6273 44.4605 28.7311 43.9294 28.1426Z" fill="#F1D824"/>
<path d="M29.1741 26.138C29.9327 26.1458 30.6708 26.3856 31.289 26.8253C31.9073 27.265 32.3761 27.8834 32.6324 28.5974H35.0466C34.7657 27.2418 34.0306 26.0225 32.9628 25.1413C31.895 24.2601 30.5585 23.7696 29.1741 23.751C25.8546 23.751 23.1387 26.5484 23.1387 30.0007C23.1387 33.453 25.8365 36.2534 29.1741 36.2534C30.5612 36.2345 31.9 35.7416 32.9682 34.8567C34.0365 33.9718 34.7699 32.7481 35.0466 31.3888H32.6324C32.3762 32.1032 31.9075 32.7221 31.2893 33.1622C30.6711 33.6024 29.933 33.8429 29.1741 33.8513C28.1719 33.8233 27.2202 33.4054 26.5213 32.6866C25.8223 31.9678 25.4313 31.0048 25.4313 30.0022C25.4313 28.9996 25.8223 28.0366 26.5213 27.3178C27.2202 26.599 28.1719 26.1812 29.1741 26.1531V26.138Z" fill="#F1D824"/>
</g>
</g>
<defs>
<filter id="filter0_d_3849_13400" x="0" y="1" width="68" height="68" filterUnits="userSpaceOnUse" color-interpolation-filters="sRGB">
<feFlood flood-opacity="0" result="BackgroundImageFix"/>
<feColorMatrix in="SourceAlpha" type="matrix" values="0 0 0 0 0 0 0 0 0 0 0 0 0 0 0 0 0 0 127 0" result="hardAlpha"/>
<feOffset dy="4"/>
<feGaussianBlur stdDeviation="2"/>
<feComposite in2="hardAlpha" operator="out"/>
<feColorMatrix type="matrix" values="0 0 0 0 0 0 0 0 0 0 0 0 0 0 0 0 0 0 0.1 0"/>
<feBlend mode="normal" in2="BackgroundImageFix" result="effect1_dropShadow_3849_13400"/>
<feBlend mode="normal" in="SourceGraphic" in2="effect1_dropShadow_3849_13400" result="shape"/>
</filter>
</defs>
</svg>
