<svg width="80" height="80" viewBox="0 0 80 80" fill="none" xmlns="http://www.w3.org/2000/svg">
<path d="M45.7621 75.8758C45.7621 74.8133 45.7621 73.9133 45.7621 71.1008C45.813 70.3889 45.7143 69.6742 45.4722 69.0028C45.2302 68.3314 44.8503 67.7181 44.357 67.2024C43.8636 66.6866 43.2677 66.2799 42.6077 66.0084C41.9477 65.7368 41.2381 65.6065 40.5246 65.6258H33.3496C31.2657 65.7518 29.1896 65.2738 27.3706 64.2493C25.5515 63.2248 24.0666 61.6972 23.0941 59.8498C22.1215 58.0023 21.7027 55.9136 21.8877 53.834C22.0727 51.7545 22.8537 49.7725 24.1371 48.1258C26.5246 45.0133 30.3121 44.3758 34.3996 44.3758H54.3996V43.1258H25.9621C22.3786 43.146 18.9209 41.8058 16.2871 39.3758C15.1039 38.3175 14.1581 37.0208 13.5118 35.5709C12.8655 34.121 12.5333 32.5507 12.5371 30.9633C12.5371 25.3258 15.8371 19.4758 23.9496 19.3883H36.2246C36.2246 19.3883 38.4496 19.3883 40.5496 19.3883C44.9246 19.2133 45.6371 18.1383 45.8996 17.7883C46.1621 17.4383 47.3496 16.5383 47.1496 11.8633" stroke="#333333" stroke-width="3" stroke-linecap="round" stroke-linejoin="round"/>
<path d="M57.3376 6.83789C57.5376 11.5129 57.3376 20.9879 53.9251 24.6254C50.5126 28.2629 45.7376 29.0254 41.2501 29.0254H36.2501C33.9126 29.0254 28.2751 29.0254 25.1501 29.0254C23.7126 29.0254 23.2126 29.8004 23.2126 30.2754C23.2032 30.6134 23.2899 30.9472 23.4626 31.2379C24.3652 31.8113 25.4386 32.0543 26.5001 31.9254H55.0001C62.1126 31.9254 66.3626 37.2254 66.3626 42.5254C66.3656 43.9341 66.0761 45.3281 65.5124 46.6192C64.9486 47.9102 64.123 49.0701 63.0876 50.0254C60.7236 52.148 57.6247 53.2647 54.4501 53.1379H35.1751C34.8436 53.1379 34.5256 53.2696 34.2912 53.504C34.0568 53.7384 33.9251 54.0564 33.9251 54.3879C33.9251 54.7194 34.0568 55.0373 34.2912 55.2718C34.5256 55.5062 34.8436 55.6379 35.1751 55.6379H42.7626C46.0001 55.6379 55.2626 57.3129 55.6126 66.7004C55.7376 69.5879 55.6126 71.0879 55.6126 73.0254" stroke="#333333" stroke-width="3" stroke-miterlimit="10" stroke-linecap="round"/>
</svg>
