<svg width="128" height="57" viewBox="0 0 128 57" fill="none" xmlns="http://www.w3.org/2000/svg">
<g clip-path="url(#clip0_1515_20041)">
<path d="M63.9712 31.8446H63.9703C60.8013 31.8446 58.1814 31.1577 56.3959 29.858C54.492 28.4721 53.5265 26.3992 53.5265 23.6961C53.5265 21.229 54.2367 19.8976 55.0592 18.3566C56.0143 16.5678 57.0962 14.5403 57.0962 10.5745V4.88832C57.0962 3.13398 58.4107 1.75954 60.0886 1.75954C61.7662 1.75954 63.0804 3.13398 63.0804 4.88832V16.2607C63.0804 19.0137 65.1766 21.1701 67.8529 21.1701C70.0923 21.1701 71.9206 19.6574 72.4591 17.5508C72.6004 17.8277 72.7423 18.0953 72.8817 18.3566C73.7045 19.8979 74.415 21.229 74.415 23.6961C74.415 30.786 67.8715 31.8446 63.9712 31.8446ZM64.8611 9.30992C65.3681 9.13873 65.9805 9.04916 66.6631 9.04916C69.0367 9.04916 70.8447 10.0659 70.8447 10.5745V16.2607C70.8447 18.0153 69.5305 19.3898 67.8529 19.3898C66.175 19.3898 64.8611 18.0153 64.8611 16.2607V9.30992ZM74.4526 17.5182C73.5539 15.8351 72.6251 14.095 72.6251 10.5745C72.6251 8.53286 69.5303 7.2688 66.6631 7.2688C66.0199 7.2688 65.4135 7.33481 64.8611 7.463V4.88832C64.8611 2.13561 62.7646 -0.0208206 60.0886 -0.0208206C57.4126 -0.0208206 55.3159 2.13561 55.3159 4.88832V10.5745C55.3159 14.095 54.3873 15.8351 53.4887 17.5185C52.6322 19.1235 51.7461 20.7837 51.7461 23.6961C51.7461 26.9544 52.9918 29.5828 55.3484 31.2977C57.4405 32.8203 60.4228 33.625 63.9712 33.625C67.5193 33.625 70.501 32.8203 72.5933 31.2974C74.95 29.5825 76.1954 26.9541 76.1954 23.6961C76.1954 20.7837 75.3096 19.1235 74.4526 17.5182Z" fill="#2BB06D"/>
<path d="M58.7663 22.8743C58.0605 22.8743 57.4883 23.4465 57.4883 24.1524C57.4883 24.8582 58.0605 25.4307 58.7663 25.4307C59.4722 25.4307 60.0446 24.8582 60.0446 24.1524C60.0446 23.4465 59.4722 22.8743 58.7663 22.8743Z" fill="#2BB06D"/>
<path d="M69.1745 22.8743C68.4687 22.8743 67.8965 23.4465 67.8965 24.1524C67.8965 24.8582 68.4687 25.4307 69.1745 25.4307C69.8804 25.4307 70.4528 24.8582 70.4528 24.1524C70.4528 23.4465 69.8804 22.8743 69.1745 22.8743Z" fill="#2BB06D"/>
<path d="M60.0891 4.14155C58.4235 4.14155 58.8322 6.56284 58.9064 7.64256C59.0239 9.36541 59.1154 11.0913 59.2633 12.8116C59.3132 13.3885 59.3197 14.334 60.0891 14.334C60.8585 14.334 60.8651 13.3885 60.9147 12.8116C61.0626 11.0913 61.1543 9.36541 61.2718 7.64256C61.3458 6.56284 61.7547 4.14155 60.0891 4.14155Z" fill="#2BB06D"/>
<path d="M64.1627 27.7797L65.5878 26.3546C65.6269 26.3154 65.6387 26.256 65.6176 26.2053C65.5963 26.1541 65.5464 26.1207 65.4911 26.1207H62.4475C62.3924 26.1207 62.3423 26.1541 62.3209 26.2053C62.2999 26.256 62.3114 26.3154 62.3508 26.3546L63.7754 27.7797L62.3508 29.2046C62.3114 29.244 62.2999 29.3029 62.3209 29.3538C62.3423 29.4053 62.3924 29.4385 62.4475 29.4385H65.4911H65.4935C65.5694 29.4385 65.6305 29.3771 65.6305 29.3015C65.6305 29.2555 65.6078 29.2144 65.5727 29.1892L64.1627 27.7797Z" fill="#2BB06D"/>
<path d="M67.8534 19.3896C69.5311 19.3896 70.8453 18.0152 70.8453 16.2606V10.5744C70.8453 10.0658 69.0372 9.04904 66.6636 9.04904C65.981 9.04904 65.3686 9.1386 64.8613 9.30979V16.2606C64.8613 18.0152 66.1755 19.3896 67.8534 19.3896Z" fill="white"/>
<path d="M69.1756 25.4308C68.4698 25.4308 67.8976 24.8583 67.8976 24.1525C67.8976 23.4466 68.4698 22.8744 69.1756 22.8744C69.8815 22.8744 70.4539 23.4466 70.4539 24.1525C70.4539 24.8583 69.8815 25.4308 69.1756 25.4308ZM65.4958 29.4371H65.4933H62.45C62.3946 29.4371 62.3445 29.4043 62.3234 29.353C62.3023 29.3018 62.3138 29.2427 62.353 29.2038L63.7776 27.7789L62.353 26.3538C62.3138 26.3146 62.3023 26.2555 62.3234 26.2045C62.3445 26.1533 62.3946 26.1199 62.45 26.1199H65.4933C65.5486 26.1199 65.5985 26.1533 65.6198 26.2045C65.6409 26.2555 65.6291 26.3146 65.59 26.3538L64.1651 27.7789L65.5749 29.1887C65.61 29.2136 65.6327 29.2542 65.6327 29.3002C65.6327 29.3763 65.5716 29.4371 65.4958 29.4371ZM61.2722 7.64331C61.1544 9.36615 61.0627 11.0917 60.9147 12.8124C60.8654 13.389 60.8586 14.3345 60.0895 14.3345C59.3201 14.3345 59.3135 13.389 59.2637 12.8124C59.1158 11.0917 59.0243 9.36615 58.9065 7.64331C58.8325 6.56332 58.4239 4.14202 60.0895 4.14202C61.7551 4.14202 61.3461 6.56332 61.2722 7.64331ZM58.7674 25.4308C58.0612 25.4308 57.4891 24.8583 57.4891 24.1525C57.4891 23.4466 58.0612 22.8744 58.7674 22.8744C59.4732 22.8744 60.0457 23.4466 60.0457 24.1525C60.0457 24.8583 59.4732 25.4308 58.7674 25.4308ZM72.8826 18.3567C72.7432 18.0954 72.6013 17.8275 72.46 17.5509C71.9215 19.6575 70.0932 21.17 67.8538 21.17C65.1775 21.17 63.0813 19.0135 63.0813 16.2608V4.88841C63.0813 3.13407 61.7671 1.75936 60.0895 1.75936C58.4116 1.75936 57.0974 3.13407 57.0974 4.88841V10.5746C57.0974 14.5402 56.0152 16.5679 55.0601 18.3567C54.2376 19.8977 53.5273 21.2288 53.5273 23.6961C53.5273 26.3993 54.4926 28.4724 56.3965 29.8581C58.1826 31.1578 60.8019 31.8447 63.9715 31.8447H63.9718C67.8724 31.8447 74.4159 30.7858 74.4159 23.6961C74.4159 21.2288 73.7054 19.898 72.8826 18.3567Z" fill="white"/>
<path d="M10.9395 56.0928V42.3933L19.0776 49.7298V42.3933H21.9194V56.0928L13.7809 48.7569V56.0928H10.9395Z" fill="#2BB06D"/>
<path d="M24.0156 42.3923V50.6077C24.0156 53.6365 26.4709 56.0918 29.4994 56.0918C32.5282 56.0918 34.9835 53.6365 34.9835 50.6077V42.3923H32.142V50.7367C32.142 52.1961 30.959 53.3791 29.4994 53.3791C28.0403 53.3791 26.8574 52.1961 26.8574 50.7367V42.3923H24.0156Z" fill="#2BB06D"/>
<path d="M37.0801 42.3923H48.0477V45.105H43.9846V56.0918H41.1431V45.105H37.0801V42.3923Z" fill="#2BB06D"/>
<path d="M52.9843 45.1066H56.2383C56.9909 45.1066 57.6009 45.7169 57.6009 46.4693C57.6009 47.222 56.9909 47.832 56.2383 47.832H52.9843V45.1066ZM56.1284 50.5447H56.2383C58.4889 50.5447 60.3136 48.7197 60.3136 46.4693C60.3136 44.2187 58.4889 42.3939 56.2383 42.3939H50.1426V56.0967H52.9843V50.9988L57.1909 56.0931H60.71L56.1284 50.5447Z" fill="#2BB06D"/>
<path d="M68.2479 48.8079L67.0198 51.5787H69.4865L68.2479 48.8079ZM62.1777 56.0918L68.2479 42.3978L74.3182 56.0918H71.4767L70.6131 54.1433H65.8828L65.0192 56.0918H62.1777Z" fill="#2BB06D"/>
<path d="M96.1581 52.0527C96.1581 51.196 95.4638 50.5013 94.607 50.5013H91.4801V53.6038H94.607C95.4638 53.6038 96.1581 52.9095 96.1581 52.0527ZM91.4801 44.9094V47.9431H94.4944C95.332 47.9431 96.0113 47.2641 96.0113 46.4262C96.0113 45.5884 95.332 44.9094 94.4944 44.9094H91.4801ZM95.4487 42.3933C97.3285 42.3933 98.8527 43.9176 98.8527 45.7976C98.8527 47.6774 97.3285 49.2017 95.4487 49.2017H95.4287C95.4169 49.2033 95.4087 49.2137 95.4098 49.2244C95.4106 49.2337 95.4186 49.2417 95.4287 49.243H95.575C97.4663 49.243 98.9998 50.7763 98.9998 52.6679C98.9998 54.5592 97.4663 56.0928 95.575 56.0928H88.6387V42.3933H95.4487Z" fill="#2BB06D"/>
<path d="M83.7013 52.0527C83.7013 51.196 83.0067 50.5013 82.15 50.5013H79.0234V53.6038H82.15C83.0067 53.6038 83.7013 52.9095 83.7013 52.0527ZM79.0234 44.9094V47.9431H82.0374C82.875 47.9431 83.5543 47.2641 83.5543 46.4262C83.5543 45.5884 82.875 44.9094 82.0374 44.9094H79.0234ZM82.9917 42.3933C84.8717 42.3933 86.3957 43.9176 86.3957 45.7976C86.3957 47.6774 84.8717 49.2017 82.9917 49.2017H82.9717C82.9599 49.2033 82.9519 49.2137 82.9528 49.2244C82.9539 49.2337 82.9615 49.2417 82.9717 49.243H83.1179C85.0092 49.243 86.5428 50.7763 86.5428 52.6679C86.5428 54.5592 85.0092 56.0928 83.1179 56.0928H76.1816V42.3933H82.9917Z" fill="#2BB06D"/>
<path d="M103.937 56.0938H101.096V42.3943H103.937V56.0938Z" fill="#2BB06D"/>
<path d="M106.033 42.3926H117.001V45.105H112.938V56.0918H110.097V45.105H106.033V42.3926Z" fill="#2BB06D"/>
</g>
<defs>
<clipPath id="clip0_1515_20041">
<rect width="106" height="56.0814" fill="white" transform="translate(11)"/>
</clipPath>
</defs>
</svg>
