<svg width="138" height="25" viewBox="0 0 138 25" fill="none" xmlns="http://www.w3.org/2000/svg">
<path d="M36.1096 15.4836C36.1096 18.1077 34.1356 20.163 31.6148 20.163C29.0946 20.163 27.1201 18.1077 27.1201 15.4836V4.23263H22.2207V15.4836C22.2207 20.8198 26.347 25 31.6148 25C36.8827 25 41.009 20.8198 41.009 15.4836V4.23263H36.1096V15.4836Z" fill="#16AE68"/>
<path d="M64.2129 13.7493V23.791H69.1123V13.7493C69.1123 10.9946 70.9604 9.07044 73.6065 9.07044H76.8764V4.23339H73.6065C68.2515 4.23339 64.2129 8.32408 64.2129 13.7493Z" fill="#16AE68"/>
<path d="M9.39366 3.02365C4.12629 3.02365 0 7.20382 0 12.5401V23.791H4.89942V12.5401C4.89942 9.91595 6.8734 7.86069 9.39366 7.86069C11.9139 7.86069 13.8879 9.91595 13.8879 12.5401V23.791H18.7873V12.5401C18.7873 7.20382 14.661 3.02365 9.39366 3.02365Z" fill="#16AE68"/>
<path d="M53.0154 0.605129H48.116V4.23388H44.4414V9.07092H48.116V14.2751C48.116 19.6998 52.1546 23.791 57.5096 23.791H60.7795V18.954H57.5096C54.8634 18.954 53.0154 17.0298 53.0154 14.2751V9.07092H60.7795V4.23388H53.0154V0.605129Z" fill="#16AE68"/>
<path d="M80.3086 23.791H85.208V9.06947H80.3086V23.791Z" fill="#16AE68"/>
<path d="M82.7599 0.000570774C81.0681 0.000570774 79.6973 1.35398 79.6973 3.02372C79.6973 4.69347 81.0681 6.04688 82.7599 6.04688C84.4507 6.04688 85.822 4.69347 85.822 3.02372C85.822 1.35398 84.4507 0.000570774 82.7599 0.000570774Z" fill="#16AE68"/>
<path d="M104.352 0.845659H96.7285V5.199H104.352C105.813 5.199 106.957 6.25735 106.957 7.60882C106.957 8.9598 105.813 10.0186 104.352 10.0186H99.1782V14.372L104.352 14.3739C105.813 14.3739 106.957 15.4318 106.957 16.7832C106.957 18.1347 105.813 19.1935 104.352 19.1935H96.7285V23.5469H104.352C108.22 23.5469 111.367 20.5126 111.367 16.7832C111.367 15.0119 110.656 13.3978 109.496 12.1909C110.653 10.9846 111.367 9.37772 111.367 7.60882C111.367 3.87946 108.22 0.845659 104.352 0.845659Z" fill="#16AE68"/>
<path d="M137.999 7.60929C137.999 3.87993 134.852 0.846134 130.985 0.846134H123.361V5.19948H130.985C132.445 5.19948 133.59 6.25782 133.59 7.60929C133.59 8.96028 132.445 10.0186 130.985 10.0186H125.811V14.372L130.985 14.3739C132.445 14.3739 133.59 15.4322 133.59 16.7837C133.59 18.1352 132.445 19.1935 130.985 19.1935H123.361V23.5469H130.985C134.852 23.5469 137.999 20.5131 137.999 16.7837C137.999 15.0124 137.289 13.3983 136.129 12.1914C137.286 10.9851 137.999 9.37772 137.999 7.60929Z" fill="#16AE68"/>
<path d="M117.724 9.7777C116.37 9.7777 115.273 10.8602 115.273 12.1962C115.273 13.5322 116.37 14.6152 117.724 14.6152C119.076 14.6152 120.173 13.5322 120.173 12.1962C120.173 10.8602 119.076 9.7777 117.724 9.7777Z" fill="#16AE68"/>
</svg>
