<svg width="48" height="48" viewBox="0 0 48 48" fill="none" xmlns="http://www.w3.org/2000/svg">
<path d="M24 0V5.7" stroke="black" stroke-width="2" stroke-miterlimit="10"/>
<path d="M28.6008 5.7002H19.3008V11.8002H28.6008V5.7002Z" stroke="black" stroke-width="2" stroke-miterlimit="10"/>
<path d="M34.2008 11.7998H13.8008V46.9998H34.2008V11.7998Z" stroke="black" stroke-width="2" stroke-miterlimit="10"/>
<path d="M37.6992 23.7002H41.4992" stroke="black" stroke-width="2" stroke-miterlimit="10"/>
<path d="M37.6992 29.5996H41.4992" stroke="black" stroke-width="2" stroke-miterlimit="10"/>
<path d="M37.6992 35.5H41.4992" stroke="black" stroke-width="2" stroke-miterlimit="10"/>
<path d="M37.6992 41.5H41.4992" stroke="black" stroke-width="2" stroke-miterlimit="10"/>
<path d="M6.5 23.7002H10.3" stroke="black" stroke-width="2" stroke-miterlimit="10"/>
<path d="M6.5 29.5996H10.3" stroke="black" stroke-width="2" stroke-miterlimit="10"/>
<path d="M6.5 35.5H10.3" stroke="black" stroke-width="2" stroke-miterlimit="10"/>
<path d="M6.5 41.5H10.3" stroke="black" stroke-width="2" stroke-miterlimit="10"/>
<path d="M17.9004 17.5H22.7004" stroke="black" stroke-width="2" stroke-miterlimit="10"/>
<path d="M25.3008 17.5H30.1008" stroke="black" stroke-width="2" stroke-miterlimit="10"/>
<path d="M17.9004 23.5H22.7004" stroke="black" stroke-width="2" stroke-miterlimit="10"/>
<path d="M25.3008 23.5H30.1008" stroke="black" stroke-width="2" stroke-miterlimit="10"/>
<path d="M17.9004 29.4004H22.7004" stroke="black" stroke-width="2" stroke-miterlimit="10"/>
<path d="M25.3008 29.4004H30.1008" stroke="black" stroke-width="2" stroke-miterlimit="10"/>
<path d="M17.9004 35.4004H22.7004" stroke="black" stroke-width="2" stroke-miterlimit="10"/>
<path d="M25.3008 35.4004H30.1008" stroke="black" stroke-width="2" stroke-miterlimit="10"/>
<path d="M17.9004 41.2998H22.7004" stroke="black" stroke-width="2" stroke-miterlimit="10"/>
<path d="M25.3008 41.2998H30.1008" stroke="black" stroke-width="2" stroke-miterlimit="10"/>
<path d="M41.4992 18.2002H34.1992V47.0002H41.4992V18.2002Z" stroke="black" stroke-width="2" stroke-miterlimit="10"/>
<path d="M13.8 18.2002H6.5V47.0002H13.8V18.2002Z" stroke="black" stroke-width="2" stroke-miterlimit="10"/>
<path d="M0 47H48" stroke="black" stroke-width="2" stroke-miterlimit="10"/>
</svg>
