<svg width="25" height="24" viewBox="0 0 25 24" fill="none" xmlns="http://www.w3.org/2000/svg">
<path d="M12.1948 7.36703C12.5196 7.36703 13.096 7.23065 13.9241 6.95788C14.7522 6.68512 15.4585 6.54874 16.043 6.54874C17.0172 6.54874 17.8859 6.80546 18.649 7.31889C18.8601 7.47934 19.0712 7.65584 19.2822 7.84838C19.4933 8.04092 19.7044 8.26554 19.9155 8.52226C19.2822 9.06779 18.8195 9.54914 18.5272 9.96631C17.9914 10.7044 17.7235 11.5307 17.7235 12.4452C17.7235 13.44 18.0076 14.3385 18.5759 15.1408C19.128 15.927 19.7693 16.4324 20.5 16.657C20.3376 17.1384 20.1347 17.6358 19.8911 18.1492C19.6476 18.6466 19.3553 19.152 19.0143 19.6655C17.9752 21.1897 16.9279 21.9519 15.8725 21.9519C15.4341 21.9519 14.8577 21.8235 14.1433 21.5668C13.4451 21.3582 12.8362 21.2539 12.3166 21.2539C11.7808 21.2539 11.1963 21.3662 10.563 21.5909C9.88109 21.8636 9.34527 22 8.95559 22C7.72159 22 6.50382 20.9811 5.30229 18.9434C4.10076 16.8897 3.5 14.868 3.5 12.8785C3.5 11.0493 3.95463 9.54914 4.8639 8.37786C5.7894 7.22262 6.95033 6.64501 8.3467 6.64501C8.94747 6.64501 9.67001 6.76534 10.5143 7.00602C11.3749 7.24669 11.9351 7.36703 12.1948 7.36703ZM15.9212 2.50542C15.9212 3.01885 15.7994 3.5724 15.5559 4.16607C15.3123 4.75973 14.9389 5.31328 14.4355 5.82672C13.9647 6.25993 13.5181 6.54874 13.096 6.69314C12.7875 6.77337 12.3734 6.83755 11.8539 6.88568C11.8701 5.69836 12.1786 4.67148 12.7794 3.80505C13.3964 2.92258 14.4193 2.3209 15.8481 2C15.8806 2.11231 15.8968 2.20858 15.8968 2.28881C15.9131 2.36903 15.9212 2.44124 15.9212 2.50542Z" fill="white"/>
</svg>
