<svg width="25" height="24" viewBox="0 0 25 24" fill="none" xmlns="http://www.w3.org/2000/svg">
<g clip-path="url(#clip0_609_82501)">
<path d="M22.1008 0.300781H2.90078C1.74098 0.300781 0.800781 1.24098 0.800781 2.40078V21.6008C0.800781 22.7606 1.74098 23.7008 2.90078 23.7008H22.1008C23.2606 23.7008 24.2008 22.7606 24.2008 21.6008V2.40078C24.2008 1.24098 23.2606 0.300781 22.1008 0.300781Z" fill="white"/>
<path d="M22.1 0.6C22.5774 0.6 23.0352 0.78965 23.3728 1.12722C23.7104 1.46478 23.9 1.92261 23.9 2.4V21.6C23.9 22.0774 23.7104 22.5352 23.3728 22.8728C23.0352 23.2104 22.5774 23.4 22.1 23.4H2.9C2.42261 23.4 1.96476 23.2104 1.6272 22.8728C1.28963 22.5352 1.1 22.0774 1.1 21.6V2.4C1.1 1.92261 1.28963 1.46478 1.6272 1.12722C1.96476 0.78965 2.42261 0.6 2.9 0.6H22.1ZM22.1 0H2.9C2.26348 0 1.65303 0.252855 1.20294 0.702942C0.752855 1.15303 0.5 1.76348 0.5 2.4V21.6C0.5 22.2365 0.752855 22.847 1.20294 23.2971C1.65303 23.7471 2.26348 24 2.9 24H22.1C22.7365 24 23.347 23.7471 23.7971 23.2971C24.2471 22.847 24.5 22.2365 24.5 21.6V2.4C24.5 1.76348 24.2471 1.15303 23.7971 0.702942C23.347 0.252855 22.7365 0 22.1 0Z" fill="#E6E6EA"/>
<path d="M14.1383 12.3235L10.7303 7.43945H7.9043V16.5595H10.8623V11.6755L14.2703 16.5595H17.0963V7.43945H14.1383V12.3235Z" fill="#03C75A"/>
</g>
<defs>
<clipPath id="clip0_609_82501">
<rect width="24" height="24" fill="white" transform="translate(0.5)"/>
</clipPath>
</defs>
</svg>
