<svg width="20" height="20" viewBox="0 0 20 20" fill="none" xmlns="http://www.w3.org/2000/svg">
<path d="M20 8.57665L15.0515 10L20 11.4227L14.8467 11.4083L19.1898 14.1543L14.2498 12.7033L17.6354 16.5487L13.3081 13.7788L15.4624 18.4123L12.0985 14.5483L12.8463 19.5945L10.7187 14.949L10 20L9.2813 14.949L7.15368 19.5945L7.90147 14.5483L4.53824 18.4123L6.69192 13.7788L2.36456 16.5487L5.75021 12.7033L0.810205 14.1543L5.15331 11.4083L0 11.4227L4.94849 10L0 8.57665L5.15331 8.59105L0.810205 5.84573L5.75021 7.29667L2.36456 3.4513L6.69192 6.22121L4.53824 1.58769L7.90147 5.45166L7.15368 0.40487L9.2813 5.05098L10 0L10.7187 5.05098L12.8463 0.40487L12.0985 5.45166L15.4624 1.58769L13.3081 6.22121L17.6354 3.4513L14.2498 7.29667L19.1898 5.84573L14.8467 8.59105L20 8.57665Z" fill="#AB68F6"/>
</svg>
