<svg width="24" height="24" viewBox="0 0 24 24" fill="none" xmlns="http://www.w3.org/2000/svg">
<path d="M12.3201 7.38411C12.5322 7.20733 12.5609 6.89205 12.3841 6.67991C12.2073 6.46777 11.892 6.43911 11.6799 6.61589L12.3201 7.38411ZM6 12L5.67991 11.6159L5.21898 12L5.67991 12.3841L6 12ZM11.6799 17.3841C11.892 17.5609 12.2073 17.5322 12.3841 17.3201C12.5609 17.108 12.5322 16.7927 12.3201 16.6159L11.6799 17.3841ZM11.6799 6.61589L5.67991 11.6159L6.32009 12.3841L12.3201 7.38411L11.6799 6.61589ZM5.67991 12.3841L11.6799 17.3841L12.3201 16.6159L6.32009 11.6159L5.67991 12.3841Z" fill="#A4A4A4"/>
<path d="M17.3201 7.38411C17.5322 7.20733 17.5609 6.89205 17.3841 6.67991C17.2073 6.46777 16.892 6.43911 16.6799 6.61589L17.3201 7.38411ZM11 12L10.6799 11.6159L10.219 12L10.6799 12.3841L11 12ZM16.6799 17.3841C16.892 17.5609 17.2073 17.5322 17.3841 17.3201C17.5609 17.108 17.5322 16.7927 17.3201 16.6159L16.6799 17.3841ZM16.6799 6.61589L10.6799 11.6159L11.3201 12.3841L17.3201 7.38411L16.6799 6.61589ZM10.6799 12.3841L16.6799 17.3841L17.3201 16.6159L11.3201 11.6159L10.6799 12.3841Z" fill="#A4A4A4"/>
</svg>
