<svg width="24" height="24" viewBox="0 0 24 24" fill="none" xmlns="http://www.w3.org/2000/svg">
<path d="M8.67991 16.6159C8.46777 16.7927 8.43911 17.108 8.61589 17.3201C8.79267 17.5322 9.10795 17.5609 9.32009 17.3841L8.67991 16.6159ZM15 12L15.3201 12.3841L15.781 12L15.3201 11.6159L15 12ZM9.32009 6.61589C9.10795 6.43911 8.79267 6.46777 8.61589 6.67991C8.43911 6.89205 8.46777 7.20733 8.67991 7.38411L9.32009 6.61589ZM9.32009 17.3841L15.3201 12.3841L14.6799 11.6159L8.67991 16.6159L9.32009 17.3841ZM15.3201 11.6159L9.32009 6.61589L8.67991 7.38411L14.6799 12.3841L15.3201 11.6159Z" fill="#A4A4A4"/>
</svg>
