<svg width="24" height="24" viewBox="0 0 24 24" fill="none" xmlns="http://www.w3.org/2000/svg">
<path d="M15.3201 16.6159C15.5322 16.7927 15.5609 17.108 15.3841 17.3201C15.2073 17.5322 14.892 17.5609 14.6799 17.3841L15.3201 16.6159ZM9 12L8.67991 12.3841L8.21898 12L8.67991 11.6159L9 12ZM14.6799 6.61589C14.892 6.43911 15.2073 6.46777 15.3841 6.67991C15.5609 6.89205 15.5322 7.20733 15.3201 7.38411L14.6799 6.61589ZM14.6799 17.3841L8.67991 12.3841L9.32009 11.6159L15.3201 16.6159L14.6799 17.3841ZM8.67991 11.6159L14.6799 6.61589L15.3201 7.38411L9.32009 12.3841L8.67991 11.6159Z" fill="#A4A4A4"/>
</svg>
