<svg width="21" height="20" viewBox="0 0 21 20" fill="none" xmlns="http://www.w3.org/2000/svg">
<path d="M20.5 8.57665L15.5515 10L20.5 11.4227L15.3467 11.4083L19.6898 14.1543L14.7498 12.7033L18.1354 16.5487L13.8081 13.7788L15.9624 18.4123L12.5985 14.5483L13.3463 19.5945L11.2187 14.949L10.5 20L9.7813 14.949L7.65368 19.5945L8.40147 14.5483L5.03824 18.4123L7.19192 13.7788L2.86456 16.5487L6.25021 12.7033L1.3102 14.1543L5.65331 11.4083L0.5 11.4227L5.44849 10L0.5 8.57665L5.65331 8.59105L1.3102 5.84573L6.25021 7.29667L2.86456 3.4513L7.19192 6.22121L5.03824 1.58769L8.40147 5.45166L7.65368 0.40487L9.7813 5.05098L10.5 0L11.2187 5.05098L13.3463 0.40487L12.5985 5.45166L15.9624 1.58769L13.8081 6.22121L18.1354 3.4513L14.7498 7.29667L19.6898 5.84573L15.3467 8.59105L20.5 8.57665Z" fill="#5273E8"/>
</svg>
