<svg width="100" height="100" viewBox="0 0 100 100" fill="none" xmlns="http://www.w3.org/2000/svg">
<path d="M70.5491 31.3835C72.1778 29.7547 74.8197 29.7547 76.4484 31.3835C78.0771 33.0127 78.0771 35.6546 76.4484 37.2833L45.1175 68.6153C43.4882 70.2441 40.8463 70.2441 39.2176 68.6153L23.5516 52.9493C21.9229 51.3206 21.9229 48.6788 23.5516 47.05C25.1809 45.4207 27.8227 45.4207 29.4514 47.05L42.1675 59.7661L70.5491 31.3835ZM49.9997 0.000244141C63.8048 0.000244141 76.3061 5.59762 85.3544 14.6459C94.4026 23.6935 100 36.1954 100 50C100 63.8068 94.4032 76.3064 85.3544 85.3546C76.3061 94.4029 63.8048 100 49.9997 100C36.1935 100 23.6933 94.4034 14.6456 85.3546C5.59625 76.3064 0 63.8068 0 50C0 36.1954 5.59738 23.6935 14.6456 14.6459C23.6933 5.5965 36.1935 0.000244141 49.9997 0.000244141ZM79.4551 20.5451C71.9175 13.0081 61.5031 8.34571 49.9997 8.34571C38.4957 8.34571 28.0813 13.0081 20.5449 20.5451C13.0079 28.0821 8.34547 38.4971 8.34547 50C8.34547 61.5045 13.0079 71.9189 20.5449 79.4553C28.0813 86.9924 38.4957 91.6542 49.9997 91.6542C61.5031 91.6542 71.9175 86.9924 79.4551 79.4553C86.9921 71.9189 91.654 61.5045 91.654 50C91.654 38.4971 86.9921 28.0821 79.4551 20.5451Z" fill="#16AE68"/>
</svg>
