<svg width="54" height="54" viewBox="0 0 54 54" fill="none" xmlns="http://www.w3.org/2000/svg">
<path d="M27 52C40.8071 52 52 40.8071 52 27C52 13.1929 40.8071 2 27 2C13.1929 2 2 13.1929 2 27C2 40.8071 13.1929 52 27 52Z" stroke="#4C4C4C" stroke-width="3" stroke-linecap="round" stroke-linejoin="round"/>
<path d="M26.9995 32.4345C33.6029 32.4345 38.956 27.0814 38.956 20.478C38.956 13.8746 33.6029 8.52148 26.9995 8.52148C20.3961 8.52148 15.043 13.8746 15.043 20.478C15.043 27.0814 20.3961 32.4345 26.9995 32.4345Z" stroke="#4C4C4C" stroke-width="3" stroke-linecap="round" stroke-linejoin="round"/>
<path d="M46.5657 42.5431C46.1076 42.1675 45.6123 41.8397 45.0875 41.5648C39.5111 38.5891 33.3189 36.9518 27.0005 36.7822C20.6895 36.9551 14.5051 38.5924 8.93529 41.5648C8.4105 41.8397 7.91517 42.1675 7.45703 42.5431" stroke="#4C4C4C" stroke-width="3" stroke-linecap="round" stroke-linejoin="round"/>
</svg>
